<?xml version="1.0" standalone="no"?>
<!DOCTYPE svg PUBLIC "-//W3C//DTD SVG 1.1//EN" "http://www.w3.org/Graphics/SVG/1.1/DTD/svg11.dtd" >
<svg xmlns="http://www.w3.org/2000/svg" xmlns:xlink="http://www.w3.org/1999/xlink" version="1.1">
<metadata>
Created by FontForge 20201107 at Wed Mar  2 18:57:10 2022
 By 
Copyright 2019 The Syne Project Authors (https://gitlab.com/bonjour-monde/fonderie/syne-typeface)
</metadata>
<defs>
<font id="Syne-ExtraBold" horiz-adv-x="0" >
  <font-face 
    font-family="Syne ExtraBold"
    font-weight="800"
    font-stretch="normal"
    units-per-em="1000"
    panose-1="0 0 0 0 0 0 0 0 0 0"
    ascent="800"
    descent="-200"
    x-height="490"
    cap-height="640"
    bbox="-293 -324 2147 943"
    underline-thickness="75"
    underline-position="-186"
    unicode-range="U+000D-FB01"
  />
<missing-glyph horiz-adv-x="478" 
d="M90 411h298v-298h-298v298z" />
    <glyph glyph-name="fi" unicode="fi" horiz-adv-x="1059" 
d="M620 310v150h348v-150h-348zM764 460h240v-460h-240v460zM183 0v510l240 -50v-460h-240zM423 690h581v-160h-481q-40 1 -61.5 -4t-30 -20t-8.5 -46l-240 50q0 60 22.5 100t75 60t142.5 20zM20 460h634v-150h-634v150z" />
    <glyph glyph-name="f_f" unicode="ff" horiz-adv-x="1233" 
d="M742 0v510l240 -50v-460h-240zM982 690h231v-160h-131q-40 1 -61.5 -4t-30 -20t-8.5 -46l-240 50q0 60 22.5 100t75 60t142.5 20zM183 0v510l240 -50v-460h-240zM423 690h231v-160h-131q-40 1 -61.5 -4t-30 -20t-8.5 -46l-240 50q0 60 22.5 100t75 60t142.5 20zM20 460
h1193v-150h-1193v150z" />
    <glyph glyph-name="f_f_i" unicode="ffi" horiz-adv-x="1590" 
d="M1176 310v150h320v-150h-320zM1292 460h240v-460h-240v460zM742 0v510l240 -50v-460h-240zM183 0v510l240 -50v-460h-240zM423 690h231v-160h-131q-40 1 -61.5 -4t-30 -20t-8.5 -46l-240 50q0 60 22.5 100t75 60t142.5 20zM20 460h1193v-150h-1193v150zM982 690h553v-160
h-453q-40 1 -61.5 -4t-30 -20t-8.5 -46l-240 50q0 60 22.5 100t75 60t142.5 20z" />
    <glyph glyph-name=".notdef" horiz-adv-x="478" 
d="M90 411h298v-298h-298v298z" />
    <glyph glyph-name=".null" 
 />
    <glyph glyph-name="nonmarkingreturn" horiz-adv-x="333" 
 />
    <glyph glyph-name="CR" unicode="&#xd;" horiz-adv-x="600" 
 />
    <glyph glyph-name="space" unicode=" " horiz-adv-x="310" 
 />
    <glyph glyph-name="exclam" unicode="!" horiz-adv-x="394" 
d="M72 690h250v-486h-250v486zM324 151v-151h-254v151h254z" />
    <glyph glyph-name="quotedbl" unicode="&#x22;" horiz-adv-x="604" 
d="M210 436h-120l-65 117v107h250v-107zM514 436h-120l-65 117v107h250v-107z" />
    <glyph glyph-name="numbersign" unicode="#" horiz-adv-x="1392" 
d="M842 640h250v-640h-250v640zM300 640h250v-640h-250v640zM1332 261v-150h-1272v150h1272zM1332 529v-150h-1272v150h1272z" />
    <glyph glyph-name="dollar" unicode="$" horiz-adv-x="857" 
d="M466 699l64 -10l-24 -139l-64 10zM331 -59l25 139l64 -11l-25 -139zM46 241h221q14 -25 53.5 -35.5t112.5 -10.5q57 0 84.5 6t36 16t8.5 21q0 17 -18.5 24t-62.5 8.5t-121 1.5q-72 0 -129.5 6t-98 21t-61.5 40.5t-21 64.5q0 48 31 80.5t84 51t122.5 26.5t145.5 8
q126 0 206 -25.5t118 -68.5t37 -96h-215q-10 25 -41 35t-105 10q-69 0 -101 -10.5t-32 -33.5q0 -15 15.5 -22.5t59 -10t127.5 -2.5q58 0 113.5 -4t100 -17t70.5 -40.5t26 -74.5q0 -57 -46.5 -92t-131.5 -51.5t-201 -16.5q-126 0 -204 20t-118.5 50t-54 63t-10.5 58z" />
    <glyph glyph-name="percent" unicode="%" horiz-adv-x="1297" 
d="M317 325q-91 0 -155 17.5t-98 55.5t-34 100q0 92 75.5 133t211.5 41q135 0 209.5 -41t74.5 -133q0 -62 -33.5 -100t-97 -55.5t-153.5 -17.5zM317 425q59 0 89.5 18.5t30.5 54.5q0 35 -30.5 54.5t-89.5 19.5q-60 0 -92 -19t-32 -55t31.5 -54.5t92.5 -18.5zM983 -17
q-136 0 -211.5 40t-75.5 133q0 92 75.5 133t211.5 41t210 -41t74 -133q0 -93 -74 -133t-210 -40zM983 83q59 0 90 18.5t31 54.5q0 35 -31 54.5t-90 19.5t-91 -19t-32 -55t31 -54.5t92 -18.5zM813 686l54 -30l-382 -690l-52 32z" />
    <glyph glyph-name="ampersand" unicode="&#x26;" horiz-adv-x="1220" 
d="M384 -15q-70 0 -133 11.5t-111.5 34t-76.5 57t-28 80.5q0 53 33 84.5t92.5 47t141 21.5t177.5 7l1 -6q-92 1 -169.5 7.5t-135 23t-89 46t-31.5 75.5q0 65 55 106t159 60.5t250 19.5q104 0 193 -15t155 -46.5t103 -80t37 -115.5h-239q-4 33 -68 50t-171 17
q-111 0 -162.5 -12.5t-51.5 -44.5q0 -22 24 -35.5t80.5 -19t155.5 -5.5h625v-70h-191v-283h-226q-3 17 -6.5 47t-6 69.5t-2.5 84.5l17 -12q-11 -28 -35 -62.5t-68 -67t-116.5 -53.5t-181.5 -21zM504 139q95 0 153 13.5t85 36t27 49.5v45h-194q-134 0 -204.5 -10.5
t-70.5 -54.5q0 -32 50 -55.5t154 -23.5z" />
    <glyph glyph-name="quotesingle" unicode="'" horiz-adv-x="300" 
d="M210 436h-120l-65 117v107h250v-107z" />
    <glyph glyph-name="parenleft" unicode="(" horiz-adv-x="405" 
d="M345 -97l-76 -76l-21 19.5t-52 57t-62.5 93t-52.5 128t-21 161.5t21 160.5t52.5 125.5t62.5 90t52 54.5l21 18.5l76 -76l-20.5 -23t-47 -69.5t-47 -116.5t-20.5 -164q0 -81 13.5 -143.5t34 -108t40.5 -74.5t33.5 -43z" />
    <glyph glyph-name="parenright" unicode=")" horiz-adv-x="405" 
d="M60 -97l13.5 14t33.5 43t40.5 74.5t34 108t13.5 143.5q0 94 -20.5 164t-47 116.5t-47 69.5l-20.5 23l76 76l21 -18.5t52.5 -54.5t62.5 -90t52 -125.5t21 -160.5t-21 -161.5t-52 -128t-62.5 -93t-52.5 -57l-21 -19.5z" />
    <glyph glyph-name="asterisk" unicode="*" horiz-adv-x="666" 
d="M595 655l51 -159l-196 -50l123 -150l-135 -98l-110 172l-109 -171l-134 97l127 153l-192 50l51 158l185 -72l-13 196h167l-14 -205z" />
    <glyph glyph-name="plus" unicode="+" horiz-adv-x="780" 
d="M50 345h680v-150h-680v150zM485 480v-420h-190v420h190z" />
    <glyph glyph-name="comma" unicode="," horiz-adv-x="303" 
d="M53 -167l-14 62q16 8 33.5 35.5t20.5 58.5l-68 11v153h253v-93q0 -91 -53 -152t-172 -75z" />
    <glyph glyph-name="hyphen" unicode="-" horiz-adv-x="590" 
d="M80 347h430v-150h-430v150z" />
    <glyph glyph-name="period" unicode="." horiz-adv-x="354" 
d="M304 151v-151h-254v151h254z" />
    <glyph glyph-name="slash" unicode="/" horiz-adv-x="622" 
d="M393 821l179 -65l-343 -942l-179 65z" />
    <glyph glyph-name="zero" unicode="0" horiz-adv-x="1066" 
d="M535 -15q-159 0 -264.5 26t-158 83t-52.5 150t52.5 150.5t158 84t264.5 26.5q158 0 262.5 -26.5t156.5 -84t52 -150.5t-52 -150t-156.5 -83t-262.5 -26zM535 135q74 0 124 12.5t76 36.5t26 60t-25.5 60.5t-75.5 37.5t-124 13q-75 0 -126.5 -12.5t-78 -37.5t-26.5 -61
t26 -60t77.5 -36.5t126.5 -12.5z" />
    <glyph glyph-name="one" unicode="1" horiz-adv-x="529" 
d="M25 300v190h434v-490h-240v300h-194z" />
    <glyph glyph-name="two" unicode="2" horiz-adv-x="1003" 
d="M503 150l-217 -28l-1 10l677 23v-155h-890v125q159 28 279 50.5t199.5 42t119.5 39t40 42.5q0 16 -17 23.5t-61.5 10.5t-127.5 3q-106 0 -160 -16.5t-59 -51.5h-250q0 74 54 127t160.5 81.5t263.5 28.5q93 0 174.5 -7.5t143.5 -26.5t97 -52.5t35 -85.5q0 -46 -34 -76
t-96 -49t-146 -32t-184 -26z" />
    <glyph glyph-name="three" unicode="3" horiz-adv-x="1055" 
d="M582 171l-2 5q96 0 176.5 -4t139.5 -18t91.5 -44t32.5 -83q0 -66 -60.5 -110t-172.5 -66t-266 -22q-156 0 -264.5 28.5t-165 83.5t-56.5 136h251q2 -22 33.5 -34.5t84.5 -18t117 -5.5q119 0 176.5 9.5t57.5 48.5q0 38 -70 47t-205 9h-149v70h149q99 0 156 5.5t80.5 19
t23.5 35.5q0 32 -51.5 44.5t-162.5 12.5q-106 0 -170.5 -17.5t-68.5 -50.5h-249q0 67 38 116t105.5 80.5t156 46.5t188.5 15q152 0 257.5 -19.5t161 -58.5t55.5 -99q0 -49 -31 -80t-87 -48.5t-132.5 -24.5t-167.5 -9z" />
    <glyph glyph-name="four" unicode="4" horiz-adv-x="1094" 
d="M900 495v-640h-240v536l91 -50l-443 -284l-17 58h385v-150h-626v150l610 380h240zM884 -35v150h180v-150h-180z" />
    <glyph glyph-name="five" unicode="5" horiz-adv-x="1015" 
d="M650 236q62 0 118.5 -8.5t100.5 -29.5t70 -57t26 -90q0 -75 -49 -124t-146.5 -73t-243.5 -24q-95 0 -180 14.5t-150.5 43t-103 68.5t-37.5 91h220q3 -14 37 -25t86.5 -16.5t110.5 -5.5q38 0 76.5 1t70 6t50.5 16t19 31q0 21 -19.5 32.5t-51.5 16.5t-70 6t-75 1
q-45 0 -93 -3.5t-86.5 -8t-57.5 -9.5l-198 35l50 376h759v-190h-543l-24 -176l-32 4q26 24 82 46.5t130 37t154 14.5z" />
    <glyph glyph-name="six" unicode="6" horiz-adv-x="1133" 
d="M692 440q134 0 224.5 -29t136 -80t45.5 -117t-51 -119t-159 -84t-278 -31q-190 0 -319 24t-195 73t-66 125q0 24 11.5 56t50.5 67q5 5 28.5 24.5t58.5 48t75 61.5t79 65t71.5 58t52 42l19.5 16h338l-634 -438l-63 -50q78 70 143.5 124t130 90.5t137 55t164.5 18.5z
M588 151q126 0 193 16t67 52q0 33 -67 52t-193 19q-142 0 -225 -19t-83 -52q0 -36 83 -52t225 -16z" />
    <glyph glyph-name="seven" unicode="7" horiz-adv-x="1153" 
d="M60 300v190h1013v-190l-505 -450h-327l593 521l27 -71h-801z" />
    <glyph glyph-name="eight" unicode="8" horiz-adv-x="1081" 
d="M540 339q-174 0 -278.5 13.5t-151 45.5t-46.5 86q0 55 46.5 94t151 60.5t278.5 21.5q175 0 279.5 -21.5t151 -60.5t46.5 -94q0 -54 -46.5 -86t-151 -45.5t-279.5 -13.5zM540 379q94 0 144 7t69 19t19 27t-19 25.5t-69 15.5t-144 5q-93 0 -140.5 -5t-64 -15.5t-16.5 -25.5
t16.5 -27t64 -19t140.5 -7zM540 -20q-185 0 -296 26t-160 71t-49 101q0 69 51.5 105t162.5 49t291 13t291.5 -13t163 -49t51.5 -105q0 -56 -49.5 -101t-160.5 -71t-296 -26zM540 169q104 0 160.5 5.5t78.5 17t22 28.5t-22 28t-78.5 16.5t-160.5 5.5q-103 0 -157 -5.5
t-73.5 -16.5t-19.5 -28t19.5 -28.5t73.5 -17t157 -5.5z" />
    <glyph glyph-name="nine" unicode="9" horiz-adv-x="1158" 
d="M441 60q-134 0 -224.5 29t-136 80t-45.5 117q0 72 53 123t169.5 78.5t306.5 27.5t314 -23t184.5 -70.5t60.5 -123.5q0 -31 -17 -65t-60 -73q-4 -4 -26 -23t-55.5 -47t-72.5 -60t-77 -64t-69.5 -58t-50.5 -42l-19 -16h-337l633 448l64 40q-78 -66 -145 -118t-134.5 -87.5
t-143.5 -54t-172 -18.5zM564 350q-142 0 -210.5 -14.5t-68.5 -54.5q0 -37 68.5 -54t210.5 -17t225.5 17t83.5 54q0 27 -38 42t-107 21t-164 6z" />
    <glyph glyph-name="colon" unicode=":" horiz-adv-x="354" 
d="M304 151v-151h-254v151h254zM304 513v-151h-254v151h254z" />
    <glyph glyph-name="semicolon" unicode=";" horiz-adv-x="354" 
d="M304 479v-151h-254v151h254zM79 -127l-14 62q16 8 33.5 35.5t20.5 58.5l-68 11v153h253v-93q0 -91 -53 -152t-172 -75z" />
    <glyph glyph-name="less" unicode="&#x3c;" horiz-adv-x="532" 
d="M382 548l70 -138l-251 -121l251 -115l-70 -149l-342 186v151z" />
    <glyph glyph-name="equal" unicode="=" horiz-adv-x="840" 
d="M50 480h740v-150h-740v150zM50 225h740v-150h-740v150z" />
    <glyph glyph-name="greater" unicode="&#x3e;" horiz-adv-x="552" 
d="M80 410l70 138l342 -186v-151l-342 -186l-70 149l251 115z" />
    <glyph glyph-name="question" unicode="?" horiz-adv-x="864" 
d="M286 201v150h136q84 0 118 18.5t34 56.5q0 46 -37.5 62.5t-114.5 16.5q-58 0 -88 -8.5t-42 -20.5t-16 -22h-235q-3 21 5 52.5t31.5 65.5t67.5 64.5t112 49.5t165 19q114 0 191.5 -20t124 -56.5t66.5 -85.5t20 -107q0 -78 -42 -130.5t-112 -78.5t-154 -26v0h-230zM284 0
v151h254v-151h-254z" />
    <glyph glyph-name="at" unicode="@" horiz-adv-x="1498" 
d="M725 -87q-224 0 -378 46.5t-233 137.5t-79 223q0 135 81.5 218.5t241 122.5t391.5 39q236 0 394.5 -39.5t239 -123t80.5 -217.5q0 -87 -32.5 -139t-90 -75.5t-134.5 -23.5q-76 0 -127 18.5t-80 49.5t-41.5 67.5t-12.5 72.5v201h240v-175q0 -31 5.5 -56.5t21 -40.5
t46.5 -15q32 0 48 15t21.5 39t5.5 50q0 87 -40.5 143.5t-116 89t-182.5 46t-239 13.5q-133 0 -242 -13.5t-186.5 -45t-119.5 -85.5t-42 -136q0 -100 65 -168.5t190.5 -103.5t307.5 -35q65 0 126 4t109.5 10t74.5 12l39 -97q-29 -6 -83 -13t-123.5 -11.5t-145.5 -4.5zM594 97
q-97 0 -172 26.5t-117.5 75t-42.5 114.5q0 65 41.5 113t115.5 74t174 26q111 0 195 -30.5t130.5 -79t46.5 -103.5q0 -41 -26.5 -80t-76 -69.5t-117.5 -48.5t-151 -18zM682 246q44 0 90.5 3.5t85.5 11t63 20t24 31.5q0 18 -24.5 30.5t-63.5 20t-85 10.5t-90 3
q-86 0 -128.5 -13.5t-42.5 -51.5q0 -37 42.5 -51t128.5 -14z" />
    <glyph glyph-name="A" unicode="A" horiz-adv-x="1160" 
d="M234 97v150h684v-150h-684zM10 0l429 640h278l433 -640h-275l-371 573h149l-368 -573h-275z" />
    <glyph glyph-name="B" unicode="B" horiz-adv-x="1140" 
d="M70 0v640h630q194 0 286 -38t92 -132q0 -60 -39.5 -92t-113 -44.5t-176.5 -15.5l8 8q75 0 139 -4t112 -18t75 -43t27 -80q0 -62 -44 -102t-125 -59.5t-191 -19.5h-680zM320 188h430q53 0 76.5 10t23.5 32q0 15 -10.5 24t-32.5 13.5t-57 4.5h-430v-84zM320 368h388
q53 0 76.5 10t23.5 32q0 23 -23.5 32.5t-76.5 9.5h-388v-84z" />
    <glyph glyph-name="C" unicode="C" horiz-adv-x="1316" 
d="M1255 267q-5 -95 -69 -159t-188.5 -96t-314.5 -32q-145 0 -260 15.5t-196 53t-124 102.5t-43 164t43 165.5t124 106t196 56.5t260 17q190 0 315 -34.5t189 -101.5t69 -163h-260q-12 32 -44 56.5t-96 38.5t-173 14q-128 0 -208 -15.5t-117 -49.5t-37 -90q0 -51 37 -83
t117 -47t208 -15q109 0 172.5 13t95.5 35.5t44 48.5h260z" />
    <glyph glyph-name="D" unicode="D" horiz-adv-x="1302" 
d="M790 640q135 0 223 -26t138 -71t70.5 -102.5t20.5 -120.5t-23 -120.5t-75.5 -102.5t-139 -71t-214.5 -26h-720v640h720zM320 200h460q56 0 95 7.5t62.5 22.5t34 37.5t10.5 52.5t-10.5 52.5t-34 37.5t-62.5 22.5t-95 7.5h-460v-240z" />
    <glyph glyph-name="E" unicode="E" horiz-adv-x="1140" 
d="M320 270v-80h760v-190h-1010v640h1008v-190h-758v-80h620v-100h-620z" />
    <glyph glyph-name="F" unicode="F" horiz-adv-x="1128" 
d="M1078 640v-190h-758v-85h620v-170h-620v-195h-250v640h1008z" />
    <glyph glyph-name="G" unicode="G" horiz-adv-x="1340" 
d="M653 -20q-130 0 -238.5 15.5t-188 53t-123 102.5t-43.5 164t44 165.5t126.5 106t197 56.5t255.5 17q185 0 310.5 -34t191.5 -96.5t71 -148.5h-260q-12 22 -44 42.5t-96 33.5t-173 13q-128 0 -208 -15.5t-117 -49.5t-37 -90q0 -49 38 -81t122 -48t222 -16q97 0 168.5 8.5
t130 26.5t116.5 45l24 -29q-62 -117 -184 -179t-305 -62zM1074 0q0 30 8 68t20.5 79.5t24.5 78.5h-390v105h533v-331h-196z" />
    <glyph glyph-name="H" unicode="H" horiz-adv-x="1280" 
d="M284 419h704v-190h-704v190zM960 640h250v-640h-250v640zM70 640h250v-640h-250v640z" />
    <glyph glyph-name="I" unicode="I" horiz-adv-x="420" 
d="M85 640h250v-640h-250v640z" />
    <glyph glyph-name="J" unicode="J" horiz-adv-x="1004" 
d="M684 329v311h250v-341q0 -57 -25.5 -111.5t-80 -99.5t-140 -71.5t-204.5 -26.5q-83 0 -163.5 15.5t-145.5 50.5t-104 93.5t-40 144.5h240q14 -62 64.5 -88t148.5 -26q83 0 126 19t58.5 53t15.5 77z" />
    <glyph glyph-name="K" unicode="K" horiz-adv-x="1215" 
d="M603 315v56l577 -371h-372l-490 340l452 300h356zM70 640h250v-640h-250v640z" />
    <glyph glyph-name="L" unicode="L" horiz-adv-x="943" 
d="M320 640v-450h583v-190h-833v640h250z" />
    <glyph glyph-name="M" unicode="M" horiz-adv-x="1580" 
d="M864 76h-150l546 564h250v-640h-250v436l75 -31l-395 -405h-300l-396 404l76 31v-435h-250v640h250z" />
    <glyph glyph-name="N" unicode="N" horiz-adv-x="1300" 
d="M1073 196l-93 -53v497h250v-640h-250l-753 436l93 54v-490h-250v640h250z" />
    <glyph glyph-name="O" unicode="O" horiz-adv-x="1330" 
d="M665 -20q-218 0 -351 38.5t-193.5 114t-60.5 187.5t60.5 187.5t193.5 114t351 38.5t351 -38.5t193.5 -114t60.5 -187.5t-60.5 -187.5t-193.5 -114t-351 -38.5zM665 170q103 0 178 12.5t116 45t41 92.5t-41 92.5t-116 45t-178 12.5t-180.5 -12.5t-121 -45t-43.5 -92.5
t43.5 -92.5t121 -45t180.5 -12.5z" />
    <glyph glyph-name="P" unicode="P" horiz-adv-x="1177" 
d="M302 165v175h499q30 0 50.5 9.5t20.5 40.5q0 32 -20.5 41t-50.5 9h-483v-440h-250v640h694q75 0 140.5 -10.5t114.5 -37.5t77 -76t28 -126t-28 -122t-77 -67t-114.5 -29t-140.5 -7h-460z" />
    <glyph glyph-name="Q" unicode="Q" horiz-adv-x="1330" 
d="M545 43h240v-243h-240v243zM665 -20q-218 0 -351 38.5t-193.5 114t-60.5 187.5t60.5 187.5t193.5 114t351 38.5t351 -38.5t193.5 -114t60.5 -187.5t-60.5 -187.5t-193.5 -114t-351 -38.5zM665 170q103 0 178 12.5t116 45t41 92.5t-41 92.5t-116 45t-178 12.5
t-180.5 -12.5t-121 -45t-43.5 -92.5t43.5 -92.5t121 -45t180.5 -12.5z" />
    <glyph glyph-name="R" unicode="R" horiz-adv-x="1232" 
d="M70 0v640h773q91 0 163.5 -20.5t115 -68.5t42.5 -131q0 -55 -20 -91t-55 -56t-80 -29t-94 -11l-73 14q119 -1 183.5 -10t90 -32.5t25.5 -67.5v-137h-250v107q0 30 -11.5 45.5t-50 21.5t-118.5 6h-391v-180h-250zM320 347h523q30 0 50.5 10t20.5 38q0 26 -20.5 35.5
t-50.5 9.5h-523v-93z" />
    <glyph glyph-name="S" unicode="S" horiz-adv-x="1056" 
d="M35 235h273q7 -21 41 -35.5t91.5 -22t133.5 -7.5q75 0 118.5 4.5t61.5 16t18 31.5q0 19 -29 29.5t-103 14.5t-208 4q-100 0 -172.5 9.5t-119 30t-68.5 52t-22 75.5q0 76 51.5 125.5t156 74t261.5 24.5q230 0 351.5 -66.5t121.5 -191.5h-259q-5 33 -62 50.5t-162 17.5
q-104 0 -154.5 -12t-50.5 -41q0 -15 14 -24t48.5 -14.5t97.5 -7.5t160 -2q107 0 182 -10.5t121.5 -31.5t67.5 -53.5t21 -76.5q0 -76 -48 -124t-152 -71t-272 -23q-95 0 -174.5 11t-141.5 32.5t-105 53t-65.5 71t-22.5 87.5z" />
    <glyph glyph-name="T" unicode="T" horiz-adv-x="1100" 
d="M30 640h1040v-190h-1040v190zM425 463h250v-463h-250v463z" />
    <glyph glyph-name="U" unicode="U" horiz-adv-x="1289" 
d="M969 365v275h250v-320q0 -85 -31.5 -144.5t-87.5 -98t-129 -59.5t-156.5 -29.5t-169.5 -8.5q-91 0 -176 8.5t-157.5 29.5t-126.5 59.5t-84.5 98t-30.5 144.5v320h250v-275q0 -80 39 -122t111.5 -57.5t174.5 -15.5q99 0 172 15.5t112.5 57.5t39.5 122z" />
    <glyph glyph-name="V" unicode="V" horiz-adv-x="1160" 
d="M408 0l-388 640h282l331 -615h-102l331 615h278l-384 -640h-348z" />
    <glyph glyph-name="W" unicode="W" horiz-adv-x="1882" 
d="M378 0l-358 640h282l302 -595l-95 -2l283 597h302l283 -597l-95 2l302 595h278l-354 -640h-338l-276 539h98l-276 -539h-338z" />
    <glyph glyph-name="X" unicode="X" horiz-adv-x="1140" 
d="M780 640h320l-450 -380l-10 -8l-290 -252h-320l470 394l7 6zM360 640l281 -247l6 -6l463 -387h-320l-302 261l-4 4l-444 375h320z" />
    <glyph glyph-name="Y" unicode="Y" horiz-adv-x="1070" 
d="M1065 640l-405 -477v-163h-250v163l-405 477h295l329 -415h-185l326 415h295z" />
    <glyph glyph-name="Z" unicode="Z" horiz-adv-x="1200" 
d="M70 640h1060v-190l-728 -301l-8 41h736v-190h-1060v190l731 301l8 -41h-739v190z" />
    <glyph glyph-name="bracketleft" unicode="[" horiz-adv-x="550" 
d="M490 -47v-150h-400v997h400v-150h-250v-697h250z" />
    <glyph glyph-name="backslash" unicode="\" horiz-adv-x="622" 
d="M229 821l343 -942l-179 -65l-343 942z" />
    <glyph glyph-name="bracketright" unicode="]" horiz-adv-x="550" 
d="M60 -47h250v697h-250v150h400v-997h-400v150z" />
    <glyph glyph-name="asciicircum" unicode="^" horiz-adv-x="587" 
d="M421 653v-150h-254v150h254z" />
    <glyph glyph-name="underscore" unicode="_" horiz-adv-x="980" 
d="M50 -50h880v-150h-880v150z" />
    <glyph glyph-name="grave" unicode="`" horiz-adv-x="722" 
d="M381 602l-281 150h320l202 -150h-241z" />
    <glyph glyph-name="a" unicode="a" horiz-adv-x="1063" 
d="M408 -14q-108 0 -192 30.5t-132.5 88.5t-48.5 140q0 86 48.5 144t132.5 87t192 29q120 0 207.5 -32.5t135 -91t47.5 -136.5q0 -58 -27 -105.5t-78 -82t-123 -53t-162 -18.5zM498 138q76 0 139.5 9.5t102 32.5t38.5 65q0 43 -38.5 66t-102 32t-139.5 9q-102 0 -158 -26.5
t-56 -80.5q0 -35 25 -59t73 -36t116 -12zM778 490h240v-490h-226l-3.5 23t-7 66t-3.5 101v300z" />
    <glyph glyph-name="b" unicode="b" horiz-adv-x="1098" 
d="M690 -14q-90 0 -162 18.5t-123 53t-78 82t-27 105.5t27 106t78 82.5t123 53t162 18.5q108 0 192.5 -29t132.5 -87t48 -144q0 -82 -48 -140t-132.5 -88.5t-192.5 -30.5zM600 138q68 0 116 12t73 36t25 59q0 54 -56 80.5t-158 26.5q-76 0 -139.5 -9t-102 -32t-38.5 -66
q0 -42 38.5 -65t102 -32.5t139.5 -9.5zM320 690v-500q0 -64 -4.5 -115.5t-9.5 -74.5h-226v690h240z" />
    <glyph glyph-name="c" unicode="c" horiz-adv-x="994" 
d="M959 213q0 -72 -45 -123t-142 -78t-252 -27t-263.5 25t-165 82t-56.5 152t56.5 152.5t165 83t263.5 25.5t251 -27t141 -78t46 -122h-220q-16 39 -72 60.5t-146 21.5q-73 0 -127 -10.5t-83.5 -35.5t-29.5 -70q0 -44 29 -69t83 -35t128 -10q90 0 146.5 21.5t72.5 61.5h220z
" />
    <glyph glyph-name="d" unicode="d" horiz-adv-x="1098" 
d="M408 -14q-108 0 -192 30.5t-132.5 88.5t-48.5 140q0 86 48.5 144t132.5 87t192 29q90 0 162 -18.5t123 -53t78 -82.5t27 -106t-27 -105.5t-78 -82t-123 -53t-162 -18.5zM498 138q76 0 139.5 9.5t102 32.5t38.5 65q0 43 -38.5 66t-102 32t-139.5 9q-102 0 -158 -26.5
t-56 -80.5q0 -35 25 -59t73 -36t116 -12zM778 690h240v-690h-226q-4 23 -9 74.5t-5 115.5v500z" />
    <glyph glyph-name="e" unicode="e" horiz-adv-x="994" 
d="M721 176h236q-9 -58 -57.5 -101t-141 -66.5t-235.5 -23.5q-151 0 -260.5 24t-168.5 81t-59 154q0 96 57.5 153.5t166.5 82.5t264 25q152 0 249 -27t143 -87.5t44 -163.5h-680q5 -26 28.5 -48t73 -35.5t132.5 -13.5q86 0 141.5 12t66.5 34zM513 360q-106 0 -161.5 -23
t-65.5 -46h440q-7 26 -56 47.5t-157 21.5z" />
    <glyph glyph-name="f" unicode="f" horiz-adv-x="674" 
d="M20 460h634v-150h-634v150zM423 690h231v-160h-131q-40 1 -61.5 -4t-30 -20t-8.5 -46v-460h-240v510q0 60 22.5 100t75 60t142.5 20z" />
    <glyph glyph-name="g" unicode="g" horiz-adv-x="969" 
d="M449 69q-142 0 -234 23.5t-136 71t-44 119.5q0 67 43 116.5t134.5 77.5t236.5 28h59h59h382v-126q-65 -3 -131.5 6.5t-122.5 25.5l-11 15q45 -14 85.5 -36t65.5 -53t25 -74q0 -62 -42.5 -105.5t-133 -66t-235.5 -22.5zM662 -215v27q0 30 -26.5 35.5t-83.5 5.5h-279
q-71 0 -114.5 10t-66 27t-30 37.5t-7.5 40.5q0 43 32 67.5t98 34.5t168 10l96 -11q-84 0 -117 -8.5t-33 -33.5q0 -14 13 -20.5t35 -6.5h295q99 0 156 -14.5t80.5 -49t23.5 -94.5v-57h-240zM449 200q66 0 106.5 10.5t58.5 28.5t18 40q0 25 -18 43t-58 28t-107 10
q-66 0 -107 -10t-60 -28t-19 -43q0 -22 18.5 -40t59.5 -28.5t108 -10.5z" />
    <glyph glyph-name="h" unicode="h" horiz-adv-x="1008" 
d="M723 0v182q0 45 -18 76t-63.5 46.5t-128.5 15.5q-47 0 -91.5 -8.5t-80 -20.5t-56.5 -24l-2 48q4 15 27.5 45.5t68.5 64t113.5 57t162.5 23.5q59 0 114 -11t98.5 -36.5t69.5 -68.5t26 -107v-282h-240zM55 0v690h240v-690h-240z" />
    <glyph glyph-name="i" unicode="i" horiz-adv-x="364" 
d="M309 747v-150h-254v150h254zM62 490h240v-490h-240v490z" />
    <glyph glyph-name="j" unicode="j" horiz-adv-x="364" 
d="M62 490h240v-690h-240v690zM309 747v-150h-254v150h254z" />
    <glyph glyph-name="k" unicode="k" horiz-adv-x="942" 
d="M55 690h240v-690h-240v690zM903 490l-396 -275l5 130l425 -345h-304l-334 279l286 211h318z" />
    <glyph glyph-name="l" unicode="l" horiz-adv-x="360" 
d="M60 690h240v-690h-240v690z" />
    <glyph glyph-name="m" unicode="m" horiz-adv-x="1654" 
d="M45 490h240v-490h-240v490zM645 505q59 0 114 -12.5t98.5 -42.5t69.5 -82t26 -131v-237h-240v207q0 75 -39 106.5t-141 31.5q-54 0 -104.5 -12t-90.5 -28.5t-63 -32.5l-2 38q4 18 27.5 50.5t68.5 65.5t113.5 56t162.5 23zM1301 505q59 0 114 -12.5t98.5 -42.5t69.5 -82
t26 -131v-237h-240v207q0 75 -39 106.5t-141 31.5q-54 0 -104.5 -12t-90.5 -28.5t-63 -32.5l-2 48q4 15 30 45t73.5 62t115 55t153.5 23z" />
    <glyph glyph-name="n" unicode="n" horiz-adv-x="998" 
d="M45 490h240v-490h-240v490zM645 505q59 0 114 -12.5t98.5 -42.5t69.5 -82t26 -131v-237h-240v207q0 75 -39 106.5t-141 31.5q-54 0 -104.5 -12t-90.5 -28.5t-63 -32.5l-2 38q4 18 27.5 50.5t68.5 65.5t113.5 56t162.5 23z" />
    <glyph glyph-name="o" unicode="o" horiz-adv-x="1016" 
d="M510 -15q-159 0 -264.5 26t-158 83t-52.5 150t52.5 150.5t158 84t264.5 26.5q158 0 262.5 -26.5t156.5 -84t52 -150.5t-52 -150t-156.5 -83t-262.5 -26zM510 130q74 0 124 12.5t76 38t26 63.5t-25.5 64t-75.5 39t-125 13q-74 0 -125.5 -13t-78 -38.5t-26.5 -64.5
q0 -38 26 -63.5t77.5 -38t126.5 -12.5z" />
    <glyph glyph-name="p" unicode="p" horiz-adv-x="1063" 
d="M655 -15q-90 0 -162 18.5t-123 53t-78 82.5t-27 106t27 105.5t78 82t123 53t162 18.5q108 0 192.5 -30.5t132.5 -88.5t48 -140q0 -86 -48 -144t-132.5 -87t-192.5 -29zM565 138q68 0 116 12t73 35.5t25 59.5q0 53 -56 80t-158 27q-76 0 -139.5 -9t-102 -32.5t-38.5 -65.5
t38.5 -65.5t102 -32.5t139.5 -9zM45 490h226l14 -190v-500h-240v690z" />
    <glyph glyph-name="q" unicode="q" horiz-adv-x="1098" 
d="M408 -15q-108 0 -192 29t-132.5 87t-48.5 144q0 82 48.5 140t132.5 88.5t192 30.5q90 0 162 -18.5t123 -53t78 -82t27 -105.5t-27 -106t-78 -82.5t-123 -53t-162 -18.5zM498 138q76 0 139.5 9t102 32.5t38.5 65.5t-38.5 65.5t-102 32.5t-139.5 9q-102 0 -158 -27t-56 -80
q0 -36 25 -59.5t73 -35.5t116 -12zM1018 490v-690h-240v500l14 190h226z" />
    <glyph glyph-name="r" unicode="r" horiz-adv-x="563" 
d="M45 490h240v-490h-240v490zM543 305q-65 0 -119 -12t-92 -28.5t-57 -32.5l-2 48q3 21 16 49.5t35 59t54 57t73.5 43t91.5 16.5v-200z" />
    <glyph glyph-name="s" unicode="s" horiz-adv-x="842" 
d="M40 176h221q14 -26 53.5 -36t113.5 -10q57 0 84.5 6t36 16t8.5 21q0 17 -18.5 23.5t-62.5 8t-121 1.5q-73 0 -130.5 6.5t-97.5 21t-61 40.5t-21 65q0 48 31 80.5t84 51t122.5 26.5t145.5 8q126 0 206 -25.5t118 -68.5t37 -97h-215q-11 26 -41.5 36t-104.5 10
q-70 0 -101.5 -10.5t-31.5 -33.5q0 -15 15.5 -22.5t59 -10.5t127.5 -3q58 0 113.5 -4t100 -17t70.5 -40t26 -74q0 -57 -46.5 -92.5t-131.5 -51.5t-201 -16q-101 0 -170.5 13t-113.5 34.5t-67.5 47t-31 51t-5.5 45.5z" />
    <glyph glyph-name="t" unicode="t" horiz-adv-x="628" 
d="M20 490h588v-150h-588v150zM194 640h240v-640h-240v640z" />
    <glyph glyph-name="u" unicode="u" horiz-adv-x="998" 
d="M953 0h-240v490h240v-490zM723 253l2 -48q-3 -21 -19.5 -49t-45.5 -58t-71 -55.5t-96 -41.5t-120 -16t-125 13.5t-105 44.5t-72 83.5t-26 131.5v232h240v-207q0 -55 18.5 -85t58.5 -41.5t103 -11.5q59 0 109.5 17.5t89 42.5t59.5 48z" />
    <glyph glyph-name="v" unicode="v" horiz-adv-x="918" 
d="M510 90l-114 2l252 398h265l-349 -490h-226l-333 490h264z" />
    <glyph glyph-name="w" unicode="w" horiz-adv-x="1462" 
d="M1079 92l-104 2l217 396h265l-309 -490h-226l-253 380l118 -1l-263 -379h-226l-293 490h264l204 -396h-103l226 396h265z" />
    <glyph glyph-name="x" unicode="x" horiz-adv-x="980" 
d="M950 490l-400 -288l-246 -202h-294l406 300l240 190h294zM10 490h294l252 -183l414 -307h-294l-263 191z" />
    <glyph glyph-name="y" unicode="y" horiz-adv-x="930" 
d="M5 490h255l292 -470l-207 -20zM925 490l-487 -690h-245l209 283l268 407h255z" />
    <glyph glyph-name="z" unicode="z" horiz-adv-x="896" 
d="M830 340l-541 -233l-9 43h556v-150h-776v150l537 233l9 -43h-546v150h770v-150z" />
    <glyph glyph-name="braceleft" unicode="{" horiz-adv-x="623" 
d="M130 800h403v-150h-225q0 -13 8 -34t19 -47.5t19 -56.5t8 -61q0 -48 -41.5 -80t-109 -49t-147.5 -21v20q80 -3 147.5 -20t109 -49t41.5 -81q0 -31 -8 -61t-19 -56.5t-19 -47.5t-8 -34h225v-150h-403q-8 47 2 97t27.5 98t31.5 88t14 66q0 44 -38.5 67t-136.5 23v100
q98 0 136.5 23t38.5 67q0 26 -14 66t-31.5 88t-27.5 98.5t-2 96.5z" />
    <glyph glyph-name="bar" unicode="|" horiz-adv-x="440" 
d="M100 800h240v-960h-240v960z" />
    <glyph glyph-name="braceright" unicode="}" horiz-adv-x="623" 
d="M418 451q0 -44 39 -67t136 -23v-100q-97 0 -136 -23t-39 -67q0 -26 14.5 -66t31.5 -88t27 -98t2 -97h-403v150h225q0 13 -8 34t-19 47.5t-19 56.5t-8 61q0 49 41.5 81t109.5 49t147 20v-20q-79 4 -147 21t-109.5 49t-41.5 80q0 31 8 61t19 56.5t19 47.5t8 34h-225v150
h403q8 -46 -2 -96.5t-27 -98.5t-31.5 -88t-14.5 -66z" />
    <glyph glyph-name="asciitilde" unicode="~" horiz-adv-x="414" 
d="M334 348v-151h-254v151h254z" />
    <glyph glyph-name="uni00A0" unicode="&#xa0;" horiz-adv-x="310" 
 />
    <glyph glyph-name="exclamdown" unicode="&#xa1;" horiz-adv-x="394" 
d="M72 -85v486h250v-486h-250zM324 454h-254v151h254v-151z" />
    <glyph glyph-name="cent" unicode="&#xa2;" horiz-adv-x="994" 
d="M739 213h220q0 -72 -45 -123t-142 -78t-252 -27h-12h-12l-15 -86l-59 11l14 77q-193 9 -297 68.5t-104 188.5q0 91 53.5 148.5t162.5 85t276 27.5l17 98l59 -11l-16 -88q196 -9 283 -68.5t88 -157.5h-220q-14 35 -59 55.5t-117 25.5l-40 -229h7q88 0 141 22t69 61z
M280 244q0 -58 48 -82.5t133 -29.5l40 228q-68 -1 -117.5 -12t-76.5 -36t-27 -68z" />
    <glyph glyph-name="sterling" unicode="&#xa3;" horiz-adv-x="1087" 
d="M35 282v65h681v-65h-681zM422 283q0 -33 -22 -52.5t-53 -28.5t-59.5 -11.5t-42.5 -2.5h754v-188h-905v188l18 0.5t44.5 3.5t53 10.5t44.5 20.5t18 33q0 10 -5 18.5t-13 16.5q-5 5 -0.5 12t11.5 14t9.5 12t-6.5 5q-27 0 -63 6t-69.5 21t-56 42.5t-22.5 70.5q0 65 57.5 106
t162 60.5t244.5 19.5q110 0 205.5 -15.5t167.5 -47.5t112.5 -80t40.5 -113h-264q-3 19 -38.5 33t-90.5 22t-118 8q-71 0 -124.5 -4.5t-83 -18.5t-29.5 -43q0 -24 18.5 -38.5t43 -26t43 -23.5t18.5 -30z" />
    <glyph glyph-name="currency" unicode="&#xa4;" horiz-adv-x="926" 
d="M465 54q-139 0 -236 27.5t-148 83t-51 138.5t51 138.5t148 84t236 28.5q138 0 234.5 -28.5t146.5 -84t50 -138.5t-50 -138.5t-146.5 -83t-234.5 -27.5zM465 194q95 0 140.5 31.5t45.5 77.5t-44.5 78.5t-141.5 32.5t-143.5 -32t-46.5 -79q0 -46 46 -77.5t144 -31.5z
M263 -44l-58 40l78 110l62 -33zM670 -44l-82 117l61 33l78 -110zM288 495l-83 119l58 40l82 -118zM644 495l-57 41l83 118l57 -40z" />
    <glyph glyph-name="yen" unicode="&#xa5;" horiz-adv-x="1070" 
d="M410 163l-405 477h295l329 -415h-185l326 415h295l-405 -477h-250zM410 10v14h250v-14h-250zM290 65h490v-65h-490v65zM290 175h490v-65h-490v65z" />
    <glyph glyph-name="brokenbar" unicode="&#xa6;" horiz-adv-x="440" 
d="M340 245v-405h-240v405h240zM340 800v-405h-240v405h240z" />
    <glyph glyph-name="section" unicode="&#xa7;" horiz-adv-x="869" 
d="M501 242l64 5q122 -11 185.5 -47t63.5 -95q0 -69 -87 -105t-252 -36q-90 0 -164.5 14t-128 40t-80 61t-20.5 76h204q10 -20 53.5 -30.5t123.5 -10.5q75 0 103 10t28 35q0 17 -13 26.5t-50 13.5t-108 6q-140 5 -225.5 20t-124 44t-38.5 75q0 44 41.5 68t125.5 29.5
t210 -9.5l-82 -6q-101 20 -160 39.5t-84.5 43.5t-25.5 56q0 68 92 106.5t255 38.5q176 0 274 -49.5t101 -138.5h-220q-5 20 -42.5 29t-118.5 9q-56 0 -88.5 -8.5t-32.5 -34.5q0 -19 15.5 -31t54.5 -18t107 -10q127 -5 209 -21t122.5 -42.5t40.5 -64.5q0 -54 -78.5 -75
t-249.5 -13zM285 341q0 -23 21 -37.5t64.5 -21t110.5 -6.5q53 4 75.5 18t22.5 42q0 24 -17 38t-56.5 19.5t-106.5 4.5q-60 -4 -87 -17.5t-27 -39.5z" />
    <glyph glyph-name="dieresis" unicode="&#xa8;" horiz-adv-x="558" 
d="M271 753v-151h-254v151h254zM575 753v-151h-254v151h254z" />
    <glyph glyph-name="copyright" unicode="&#xa9;" horiz-adv-x="1628" 
d="M816 -10q-234 0 -403.5 41t-261 118t-91.5 183q0 107 90.5 179t260 108.5t405.5 36.5q235 0 403 -36.5t258.5 -108.5t90.5 -179q0 -106 -91 -183t-259.5 -118t-401.5 -41zM816 90q130 0 242.5 15t198 45t133.5 75.5t48 106.5t-47.5 104t-132.5 69.5t-198 38.5t-244 12
q-132 0 -246 -12t-199 -38.5t-133 -69.5t-48 -104t48 -106.5t134 -75.5t199.5 -45t244.5 -15zM1244 303q0 -44 -39.5 -76.5t-130 -49.5t-243.5 -17q-229 0 -340 37t-111 125q0 59 49 95t149 52.5t253 16.5t243 -17t129.5 -49t39.5 -77h-172q-13 20 -67 31.5t-173 11.5
q-142 0 -205 -14t-63 -50q0 -35 62.5 -48.5t205.5 -13.5q119 0 173.5 12t67.5 31h172z" />
    <glyph glyph-name="ordfeminine" unicode="&#xaa;" horiz-adv-x="1003" 
d="M368 276q-98 0 -173 26.5t-117.5 75t-42.5 112.5q0 69 42.5 117t117.5 73t173 25q83 0 150.5 -18t117 -48t76 -67.5t26.5 -77.5q0 -42 -26.5 -81.5t-76 -70t-117 -48.5t-150.5 -18zM438 425q53 0 103 3.5t90 11t63.5 20t23.5 30.5q0 19 -23.5 31.5t-63.5 20t-90 10.5
t-103 3q-73 0 -113.5 -15t-40.5 -50q0 -34 40.5 -49.5t113.5 -15.5zM718 690h240v-400h-226l-3.5 22.5t-7 63t-3.5 93.5v221z" />
    <glyph glyph-name="guillemotleft" unicode="&#xab;" horiz-adv-x="774" 
d="M330 570l109 -101l-183 -189l185 -192l-111 -99l-270 290zM692 423l-127 -139l129 -140l-110 -99l-220 239l220 239z" />
    <glyph glyph-name="logicalnot" unicode="&#xac;" horiz-adv-x="1005" 
d="M85 440h820v-280h-190v130h-630v150z" />
    <glyph glyph-name="uni00AD" unicode="&#xad;" horiz-adv-x="600" 
d="M80 347h430v-150h-430v150z" />
    <glyph glyph-name="registered" unicode="&#xae;" horiz-adv-x="1628" 
d="M816 39q-234 0 -403.5 41t-261 118t-91.5 183q0 107 90.5 179t260 108.5t405.5 36.5q235 0 403 -36.5t258.5 -108.5t90.5 -179q0 -106 -91 -183t-259.5 -118t-401.5 -41zM816 139q130 0 242.5 13.5t198 42.5t133.5 75t48 111t-47.5 108t-132.5 68.5t-198 36.5t-244 11
q-132 0 -246 -11t-199 -36.5t-133 -68.5t-48 -108t48 -111t134 -75t199.5 -42.5t244.5 -13.5zM525 211v334h467q87 0 134.5 -26t47.5 -93q0 -49 -29 -72.5t-106 -23.5q53 -3 79.5 -9.5t35 -17.5t8.5 -28v-64h-134v47q0 17 -10.5 25.5t-40 11.5t-87.5 3h-230v-87h-135z
M659 383h342q17 0 27.5 6t10.5 23t-10.5 22t-27.5 5h-342v-56z" />
    <glyph glyph-name="macron" unicode="&#xaf;" horiz-adv-x="654" 
d="M100 603v99h454v-99h-454z" />
    <glyph glyph-name="degree" unicode="&#xb0;" horiz-adv-x="665" 
d="M333 297q-91 0 -157 19t-101 58t-35 99t35 99t101 58.5t157 19.5t156.5 -19.5t100.5 -58.5t35 -99t-35 -99t-100.5 -58t-156.5 -19zM333 377q94 0 134.5 25t40.5 71q0 43 -40.5 67.5t-134.5 24.5t-134.5 -24.5t-40.5 -67.5q0 -46 40.5 -71t134.5 -25z" />
    <glyph glyph-name="plusminus" unicode="&#xb1;" horiz-adv-x="780" 
d="M50 225v150h680v-150h-680zM50 -10v65h680v-65h-680zM295 110v380h190v-380h-190z" />
    <glyph glyph-name="uni00B2" unicode="&#xb2;" horiz-adv-x="333" 
d="M143 461l137 6v-67h-221v63q48 36 82 57.5t51.5 38t17.5 38.5q0 19 -12 31t-35 12q-24 0 -37.5 -17t-6.5 -41h-66q-8 35 5.5 64t42.5 46.5t67 17.5q56 0 85.5 -30.5t29.5 -72.5q0 -51 -35.5 -82.5t-104.5 -63.5z" />
    <glyph glyph-name="uni00B3" unicode="&#xb3;" horiz-adv-x="328" 
d="M208 549q70 -15 70 -76q0 -34 -26.5 -62.5t-85.5 -28.5q-64 0 -91.5 34.5t-24.5 77.5h66q-1 -13 8.5 -27.5t41.5 -14.5q23 0 33 11t10 27q0 34 -48 34h-55v49h55q24 0 34 10t10 26q0 33 -41 33q-28 0 -38.5 -12t-9.5 -25h-61q-7 42 22 73.5t89 31.5q53 0 80.5 -25.5
t27.5 -64.5q0 -25 -15.5 -44t-50.5 -27z" />
    <glyph glyph-name="acute" unicode="&#xb4;" horiz-adv-x="692" 
d="M100 602l202 150h320l-281 -150h-241z" />
    <glyph glyph-name="uni00B5" unicode="&#xb5;" horiz-adv-x="1063" 
d="M1043 0q-123 0 -195.5 19.5t-103.5 57.5t-31 93v320h240v-240q0 -26 11 -39t31 -17t48 -4v-190zM723 253l2 -48q-3 -21 -13 -49t-29 -58t-48.5 -55.5t-72 -41.5t-99.5 -16q-87 0 -137 36t-68 113l27 39v-373h-240v690h240v-187q0 -65 25.5 -99t68.5 -46.5t96 -12.5
q59 0 108 17.5t85 42.5t55 48z" />
    <glyph glyph-name="paragraph" unicode="&#xb6;" horiz-adv-x="1103" 
d="M1033 640v-640h-240v166h-119v-166h-240v166h-61q-109 0 -185.5 23t-117 74.5t-40.5 136.5t38 138t112 77.5t183 24.5h670zM360 341h433v99h-433q-30 0 -55 -9t-25 -40q0 -32 24.5 -41t55.5 -9z" />
    <glyph glyph-name="periodcentered" unicode="&#xb7;" horiz-adv-x="354" 
d="M304 348v-151h-254v151h254z" />
    <glyph glyph-name="cedilla" unicode="&#xb8;" horiz-adv-x="694" 
d="M477 19v-170l-100 123q47 -7 91.5 -13.5t79.5 -17.5t55.5 -29.5t20.5 -49.5q0 -55 -68.5 -88.5t-195.5 -33.5q-82 0 -138.5 21.5t-86.5 56.5t-35 73h174l10.5 -10.5t24 -14t45.5 -6.5t43.5 7.5t14.5 20.5q0 8 -6 16.5t-28 16.5t-71 14v84h170z" />
    <glyph glyph-name="uni00B9" unicode="&#xb9;" horiz-adv-x="247" 
d="M40 636v64h147v-300h-68v236h-79z" />
    <glyph glyph-name="ordmasculine" unicode="&#xba;" horiz-adv-x="1016" 
d="M510 275q-139 0 -236 21t-148 68t-51 125t51 125.5t148 69t236 21.5q138 0 234.5 -21.5t146.5 -69t50 -125.5t-50 -125t-146.5 -68t-234.5 -21zM510 417q76 0 117.5 9.5t57.5 25.5t16 37t-15.5 37.5t-57 26.5t-118.5 10t-119.5 -9.5t-59 -26.5t-16.5 -38t16 -37
t58.5 -25.5t120.5 -9.5z" />
    <glyph glyph-name="guillemotright" unicode="&#xbb;" horiz-adv-x="774" 
d="M335 469l108 101l271 -291l-271 -290l-110 99l185 192zM81 423l109 100l219 -239l-219 -239l-110 99l129 140z" />
    <glyph glyph-name="onequarter" unicode="&#xbc;" horiz-adv-x="1396" 
d="M25 240v135h204v132h-204v135h404v-267h170v-135h-574zM909 700l54 -30l-382 -690l-52 32zM1077 0v63h-304v132l339 206h175v-228h79v-110h-79v-63h-210zM957 160h130v104z" />
    <glyph glyph-name="onehalf" unicode="&#xbd;" horiz-adv-x="1463" 
d="M25 240v135h204v132h-204v135h404v-267h170v-135h-574zM909 700l54 -30l-382 -690l-52 32zM1412 0h-570v129q107 15 177.5 26.5t112 21t61.5 18.5t26 17.5t6 18.5q0 34 -82 34q-76 0 -109.5 -12.5t-41.5 -28.5h-174q0 50 32 94t102.5 71t184.5 27q82 0 146.5 -12.5
t102 -42t37.5 -81.5q0 -45 -26 -71t-77 -40t-126 -24l-136 -16l354 10v-139z" />
    <glyph glyph-name="threequarters" unicode="&#xbe;" horiz-adv-x="1420" 
d="M459 431q56 -1 98.5 -6t66.5 -22.5t24 -56.5q0 -67 -79.5 -96.5t-225.5 -29.5q-99 0 -168 17.5t-104.5 54t-35.5 94.5h143q2 -19 43 -26t119 -7q68 0 97 5t29 25t-32 24t-94 4h-136v40h136q68 0 93 7.5t25 23.5q0 14 -24.5 20.5t-93.5 6.5q-76 0 -117.5 -8.5t-43.5 -19.5
h-142q0 63 41 101.5t109 56t149 17.5q152 0 226.5 -31.5t74.5 -92.5q0 -48 -49.5 -72t-128.5 -29zM933 700l54 -30l-382 -690l-52 32zM1101 0v63h-304v132l339 206h175v-228h79v-110h-79v-63h-210zM981 160h130v104z" />
    <glyph glyph-name="questiondown" unicode="&#xbf;" horiz-adv-x="864" 
d="M326 450v151h254v-151h-254zM588 147h235q3 -21 -5 -52.5t-31.5 -65.5t-67.5 -64.5t-112 -49.5t-166 -19q-114 0 -191 20t-123.5 56.5t-66.5 85.5t-20 107q0 79 42 131t112 78t154 26v0h230v-150h-137q-83 0 -117 -18.5t-34 -56.5q0 -46 37.5 -62.5t113.5 -16.5
q59 0 89 8.5t42 20.5t16 22z" />
    <glyph glyph-name="Agrave" unicode="&#xc0;" horiz-adv-x="1160" 
d="M234 97v150h684v-150h-684zM10 0l429 640h278l433 -640h-275l-371 573h149l-368 -573h-275zM478 692l-281 150h320l202 -150h-241z" />
    <glyph glyph-name="Aacute" unicode="&#xc1;" horiz-adv-x="1160" 
d="M234 97v150h684v-150h-684zM10 0l429 640h278l433 -640h-275l-371 573h149l-368 -573h-275zM441 692l202 150h320l-281 -150h-241z" />
    <glyph glyph-name="Acircumflex" unicode="&#xc2;" horiz-adv-x="1160" 
d="M234 97v150h684v-150h-684zM10 0l429 640h278l433 -640h-275l-371 573h149l-368 -573h-275zM718 842l222 -150h-242l-214 123l188 -1l-215 -122h-241l222 150h280z" />
    <glyph glyph-name="Atilde" unicode="&#xc3;" horiz-adv-x="1160" 
d="M234 97v150h684v-150h-684zM10 0l429 640h278l433 -640h-275l-371 573h149l-368 -573h-275zM712 685q-39 0 -71.5 8.5t-61.5 19t-58 19t-61 8.5q-24 0 -41 -6t-30.5 -17t-28.5 -27h-150q19 38 50.5 72t77.5 56t107 22q40 0 71.5 -8.5t59.5 -19t55.5 -19t59.5 -8.5
q28 0 47 7t33 18.5t26 24.5h150q-18 -37 -50 -71.5t-77.5 -56.5t-107.5 -22z" />
    <glyph glyph-name="Adieresis" unicode="&#xc4;" horiz-adv-x="1160" 
d="M234 97v150h684v-150h-684zM10 0l429 640h278l433 -640h-275l-371 573h149l-368 -573h-275zM296 663v-151h-254v151h254zM1123 663v-151h-254v151h254z" />
    <glyph glyph-name="Aring" unicode="&#xc5;" horiz-adv-x="1160" 
d="M234 97v150h684v-150h-684zM10 0l429 640h278l433 -640h-275l-371 573h149l-368 -573h-275zM578 667q-86 0 -127.5 30.5t-41.5 81.5q0 50 41.5 80.5t127.5 30.5q85 0 127 -30.5t42 -80.5q0 -51 -42 -81.5t-127 -30.5zM578 732q40 0 56.5 10t16.5 37q0 26 -16.5 36
t-56.5 10q-41 0 -57.5 -10t-16.5 -36q0 -27 16.5 -37t57.5 -10z" />
    <glyph glyph-name="AE" unicode="&#xc6;" horiz-adv-x="1681" 
d="M861 270v-80h760v-190h-1010v598l60 -18l-389 -580h-272l444 640h1165v-190h-758v-80h620v-100h-620zM234 137v150h594v-150h-594z" />
    <glyph glyph-name="Ccedilla" unicode="&#xc7;" horiz-adv-x="1316" 
d="M565 -109l10.5 -10.5t24 -14t45.5 -6.5t43.5 7.5t14.5 20.5q0 8 -6 16.5t-28 16.5t-71 14l165 23q43 -7 77 -17.5t54.5 -29t20.5 -49.5q0 -55 -68.5 -88.5t-195.5 -33.5q-82 0 -138.5 21.5t-86.5 56.5t-35 73h174zM598 19h170v-86l-170 2v84zM1255 267q-5 -95 -69 -159
t-188.5 -96t-314.5 -32q-145 0 -260 15.5t-196 53t-124 102.5t-43 164t43 165.5t124 106t196 56.5t260 17q190 0 315 -34.5t189 -101.5t69 -163h-260q-12 32 -44 56.5t-96 38.5t-173 14q-128 0 -208 -15.5t-117 -49.5t-37 -90q0 -51 37 -83t117 -47t208 -15q109 0 172.5 13
t95.5 35.5t44 48.5h260z" />
    <glyph glyph-name="Egrave" unicode="&#xc8;" horiz-adv-x="1140" 
d="M320 270v-80h760v-190h-1010v640h1008v-190h-758v-80h620v-100h-620zM495 692l-281 150h320l202 -150h-241z" />
    <glyph glyph-name="Eacute" unicode="&#xc9;" horiz-adv-x="1140" 
d="M320 270v-80h760v-190h-1010v640h1008v-190h-758v-80h620v-100h-620zM458 692l202 150h320l-281 -150h-241z" />
    <glyph glyph-name="Ecircumflex" unicode="&#xca;" horiz-adv-x="1140" 
d="M320 270v-80h760v-190h-1010v640h1008v-190h-758v-80h620v-100h-620zM735 842l222 -150h-242l-214 123l188 -1l-215 -122h-241l222 150h280z" />
    <glyph glyph-name="Edieresis" unicode="&#xcb;" horiz-adv-x="1140" 
d="M320 270v-80h760v-190h-1010v640h1008v-190h-758v-80h620v-100h-620zM570 843v-151h-254v151h254zM874 843v-151h-254v151h254z" />
    <glyph glyph-name="Igrave" unicode="&#xcc;" horiz-adv-x="420" 
d="M85 640h250v-640h-250v640zM110 692l-281 150h320l202 -150h-241z" />
    <glyph glyph-name="Iacute" unicode="&#xcd;" horiz-adv-x="420" 
d="M85 640h250v-640h-250v640zM73 692l202 150h320l-281 -150h-241z" />
    <glyph glyph-name="Icircumflex" unicode="&#xce;" horiz-adv-x="420" 
d="M85 640h250v-640h-250v640zM350 842l222 -150h-242l-214 123l188 -1l-215 -122h-241l222 150h280z" />
    <glyph glyph-name="Idieresis" unicode="&#xcf;" horiz-adv-x="420" 
d="M85 640h250v-640h-250v640zM185 843v-151h-254v151h254zM489 843v-151h-254v151h254z" />
    <glyph glyph-name="Eth" unicode="&#xd0;" horiz-adv-x="1302" 
d="M790 640q135 0 223 -26t138 -71t70.5 -102.5t20.5 -120.5t-23 -120.5t-75.5 -102.5t-139 -71t-214.5 -26h-720v640h720zM320 200h460q56 0 95 7.5t62.5 22.5t34 37.5t10.5 52.5t-10.5 52.5t-34 37.5t-62.5 22.5t-95 7.5h-460v-240zM-16 362h490v-65h-490v65z" />
    <glyph glyph-name="Ntilde" unicode="&#xd1;" horiz-adv-x="1300" 
d="M1073 196l-93 -53v497h250v-640h-250l-753 436l93 54v-490h-250v640h250zM783 685q-39 0 -71.5 8.5t-61.5 19t-58 19t-61 8.5q-24 0 -41 -6t-30.5 -17t-28.5 -27h-150q19 38 50.5 72t77.5 56t107 22q40 0 71.5 -8.5t59.5 -19t55.5 -19t59.5 -8.5q28 0 47 7t33 18.5
t26 24.5h150q-18 -37 -50 -71.5t-77.5 -56.5t-107.5 -22z" />
    <glyph glyph-name="Ograve" unicode="&#xd2;" horiz-adv-x="1330" 
d="M665 -20q-218 0 -351 38.5t-193.5 114t-60.5 187.5t60.5 187.5t193.5 114t351 38.5t351 -38.5t193.5 -114t60.5 -187.5t-60.5 -187.5t-193.5 -114t-351 -38.5zM665 170q103 0 178 12.5t116 45t41 92.5t-41 92.5t-116 45t-178 12.5t-180.5 -12.5t-121 -45t-43.5 -92.5
t43.5 -92.5t121 -45t180.5 -12.5zM565 702l-281 150h320l202 -150h-241z" />
    <glyph glyph-name="Oacute" unicode="&#xd3;" horiz-adv-x="1330" 
d="M665 -20q-218 0 -351 38.5t-193.5 114t-60.5 187.5t60.5 187.5t193.5 114t351 38.5t351 -38.5t193.5 -114t60.5 -187.5t-60.5 -187.5t-193.5 -114t-351 -38.5zM665 170q103 0 178 12.5t116 45t41 92.5t-41 92.5t-116 45t-178 12.5t-180.5 -12.5t-121 -45t-43.5 -92.5
t43.5 -92.5t121 -45t180.5 -12.5zM528 702l202 150h320l-281 -150h-241z" />
    <glyph glyph-name="Ocircumflex" unicode="&#xd4;" horiz-adv-x="1330" 
d="M665 -20q-218 0 -351 38.5t-193.5 114t-60.5 187.5t60.5 187.5t193.5 114t351 38.5t351 -38.5t193.5 -114t60.5 -187.5t-60.5 -187.5t-193.5 -114t-351 -38.5zM665 170q103 0 178 12.5t116 45t41 92.5t-41 92.5t-116 45t-178 12.5t-180.5 -12.5t-121 -45t-43.5 -92.5
t43.5 -92.5t121 -45t180.5 -12.5zM805 852l222 -150h-242l-214 123l188 -1l-215 -122h-241l222 150h280z" />
    <glyph glyph-name="Otilde" unicode="&#xd5;" horiz-adv-x="1330" 
d="M665 -20q-218 0 -351 38.5t-193.5 114t-60.5 187.5t60.5 187.5t193.5 114t351 38.5t351 -38.5t193.5 -114t60.5 -187.5t-60.5 -187.5t-193.5 -114t-351 -38.5zM665 170q103 0 178 12.5t116 45t41 92.5t-41 92.5t-116 45t-178 12.5t-180.5 -12.5t-121 -45t-43.5 -92.5
t43.5 -92.5t121 -45t180.5 -12.5zM799 695q-39 0 -71.5 8.5t-61.5 19t-58 19t-61 8.5q-24 0 -41 -6t-30.5 -17t-28.5 -27h-150q19 38 50.5 72t77.5 56t107 22q40 0 71.5 -8.5t59.5 -19t55.5 -19t59.5 -8.5q28 0 47 7t33 18.5t26 24.5h150q-18 -37 -50 -71.5t-77.5 -56.5
t-107.5 -22z" />
    <glyph glyph-name="Odieresis" unicode="&#xd6;" horiz-adv-x="1330" 
d="M665 -20q-218 0 -351 38.5t-193.5 114t-60.5 187.5t60.5 187.5t193.5 114t351 38.5t351 -38.5t193.5 -114t60.5 -187.5t-60.5 -187.5t-193.5 -114t-351 -38.5zM665 170q103 0 178 12.5t116 45t41 92.5t-41 92.5t-116 45t-178 12.5t-180.5 -12.5t-121 -45t-43.5 -92.5
t43.5 -92.5t121 -45t180.5 -12.5zM659 853v-151h-254v151h254zM964 853v-151h-254v151h254z" />
    <glyph glyph-name="multiply" unicode="&#xd7;" horiz-adv-x="711" 
d="M185 -26l446 446l-106 106l-446 -446zM525 -26l106 106l-446 446l-106 -106z" />
    <glyph glyph-name="Oslash" unicode="&#xd8;" horiz-adv-x="1330" 
d="M665 -20q-218 0 -351 38.5t-193.5 114t-60.5 187.5t60.5 187.5t193.5 114t351 38.5t351 -38.5t193.5 -114t60.5 -187.5t-60.5 -187.5t-193.5 -114t-351 -38.5zM665 170q103 0 178 12.5t116 45t41 92.5t-41 92.5t-116 45t-178 12.5t-180.5 -12.5t-121 -45t-43.5 -92.5
t43.5 -92.5t121 -45t180.5 -12.5zM855 727l54 -30l-435 -785l-52 32z" />
    <glyph glyph-name="Ugrave" unicode="&#xd9;" horiz-adv-x="1289" 
d="M969 365v275h250v-320q0 -85 -31.5 -144.5t-87.5 -98t-129 -59.5t-156.5 -29.5t-169.5 -8.5q-91 0 -176 8.5t-157.5 29.5t-126.5 59.5t-84.5 98t-30.5 144.5v320h250v-275q0 -80 39 -122t111.5 -57.5t174.5 -15.5q99 0 172 15.5t112.5 57.5t39.5 122zM545 692l-281 150
h320l202 -150h-241z" />
    <glyph glyph-name="Uacute" unicode="&#xda;" horiz-adv-x="1289" 
d="M969 365v275h250v-320q0 -85 -31.5 -144.5t-87.5 -98t-129 -59.5t-156.5 -29.5t-169.5 -8.5q-91 0 -176 8.5t-157.5 29.5t-126.5 59.5t-84.5 98t-30.5 144.5v320h250v-275q0 -80 39 -122t111.5 -57.5t174.5 -15.5q99 0 172 15.5t112.5 57.5t39.5 122zM508 692l202 150
h320l-281 -150h-241z" />
    <glyph glyph-name="Ucircumflex" unicode="&#xdb;" horiz-adv-x="1289" 
d="M969 365v275h250v-320q0 -85 -31.5 -144.5t-87.5 -98t-129 -59.5t-156.5 -29.5t-169.5 -8.5q-91 0 -176 8.5t-157.5 29.5t-126.5 59.5t-84.5 98t-30.5 144.5v320h250v-275q0 -80 39 -122t111.5 -57.5t174.5 -15.5q99 0 172 15.5t112.5 57.5t39.5 122zM785 842l222 -150
h-242l-214 123l188 -1l-215 -122h-241l222 150h280z" />
    <glyph glyph-name="Udieresis" unicode="&#xdc;" horiz-adv-x="1289" 
d="M969 365v275h250v-320q0 -85 -31.5 -144.5t-87.5 -98t-129 -59.5t-156.5 -29.5t-169.5 -8.5q-91 0 -176 8.5t-157.5 29.5t-126.5 59.5t-84.5 98t-30.5 144.5v320h250v-275q0 -80 39 -122t111.5 -57.5t174.5 -15.5q99 0 172 15.5t112.5 57.5t39.5 122zM619 641v-151h-254
v151h254zM923 641v-151h-254v151h254z" />
    <glyph glyph-name="Yacute" unicode="&#xdd;" horiz-adv-x="1070" 
d="M1065 640l-405 -477v-163h-250v163l-405 477h295l329 -415h-185l326 415h295zM398 692l202 150h320l-281 -150h-241z" />
    <glyph glyph-name="Thorn" unicode="&#xde;" horiz-adv-x="1097" 
d="M682 550q75 0 140.5 -7.5t114.5 -30.5t77 -69t28 -123t-28 -123t-77 -69t-114.5 -30.5t-140.5 -7.5h-400v180h439q30 0 50.5 9.5t20.5 40.5q0 32 -20.5 41t-50.5 9h-439v180h400zM68 640h250v-640h-250v640z" />
    <glyph glyph-name="germandbls" unicode="&#xdf;" horiz-adv-x="1138" 
d="M509 -200v154q121 0 195 1.5t113 7.5t52.5 19t13.5 35q0 23 -13 35.5t-49.5 18.5t-104 7.5t-177.5 1.5h-30v144l304 128l8 -42h-542v150h773v-120l-353 -189l-1 54q83 -1 159.5 -8t138 -25.5t97 -53.5t35.5 -92q0 -78 -47.5 -123.5t-132.5 -67.5t-197.5 -28.5
t-241.5 -6.5zM55 0v510q0 60 22.5 100t75 60t142.5 20h264v-160h-194q-39 0 -54.5 -17t-15.5 -54v-459h-240z" />
    <glyph glyph-name="agrave" unicode="&#xe0;" horiz-adv-x="1063" 
d="M408 -14q-108 0 -192 30.5t-132.5 88.5t-48.5 140q0 86 48.5 144t132.5 87t192 29q120 0 207.5 -32.5t135 -91t47.5 -136.5q0 -58 -27 -105.5t-78 -82t-123 -53t-162 -18.5zM498 138q76 0 139.5 9.5t102 32.5t38.5 65q0 43 -38.5 66t-102 32t-139.5 9q-102 0 -158 -26.5
t-56 -80.5q0 -35 25 -59t73 -36t116 -12zM778 490h240v-490h-226l-3.5 23t-7 66t-3.5 101v300zM414 602l-281 150h320l202 -150h-241z" />
    <glyph glyph-name="aacute" unicode="&#xe1;" horiz-adv-x="1063" 
d="M408 -14q-108 0 -192 30.5t-132.5 88.5t-48.5 140q0 86 48.5 144t132.5 87t192 29q120 0 207.5 -32.5t135 -91t47.5 -136.5q0 -58 -27 -105.5t-78 -82t-123 -53t-162 -18.5zM498 138q76 0 139.5 9.5t102 32.5t38.5 65q0 43 -38.5 66t-102 32t-139.5 9q-102 0 -158 -26.5
t-56 -80.5q0 -35 25 -59t73 -36t116 -12zM778 490h240v-490h-226l-3.5 23t-7 66t-3.5 101v300zM377 602l202 150h320l-281 -150h-241z" />
    <glyph glyph-name="acircumflex" unicode="&#xe2;" horiz-adv-x="1063" 
d="M408 -14q-108 0 -192 30.5t-132.5 88.5t-48.5 140q0 86 48.5 144t132.5 87t192 29q120 0 207.5 -32.5t135 -91t47.5 -136.5q0 -58 -27 -105.5t-78 -82t-123 -53t-162 -18.5zM498 138q76 0 139.5 9.5t102 32.5t38.5 65q0 43 -38.5 66t-102 32t-139.5 9q-102 0 -158 -26.5
t-56 -80.5q0 -35 25 -59t73 -36t116 -12zM778 490h240v-490h-226l-3.5 23t-7 66t-3.5 101v300zM654 752l222 -150h-242l-214 123l188 -1l-215 -122h-241l222 150h280z" />
    <glyph glyph-name="atilde" unicode="&#xe3;" horiz-adv-x="1063" 
d="M408 -14q-108 0 -192 30.5t-132.5 88.5t-48.5 140q0 86 48.5 144t132.5 87t192 29q120 0 207.5 -32.5t135 -91t47.5 -136.5q0 -58 -27 -105.5t-78 -82t-123 -53t-162 -18.5zM498 138q76 0 139.5 9.5t102 32.5t38.5 65q0 43 -38.5 66t-102 32t-139.5 9q-102 0 -158 -26.5
t-56 -80.5q0 -35 25 -59t73 -36t116 -12zM778 490h240v-490h-226l-3.5 23t-7 66t-3.5 101v300zM648 595q-39 0 -71.5 8.5t-61.5 19t-58 19t-61 8.5q-24 0 -41 -6t-30.5 -17t-28.5 -27h-150q19 38 50.5 72t77.5 56t107 22q40 0 71.5 -8.5t59.5 -19t55.5 -19t59.5 -8.5
q28 0 47 7t33 18.5t26 24.5h150q-18 -37 -50 -71.5t-77.5 -56.5t-107.5 -22z" />
    <glyph glyph-name="adieresis" unicode="&#xe4;" horiz-adv-x="1063" 
d="M408 -14q-108 0 -192 30.5t-132.5 88.5t-48.5 140q0 86 48.5 144t132.5 87t192 29q120 0 207.5 -32.5t135 -91t47.5 -136.5q0 -58 -27 -105.5t-78 -82t-123 -53t-162 -18.5zM498 138q76 0 139.5 9.5t102 32.5t38.5 65q0 43 -38.5 66t-102 32t-139.5 9q-102 0 -158 -26.5
t-56 -80.5q0 -35 25 -59t73 -36t116 -12zM778 490h240v-490h-226l-3.5 23t-7 66t-3.5 101v300zM489 753v-151h-254v151h254zM793 753v-151h-254v151h254z" />
    <glyph glyph-name="aring" unicode="&#xe5;" horiz-adv-x="1063" 
d="M408 -14q-108 0 -192 30.5t-132.5 88.5t-48.5 140q0 86 48.5 144t132.5 87t192 29q120 0 207.5 -32.5t135 -91t47.5 -136.5q0 -58 -27 -105.5t-78 -82t-123 -53t-162 -18.5zM498 138q76 0 139.5 9.5t102 32.5t38.5 65q0 43 -38.5 66t-102 32t-139.5 9q-102 0 -158 -26.5
t-56 -80.5q0 -35 25 -59t73 -36t116 -12zM778 490h240v-490h-226l-3.5 23t-7 66t-3.5 101v300zM514 577q-86 0 -127.5 30.5t-41.5 81.5q0 50 41.5 80.5t127.5 30.5q85 0 127 -30.5t42 -80.5q0 -51 -42 -81.5t-127 -30.5zM514 642q40 0 56.5 10t16.5 37q0 26 -16.5 36
t-56.5 10q-41 0 -57.5 -10t-16.5 -36q0 -27 16.5 -37t57.5 -10z" />
    <glyph glyph-name="ae" unicode="&#xe6;" horiz-adv-x="1915" 
d="M408 -14q-108 0 -192 30.5t-132.5 88.5t-48.5 140q0 86 48.5 144t132.5 87t192 29q120 0 207.5 -32.5t135 -91t47.5 -136.5q0 -58 -27 -105.5t-78 -82t-123 -53t-162 -18.5zM498 138q76 0 139.5 9.5t102 32.5t38.5 65q0 43 -38.5 66t-102 32t-139.5 9q-102 0 -158 -26.5
t-56 -80.5q0 -35 25 -59t73 -36t116 -12zM778 490h240v-490h-226q-4 23 -9 74.5t-5 115.5v300zM1642 174h236q-9 -58 -57.5 -101t-141 -66.5t-235.5 -23.5q-151 0 -260.5 24t-168.5 81t-59 154q0 96 57.5 153.5t166.5 82.5t264 25q152 0 249 -27t143 -87.5t44 -163.5h-680
q5 -26 28.5 -48t73 -35.5t132.5 -13.5q86 0 141.5 12t66.5 34zM1434 358q-106 0 -161.5 -23t-65.5 -46h440q-7 26 -56 47.5t-157 21.5z" />
    <glyph glyph-name="ccedilla" unicode="&#xe7;" horiz-adv-x="994" 
d="M400 -119l10.5 -10.5t24 -14t45.5 -6.5t43.5 7.5t14.5 20.5q0 8 -6 16.5t-28 16.5t-71 14l165 23q43 -7 77 -17.5t54.5 -29t20.5 -49.5q0 -55 -68.5 -88.5t-195.5 -33.5q-82 0 -138.5 21.5t-86.5 56.5t-35 73h174zM433 9h170v-104l-170 20v84zM959 213q0 -72 -45 -123
t-142 -78t-252 -27t-263.5 25t-165 82t-56.5 152t56.5 152.5t165 83t263.5 25.5t251 -27t141 -78t46 -122h-220q-16 39 -72 60.5t-146 21.5q-73 0 -127 -10.5t-83.5 -35.5t-29.5 -70q0 -44 29 -69t83 -35t128 -10q90 0 146.5 21.5t72.5 61.5h220z" />
    <glyph glyph-name="egrave" unicode="&#xe8;" horiz-adv-x="994" 
d="M721 176h236q-9 -58 -57.5 -101t-141 -66.5t-235.5 -23.5q-151 0 -260.5 24t-168.5 81t-59 154q0 96 57.5 153.5t166.5 82.5t264 25q152 0 249 -27t143 -87.5t44 -163.5h-680q5 -26 28.5 -48t73 -35.5t132.5 -13.5q86 0 141.5 12t66.5 34zM513 360q-106 0 -161.5 -23
t-65.5 -46h440q-7 26 -56 47.5t-157 21.5zM413 602l-281 150h320l202 -150h-241z" />
    <glyph glyph-name="eacute" unicode="&#xe9;" horiz-adv-x="994" 
d="M721 176h236q-9 -58 -57.5 -101t-141 -66.5t-235.5 -23.5q-151 0 -260.5 24t-168.5 81t-59 154q0 96 57.5 153.5t166.5 82.5t264 25q152 0 249 -27t143 -87.5t44 -163.5h-680q5 -26 28.5 -48t73 -35.5t132.5 -13.5q86 0 141.5 12t66.5 34zM513 360q-106 0 -161.5 -23
t-65.5 -46h440q-7 26 -56 47.5t-157 21.5zM376 602l202 150h320l-281 -150h-241z" />
    <glyph glyph-name="ecircumflex" unicode="&#xea;" horiz-adv-x="994" 
d="M721 176h236q-9 -58 -57.5 -101t-141 -66.5t-235.5 -23.5q-151 0 -260.5 24t-168.5 81t-59 154q0 96 57.5 153.5t166.5 82.5t264 25q152 0 249 -27t143 -87.5t44 -163.5h-680q5 -26 28.5 -48t73 -35.5t132.5 -13.5q86 0 141.5 12t66.5 34zM513 360q-106 0 -161.5 -23
t-65.5 -46h440q-7 26 -56 47.5t-157 21.5zM653 752l222 -150h-242l-214 123l188 -1l-215 -122h-241l222 150h280z" />
    <glyph glyph-name="edieresis" unicode="&#xeb;" horiz-adv-x="994" 
d="M721 176h236q-9 -58 -57.5 -101t-141 -66.5t-235.5 -23.5q-151 0 -260.5 24t-168.5 81t-59 154q0 96 57.5 153.5t166.5 82.5t264 25q152 0 249 -27t143 -87.5t44 -163.5h-680q5 -26 28.5 -48t73 -35.5t132.5 -13.5q86 0 141.5 12t66.5 34zM513 360q-106 0 -161.5 -23
t-65.5 -46h440q-7 26 -56 47.5t-157 21.5zM488 753v-151h-254v151h254zM792 753v-151h-254v151h254z" />
    <glyph glyph-name="igrave" unicode="&#xec;" horiz-adv-x="350" 
d="M55 490h240v-490h-240v490zM75 597l-281 150h320l202 -150h-241z" />
    <glyph glyph-name="iacute" unicode="&#xed;" horiz-adv-x="350" 
d="M55 490h240v-490h-240v490zM38 597l202 150h320l-281 -150h-241z" />
    <glyph glyph-name="icircumflex" unicode="&#xee;" horiz-adv-x="350" 
d="M55 490h240v-490h-240v490zM315 747l222 -150h-242l-214 123l188 -1l-215 -122h-241l222 150h280z" />
    <glyph glyph-name="idieresis" unicode="&#xef;" horiz-adv-x="200" 
d="M55 490h240v-490h-240v490zM221 753v-151h-254v151h254zM354 753v-151h-254v151h254z" />
    <glyph glyph-name="eth" unicode="&#xf0;" horiz-adv-x="1008" 
d="M518 138q39 0 84.5 3.5t85.5 13.5t65.5 30t25.5 54q0 27 -27.5 44t-70 27t-89 13.5t-84.5 3.5q-102 0 -163 -21t-61 -72q0 -56 62.5 -76t171.5 -20zM909 705l79 -82l-203 -173l-77 81zM256 552v153q146 0 256 -21t189 -56.5t131 -80t82 -92t42.5 -92t12.5 -80.5
q0 -72 -26.5 -123.5t-73.5 -85.5t-107 -53.5t-128 -27.5t-136 -8q-148 0 -251.5 31t-157.5 89t-54 140q0 65 27.5 109t76 70.5t112.5 38.5t137 12q100 0 183 -19.5t140 -57t78 -91.5l-15 -5q-9 60 -40 106.5t-91 78.5t-155 48.5t-232 16.5z" />
    <glyph glyph-name="ntilde" unicode="&#xf1;" horiz-adv-x="998" 
d="M45 490h240v-490h-240v490zM645 505q59 0 114 -12.5t98.5 -42.5t69.5 -82t26 -131v-237h-240v207q0 75 -39 106.5t-141 31.5q-54 0 -104.5 -12t-90.5 -28.5t-63 -32.5l-2 38q4 18 27.5 50.5t68.5 65.5t113.5 56t162.5 23zM683 595q-39 0 -71.5 8.5t-61.5 19t-58 19
t-61 8.5q-24 0 -41 -6t-30.5 -17t-28.5 -27h-150q19 38 50.5 72t77.5 56t107 22q40 0 71.5 -8.5t59.5 -19t55.5 -19t59.5 -8.5q28 0 47 7t33 18.5t26 24.5h150q-18 -37 -50 -71.5t-77.5 -56.5t-107.5 -22z" />
    <glyph glyph-name="ograve" unicode="&#xf2;" horiz-adv-x="1016" 
d="M510 -15q-159 0 -264.5 26t-158 83t-52.5 150t52.5 150.5t158 84t264.5 26.5q158 0 262.5 -26.5t156.5 -84t52 -150.5t-52 -150t-156.5 -83t-262.5 -26zM510 130q74 0 124 12.5t76 38t26 63.5t-25.5 64t-75.5 39t-125 13q-74 0 -125.5 -13t-78 -38.5t-26.5 -64.5
q0 -38 26 -63.5t77.5 -38t126.5 -12.5zM410 602l-281 150h320l202 -150h-241z" />
    <glyph glyph-name="oacute" unicode="&#xf3;" horiz-adv-x="1016" 
d="M510 -15q-159 0 -264.5 26t-158 83t-52.5 150t52.5 150.5t158 84t264.5 26.5q158 0 262.5 -26.5t156.5 -84t52 -150.5t-52 -150t-156.5 -83t-262.5 -26zM510 130q74 0 124 12.5t76 38t26 63.5t-25.5 64t-75.5 39t-125 13q-74 0 -125.5 -13t-78 -38.5t-26.5 -64.5
q0 -38 26 -63.5t77.5 -38t126.5 -12.5zM373 602l202 150h320l-281 -150h-241z" />
    <glyph glyph-name="ocircumflex" unicode="&#xf4;" horiz-adv-x="1016" 
d="M510 -15q-159 0 -264.5 26t-158 83t-52.5 150t52.5 150.5t158 84t264.5 26.5q158 0 262.5 -26.5t156.5 -84t52 -150.5t-52 -150t-156.5 -83t-262.5 -26zM510 130q74 0 124 12.5t76 38t26 63.5t-25.5 64t-75.5 39t-125 13q-74 0 -125.5 -13t-78 -38.5t-26.5 -64.5
q0 -38 26 -63.5t77.5 -38t126.5 -12.5zM650 752l222 -150h-242l-214 123l188 -1l-215 -122h-241l222 150h280z" />
    <glyph glyph-name="otilde" unicode="&#xf5;" horiz-adv-x="1016" 
d="M510 -15q-159 0 -264.5 26t-158 83t-52.5 150t52.5 150.5t158 84t264.5 26.5q158 0 262.5 -26.5t156.5 -84t52 -150.5t-52 -150t-156.5 -83t-262.5 -26zM510 130q74 0 124 12.5t76 38t26 63.5t-25.5 64t-75.5 39t-125 13q-74 0 -125.5 -13t-78 -38.5t-26.5 -64.5
q0 -38 26 -63.5t77.5 -38t126.5 -12.5zM644 595q-39 0 -71.5 8.5t-61.5 19t-58 19t-61 8.5q-24 0 -41 -6t-30.5 -17t-28.5 -27h-150q19 38 50.5 72t77.5 56t107 22q40 0 71.5 -8.5t59.5 -19t55.5 -19t59.5 -8.5q28 0 47 7t33 18.5t26 24.5h150q-18 -37 -50 -71.5
t-77.5 -56.5t-107.5 -22z" />
    <glyph glyph-name="odieresis" unicode="&#xf6;" horiz-adv-x="1016" 
d="M510 -15q-159 0 -264.5 26t-158 83t-52.5 150t52.5 150.5t158 84t264.5 26.5q158 0 262.5 -26.5t156.5 -84t52 -150.5t-52 -150t-156.5 -83t-262.5 -26zM510 130q74 0 124 12.5t76 38t26 63.5t-25.5 64t-75.5 39t-125 13q-74 0 -125.5 -13t-78 -38.5t-26.5 -64.5
q0 -38 26 -63.5t77.5 -38t126.5 -12.5zM485 753v-151h-254v151h254zM789 753v-151h-254v151h254z" />
    <glyph glyph-name="divide" unicode="&#xf7;" horiz-adv-x="640" 
d="M50 335h540v-150h-540v150zM447 115v-100h-254v100h254zM447 505v-101h-254v101h254z" />
    <glyph glyph-name="oslash" unicode="&#xf8;" horiz-adv-x="1016" 
d="M669 582l54 -30l-378 -639l-52 32zM510 -15q-159 0 -264.5 26t-158 83t-52.5 150t52.5 150.5t158 84t264.5 26.5q158 0 262.5 -26.5t156.5 -84t52 -150.5t-52 -150t-156.5 -83t-262.5 -26zM510 130q74 0 124 12.5t76 38t26 63.5t-25.5 64t-75.5 39t-125 13
q-74 0 -125.5 -13t-78 -38.5t-26.5 -64.5q0 -38 26 -63.5t77.5 -38t126.5 -12.5z" />
    <glyph glyph-name="ugrave" unicode="&#xf9;" horiz-adv-x="998" 
d="M953 0h-240v490h240v-490zM723 253l2 -48q-3 -21 -19.5 -49t-45.5 -58t-71 -55.5t-96 -41.5t-120 -16t-125 13.5t-105 44.5t-72 83.5t-26 131.5v232h240v-207q0 -55 18.5 -85t58.5 -41.5t103 -11.5q59 0 109.5 17.5t89 42.5t59.5 48zM413 602l-281 150h320l202 -150h-241
z" />
    <glyph glyph-name="uacute" unicode="&#xfa;" horiz-adv-x="998" 
d="M953 0h-240v490h240v-490zM723 253l2 -48q-3 -21 -19.5 -49t-45.5 -58t-71 -55.5t-96 -41.5t-120 -16t-125 13.5t-105 44.5t-72 83.5t-26 131.5v232h240v-207q0 -55 18.5 -85t58.5 -41.5t103 -11.5q59 0 109.5 17.5t89 42.5t59.5 48zM376 602l202 150h320l-281 -150h-241
z" />
    <glyph glyph-name="ucircumflex" unicode="&#xfb;" horiz-adv-x="998" 
d="M953 0h-240v490h240v-490zM723 253l2 -48q-3 -21 -19.5 -49t-45.5 -58t-71 -55.5t-96 -41.5t-120 -16t-125 13.5t-105 44.5t-72 83.5t-26 131.5v232h240v-207q0 -55 18.5 -85t58.5 -41.5t103 -11.5q59 0 109.5 17.5t89 42.5t59.5 48zM653 752l222 -150h-242l-214 123
l188 -1l-215 -122h-241l222 150h280z" />
    <glyph glyph-name="udieresis" unicode="&#xfc;" horiz-adv-x="998" 
d="M953 0h-240v490h240v-490zM723 253l2 -48q-3 -21 -19.5 -49t-45.5 -58t-71 -55.5t-96 -41.5t-120 -16t-125 13.5t-105 44.5t-72 83.5t-26 131.5v232h240v-207q0 -55 18.5 -85t58.5 -41.5t103 -11.5q59 0 109.5 17.5t89 42.5t59.5 48zM488 753v-151h-254v151h254zM792 753
v-151h-254v151h254z" />
    <glyph glyph-name="yacute" unicode="&#xfd;" horiz-adv-x="930" 
d="M5 490h255l292 -470l-207 -20zM925 490l-487 -690h-245l209 283l268 407h255zM338 602l202 150h320l-281 -150h-241z" />
    <glyph glyph-name="thorn" unicode="&#xfe;" horiz-adv-x="1063" 
d="M655 -15q-90 0 -162 18.5t-123 53t-78 82.5t-27 106t27 105.5t78 82t123 53t162 18.5q108 0 192.5 -30.5t132.5 -88.5t48 -140q0 -86 -48 -144t-132.5 -87t-192.5 -29zM565 138q68 0 116 12t73 35.5t25 59.5q0 53 -56 80t-158 27q-76 0 -139.5 -9t-102 -32.5t-38.5 -65.5
t38.5 -65.5t102 -32.5t139.5 -9zM45 690h240v-390v-500h-240v890z" />
    <glyph glyph-name="ydieresis" unicode="&#xff;" horiz-adv-x="930" 
d="M5 490h255l292 -470l-207 -20zM925 490l-487 -690h-245l209 283l268 407h255zM450 753v-151h-254v151h254zM754 753v-151h-254v151h254z" />
    <glyph glyph-name="Amacron" unicode="&#x100;" horiz-adv-x="1160" 
d="M234 97v150h684v-150h-684zM10 0l429 640h278l433 -640h-275l-371 573h149l-368 -573h-275zM351 693v99h454v-99h-454z" />
    <glyph glyph-name="amacron" unicode="&#x101;" horiz-adv-x="1063" 
d="M408 -14q-108 0 -192 30.5t-132.5 88.5t-48.5 140q0 86 48.5 144t132.5 87t192 29q120 0 207.5 -32.5t135 -91t47.5 -136.5q0 -58 -27 -105.5t-78 -82t-123 -53t-162 -18.5zM498 138q76 0 139.5 9.5t102 32.5t38.5 65q0 43 -38.5 66t-102 32t-139.5 9q-102 0 -158 -26.5
t-56 -80.5q0 -35 25 -59t73 -36t116 -12zM778 490h240v-490h-226l-3.5 23t-7 66t-3.5 101v300zM287 603v99h454v-99h-454z" />
    <glyph glyph-name="Abreve" unicode="&#x102;" horiz-adv-x="1160" 
d="M234 97v150h684v-150h-684zM10 0l429 640h278l433 -640h-275l-371 573h149l-368 -573h-275zM953 820q-20 -40 -65 -72.5t-121 -52t-189 -19.5t-189 19.5t-121 52t-65 72.5h150q22 -14 75 -29t150 -15t149.5 15t75.5 29h150z" />
    <glyph glyph-name="abreve" unicode="&#x103;" horiz-adv-x="1063" 
d="M408 -14q-108 0 -192 30.5t-132.5 88.5t-48.5 140q0 86 48.5 144t132.5 87t192 29q120 0 207.5 -32.5t135 -91t47.5 -136.5q0 -58 -27 -105.5t-78 -82t-123 -53t-162 -18.5zM498 138q76 0 139.5 9.5t102 32.5t38.5 65q0 43 -38.5 66t-102 32t-139.5 9q-102 0 -158 -26.5
t-56 -80.5q0 -35 25 -59t73 -36t116 -12zM778 490h240v-490h-226l-3.5 23t-7 66t-3.5 101v300zM889 730q-20 -40 -65 -72.5t-121 -52t-189 -19.5t-189 19.5t-121 52t-65 72.5h150q22 -14 75 -29t150 -15t149.5 15t75.5 29h150z" />
    <glyph glyph-name="Aogonek" unicode="&#x104;" horiz-adv-x="1160" 
d="M1089 -240q-163 0 -256 36t-93 99q0 47 40 72.5t109.5 37.5t158.5 17v-22q-63 -7 -95.5 -19.5t-32.5 -45.5q0 -27 23.5 -44t62 -25t83.5 -8v-98zM234 97v150h684v-150h-684zM10 0l429 640h278l433 -640h-275l-371 573h149l-368 -573h-275z" />
    <glyph glyph-name="aogonek" unicode="&#x105;" horiz-adv-x="1063" 
d="M968 -240q-163 0 -256 36t-93 99q0 47 40 72.5t109.5 37.5t158.5 17v-22q-63 -7 -95.5 -19.5t-32.5 -45.5q0 -27 23.5 -44t62 -25t83.5 -8v-98zM408 -14q-108 0 -192 30.5t-132.5 88.5t-48.5 140q0 86 48.5 144t132.5 87t192 29q120 0 207.5 -32.5t135 -91t47.5 -136.5
q0 -58 -27 -105.5t-78 -82t-123 -53t-162 -18.5zM498 138q76 0 139.5 9.5t102 32.5t38.5 65q0 43 -38.5 66t-102 32t-139.5 9q-102 0 -158 -26.5t-56 -80.5q0 -35 25 -59t73 -36t116 -12zM778 490h240v-490h-226l-3.5 23t-7 66t-3.5 101v300z" />
    <glyph glyph-name="Cacute" unicode="&#x106;" horiz-adv-x="1316" 
d="M1255 267q-5 -95 -69 -159t-188.5 -96t-314.5 -32q-145 0 -260 15.5t-196 53t-124 102.5t-43 164t43 165.5t124 106t196 56.5t260 17q190 0 315 -34.5t189 -101.5t69 -163h-260q-12 32 -44 56.5t-96 38.5t-173 14q-128 0 -208 -15.5t-117 -49.5t-37 -90q0 -51 37 -83
t117 -47t208 -15q109 0 172.5 13t95.5 35.5t44 48.5h260zM526 702l202 150h320l-281 -150h-241z" />
    <glyph glyph-name="cacute" unicode="&#x107;" horiz-adv-x="994" 
d="M959 213q0 -72 -45 -123t-142 -78t-252 -27t-263.5 25t-165 82t-56.5 152t56.5 152.5t165 83t263.5 25.5t251 -27t141 -78t46 -122h-220q-16 39 -72 60.5t-146 21.5q-73 0 -127 -10.5t-83.5 -35.5t-29.5 -70q0 -44 29 -69t83 -35t128 -10q90 0 146.5 21.5t72.5 61.5h220z
M371 602l202 150h320l-281 -150h-241z" />
    <glyph glyph-name="Cdotaccent" unicode="&#x10a;" horiz-adv-x="1316" 
d="M1255 267q-5 -95 -69 -159t-188.5 -96t-314.5 -32q-145 0 -260 15.5t-196 53t-124 102.5t-43 164t43 165.5t124 106t196 56.5t260 17q190 0 315 -34.5t189 -101.5t69 -163h-260q-12 32 -44 56.5t-96 38.5t-173 14q-128 0 -208 -15.5t-117 -49.5t-37 -90q0 -51 37 -83
t117 -47t208 -15q109 0 172.5 13t95.5 35.5t44 48.5h260zM790 853v-150h-254v150h254z" />
    <glyph glyph-name="cdotaccent" unicode="&#x10b;" horiz-adv-x="994" 
d="M959 213q0 -72 -45 -123t-142 -78t-252 -27t-263.5 25t-165 82t-56.5 152t56.5 152.5t165 83t263.5 25.5t251 -27t141 -78t46 -122h-220q-16 39 -72 60.5t-146 21.5q-73 0 -127 -10.5t-83.5 -35.5t-29.5 -70q0 -44 29 -69t83 -35t128 -10q90 0 146.5 21.5t72.5 61.5h220z
M635 753v-150h-254v150h254z" />
    <glyph glyph-name="Ccaron" unicode="&#x10c;" horiz-adv-x="1316" 
d="M1255 267q-5 -95 -69 -159t-188.5 -96t-314.5 -32q-145 0 -260 15.5t-196 53t-124 102.5t-43 164t43 165.5t124 106t196 56.5t260 17q190 0 315 -34.5t189 -101.5t69 -163h-260q-12 32 -44 56.5t-96 38.5t-173 14q-128 0 -208 -15.5t-117 -49.5t-37 -90q0 -51 37 -83
t117 -47t208 -15q109 0 172.5 13t95.5 35.5t44 48.5h260zM757 730l-188 -1l214 123h242l-222 -150h-280l-222 150h241z" />
    <glyph glyph-name="ccaron" unicode="&#x10d;" horiz-adv-x="994" 
d="M959 213q0 -72 -45 -123t-142 -78t-252 -27t-263.5 25t-165 82t-56.5 152t56.5 152.5t165 83t263.5 25.5t251 -27t141 -78t46 -122h-220q-16 39 -72 60.5t-146 21.5q-73 0 -127 -10.5t-83.5 -35.5t-29.5 -70q0 -44 29 -69t83 -35t128 -10q90 0 146.5 21.5t72.5 61.5h220z
M602 630l-188 -1l214 123h242l-222 -150h-280l-222 150h241z" />
    <glyph glyph-name="Dcaron" unicode="&#x10e;" horiz-adv-x="1302" 
d="M790 640q135 0 223 -26t138 -71t70.5 -102.5t20.5 -120.5t-23 -120.5t-75.5 -102.5t-139 -71t-214.5 -26h-720v640h720zM320 200h460q56 0 95 7.5t62.5 22.5t34 37.5t10.5 52.5t-10.5 52.5t-34 37.5t-62.5 22.5t-95 7.5h-460v-240zM692 720l-188 -1l214 123h242
l-222 -150h-280l-222 150h241z" />
    <glyph glyph-name="dcaron" unicode="&#x10f;" horiz-adv-x="1098" 
d="M408 -14q-108 0 -192 30.5t-132.5 88.5t-48.5 140q0 86 48.5 144t132.5 87t192 29q90 0 162 -18.5t123 -53t78 -82.5t27 -106t-27 -105.5t-78 -82t-123 -53t-162 -18.5zM498 138q76 0 139.5 9.5t102 32.5t38.5 65q0 43 -38.5 66t-102 32t-139.5 9q-102 0 -158 -26.5
t-56 -80.5q0 -35 25 -59t73 -36t116 -12zM778 690h240v-690h-226q-4 23 -9 74.5t-5 115.5v500zM1254 466h-120l-65 117v107h250v-107z" />
    <glyph glyph-name="Dcroat" unicode="&#x110;" horiz-adv-x="1302" 
d="M790 640q135 0 223 -26t138 -71t70.5 -102.5t20.5 -120.5t-23 -120.5t-75.5 -102.5t-139 -71t-214.5 -26h-720v640h720zM320 200h460q56 0 95 7.5t62.5 22.5t34 37.5t10.5 52.5t-10.5 52.5t-34 37.5t-62.5 22.5t-95 7.5h-460v-240zM-16 362h490v-65h-490v65z" />
    <glyph glyph-name="dcroat" unicode="&#x111;" horiz-adv-x="1098" 
d="M408 -14q-108 0 -192 30.5t-132.5 88.5t-48.5 140q0 86 48.5 144t132.5 87t192 29q90 0 162 -18.5t123 -53t78 -82.5t27 -106t-27 -105.5t-78 -82t-123 -53t-162 -18.5zM498 138q76 0 139.5 9.5t102 32.5t38.5 65q0 43 -38.5 66t-102 32t-139.5 9q-102 0 -158 -26.5
t-56 -80.5q0 -35 25 -59t73 -36t116 -12zM778 690h240v-690h-226q-4 23 -9 74.5t-5 115.5v500zM598 591h490v-65h-490v65z" />
    <glyph glyph-name="Emacron" unicode="&#x112;" horiz-adv-x="1140" 
d="M320 270v-80h760v-190h-1010v640h1008v-190h-758v-80h620v-100h-620zM368 693v99h454v-99h-454z" />
    <glyph glyph-name="emacron" unicode="&#x113;" horiz-adv-x="994" 
d="M721 176h236q-9 -58 -57.5 -101t-141 -66.5t-235.5 -23.5q-151 0 -260.5 24t-168.5 81t-59 154q0 96 57.5 153.5t166.5 82.5t264 25q152 0 249 -27t143 -87.5t44 -163.5h-680q5 -26 28.5 -48t73 -35.5t132.5 -13.5q86 0 141.5 12t66.5 34zM513 360q-106 0 -161.5 -23
t-65.5 -46h440q-7 26 -56 47.5t-157 21.5zM286 603v99h454v-99h-454z" />
    <glyph glyph-name="Edotaccent" unicode="&#x116;" horiz-adv-x="1140" 
d="M320 270v-80h760v-190h-1010v640h1008v-190h-758v-80h620v-100h-620zM722 843v-150h-254v150h254z" />
    <glyph glyph-name="edotaccent" unicode="&#x117;" horiz-adv-x="994" 
d="M721 176h236q-9 -58 -57.5 -101t-141 -66.5t-235.5 -23.5q-151 0 -260.5 24t-168.5 81t-59 154q0 96 57.5 153.5t166.5 82.5t264 25q152 0 249 -27t143 -87.5t44 -163.5h-680q5 -26 28.5 -48t73 -35.5t132.5 -13.5q86 0 141.5 12t66.5 34zM513 360q-106 0 -161.5 -23
t-65.5 -46h440q-7 26 -56 47.5t-157 21.5zM640 753v-150h-254v150h254z" />
    <glyph glyph-name="Eogonek" unicode="&#x118;" horiz-adv-x="1140" 
d="M1041 -240q-163 0 -256 36t-93 99q0 47 40 72.5t109.5 37.5t158.5 17v-22q-63 -7 -95.5 -19.5t-32.5 -45.5q0 -27 23.5 -44t62 -25t83.5 -8v-98zM320 270v-80h760v-190h-1010v640h1008v-190h-758v-80h620v-100h-620z" />
    <glyph glyph-name="eogonek" unicode="&#x119;" horiz-adv-x="994" 
d="M864 -240q-163 0 -256 36t-93 99q0 47 40 74t109.5 45t158.5 38v-22q-63 -25 -95.5 -43.5t-32.5 -51.5q0 -27 23.5 -44t62 -25t83.5 -8v-98zM721 176h236q-9 -58 -57.5 -101t-141 -66.5t-235.5 -23.5q-151 0 -260.5 24t-168.5 81t-59 154q0 96 57.5 153.5t166.5 82.5
t264 25q152 0 249 -27t143 -87.5t44 -163.5h-680q5 -26 28.5 -48t73 -35.5t132.5 -13.5q86 0 141.5 12t66.5 34zM513 360q-106 0 -161.5 -23t-65.5 -46h440q-7 26 -56 47.5t-157 21.5z" />
    <glyph glyph-name="Ecaron" unicode="&#x11a;" horiz-adv-x="1140" 
d="M320 270v-80h760v-190h-1010v640h1008v-190h-758v-80h620v-100h-620zM689 720l-188 -1l214 123h242l-222 -150h-280l-222 150h241z" />
    <glyph glyph-name="ecaron" unicode="&#x11b;" horiz-adv-x="994" 
d="M721 176h236q-9 -58 -57.5 -101t-141 -66.5t-235.5 -23.5q-151 0 -260.5 24t-168.5 81t-59 154q0 96 57.5 153.5t166.5 82.5t264 25q152 0 249 -27t143 -87.5t44 -163.5h-680q5 -26 28.5 -48t73 -35.5t132.5 -13.5q86 0 141.5 12t66.5 34zM513 360q-106 0 -161.5 -23
t-65.5 -46h440q-7 26 -56 47.5t-157 21.5zM607 630l-188 -1l214 123h242l-222 -150h-280l-222 150h241z" />
    <glyph glyph-name="Gbreve" unicode="&#x11e;" horiz-adv-x="1340" 
d="M653 -20q-130 0 -238.5 15.5t-188 53t-123 102.5t-43.5 164t44 165.5t126.5 106t197 56.5t255.5 17q185 0 310.5 -34t191.5 -96.5t71 -148.5h-260q-12 22 -44 42.5t-96 33.5t-173 13q-128 0 -208 -15.5t-117 -49.5t-37 -90q0 -49 38 -81t122 -48t222 -16q97 0 168.5 8.5
t130 26.5t116.5 45l24 -29q-62 -117 -184 -179t-305 -62zM1074 0q0 30 8 68t20.5 79.5t24.5 78.5h-390v105h533v-331h-196zM1026 830q-20 -40 -65 -72.5t-121 -52t-189 -19.5t-189 19.5t-121 52t-65 72.5h150q22 -14 75 -29t150 -15t149.5 15t75.5 29h150z" />
    <glyph glyph-name="gbreve" unicode="&#x11f;" horiz-adv-x="969" 
d="M449 69q-142 0 -234 23.5t-136 71t-44 119.5q0 67 43 116.5t134.5 77.5t236.5 28h59h59h382v-126q-65 -3 -131.5 6.5t-122.5 25.5l-11 15q45 -14 85.5 -36t65.5 -53t25 -74q0 -62 -42.5 -105.5t-133 -66t-235.5 -22.5zM662 -215v27q0 30 -26.5 35.5t-83.5 5.5h-279
q-71 0 -114.5 10t-66 27t-30 37.5t-7.5 40.5q0 43 32 67.5t98 34.5t168 10l96 -11q-84 0 -117 -8.5t-33 -33.5q0 -14 13 -20.5t35 -6.5h295q99 0 156 -14.5t80.5 -49t23.5 -94.5v-57h-240zM449 200q66 0 106.5 10.5t58.5 28.5t18 40q0 25 -18 43t-58 28t-107 10
q-66 0 -107 -10t-60 -28t-19 -43q0 -22 18.5 -40t59.5 -28.5t108 -10.5zM824 730q-20 -40 -65 -72.5t-121 -52t-189 -19.5t-189 19.5t-121 52t-65 72.5h150q22 -14 75 -29t150 -15t149.5 15t75.5 29h150z" />
    <glyph glyph-name="Gdotaccent" unicode="&#x120;" horiz-adv-x="1340" 
d="M653 -20q-130 0 -238.5 15.5t-188 53t-123 102.5t-43.5 164t44 165.5t126.5 106t197 56.5t255.5 17q185 0 310.5 -34t191.5 -96.5t71 -148.5h-260q-12 22 -44 42.5t-96 33.5t-173 13q-128 0 -208 -15.5t-117 -49.5t-37 -90q0 -49 38 -81t122 -48t222 -16q97 0 168.5 8.5
t130 26.5t116.5 45l24 -29q-62 -117 -184 -179t-305 -62zM1074 0q0 30 8 68t20.5 79.5t24.5 78.5h-390v105h533v-331h-196zM778 853v-150h-254v150h254z" />
    <glyph glyph-name="gdotaccent" unicode="&#x121;" horiz-adv-x="969" 
d="M449 69q-142 0 -234 23.5t-136 71t-44 119.5q0 67 43 116.5t134.5 77.5t236.5 28h59h59h382v-126q-65 -3 -131.5 6.5t-122.5 25.5l-11 15q45 -14 85.5 -36t65.5 -53t25 -74q0 -62 -42.5 -105.5t-133 -66t-235.5 -22.5zM662 -215v27q0 30 -26.5 35.5t-83.5 5.5h-279
q-71 0 -114.5 10t-66 27t-30 37.5t-7.5 40.5q0 43 32 67.5t98 34.5t168 10l96 -11q-84 0 -117 -8.5t-33 -33.5q0 -14 13 -20.5t35 -6.5h295q99 0 156 -14.5t80.5 -49t23.5 -94.5v-57h-240zM449 200q66 0 106.5 10.5t58.5 28.5t18 40q0 25 -18 43t-58 28t-107 10
q-66 0 -107 -10t-60 -28t-19 -43q0 -22 18.5 -40t59.5 -28.5t108 -10.5zM576 753v-150h-254v150h254z" />
    <glyph glyph-name="uni0122" unicode="&#x122;" horiz-adv-x="1340" 
d="M653 -20q-130 0 -238.5 15.5t-188 53t-123 102.5t-43.5 164t44 165.5t126.5 106t197 56.5t255.5 17q185 0 310.5 -34t191.5 -96.5t71 -148.5h-260q-12 22 -44 42.5t-96 33.5t-173 13q-128 0 -208 -15.5t-117 -49.5t-37 -90q0 -49 38 -81t122 -48t222 -16q97 0 168.5 8.5
t130 26.5t116.5 45l24 -29q-62 -117 -184 -179t-305 -62zM1074 0q0 30 8 68t20.5 79.5t24.5 78.5h-390v105h533v-331h-196zM555 -283l-14 62q29 7 50 18.5t24 25.5l-88 11v117h253v-77q0 -58 -56.5 -101.5t-168.5 -55.5v0z" />
    <glyph glyph-name="uni0123" unicode="&#x123;" horiz-adv-x="969" 
d="M449 69q-142 0 -234 23.5t-136 71t-44 119.5q0 67 43 116.5t134.5 77.5t236.5 28h59h59h382v-126q-65 -3 -131.5 6.5t-122.5 25.5l-11 15q45 -14 85.5 -36t65.5 -53t25 -74q0 -62 -42.5 -105.5t-133 -66t-235.5 -22.5zM662 -215v27q0 30 -26.5 35.5t-83.5 5.5h-279
q-71 0 -114.5 10t-66 27t-30 37.5t-7.5 40.5q0 43 32 67.5t98 34.5t168 10l96 -11q-84 0 -117 -8.5t-33 -33.5q0 -14 13 -20.5t35 -6.5h295q99 0 156 -14.5t80.5 -49t23.5 -94.5v-57h-240zM449 200q66 0 106.5 10.5t58.5 28.5t18 40q0 25 -18 43t-58 28t-107 10
q-66 0 -107 -10t-60 -28t-19 -43q0 -22 18.5 -40t59.5 -28.5t108 -10.5zM548 793l13 -62q-22 -5 -46 -17t-27 -27l88 -11v-117h-253v77q0 54 53.5 99t171.5 58z" />
    <glyph glyph-name="Hbar" unicode="&#x126;" horiz-adv-x="1280" 
d="M30 480v75h1220v-75h-1220zM285 419h704v-190h-704v190zM961 640h250v-640h-250v640zM71 640h250v-640h-250v640z" />
    <glyph glyph-name="hbar" unicode="&#x127;" horiz-adv-x="1008" 
d="M723 0v182q0 45 -18 76t-63.5 46.5t-128.5 15.5q-47 0 -91.5 -8.5t-80 -20.5t-56.5 -24l-2 48q4 15 27.5 45.5t68.5 64t113.5 57t162.5 23.5q59 0 114 -11t98.5 -36.5t69.5 -68.5t26 -107v-282h-240zM55 0v690h240v-690h-240zM-1 597h490v-65h-490v65z" />
    <glyph glyph-name="Imacron" unicode="&#x12a;" horiz-adv-x="420" 
d="M85 640h250v-640h-250v640zM-17 693v99h454v-99h-454z" />
    <glyph glyph-name="imacron" unicode="&#x12b;" horiz-adv-x="350" 
d="M55 490h240v-490h-240v490zM-52 598v99h454v-99h-454z" />
    <glyph glyph-name="Iogonek" unicode="&#x12e;" horiz-adv-x="420" 
d="M282 -240q-163 0 -256 36t-93 99q0 47 40 72.5t109.5 37.5t158.5 17v-22q-63 -7 -95.5 -19.5t-32.5 -45.5q0 -27 23.5 -44t62 -25t83.5 -8v-98zM85 640h250v-640h-250v640z" />
    <glyph glyph-name="iogonek" unicode="&#x12f;" horiz-adv-x="364" 
d="M343 -240q-163 0 -256 36t-93 99q0 47 40 72.5t109.5 37.5t158.5 17v-22q-63 -7 -95.5 -19.5t-32.5 -45.5q0 -27 23.5 -44t62 -25t83.5 -8v-98zM309 747v-150h-254v150h254zM62 490h240v-490h-240v490z" />
    <glyph glyph-name="Idotaccent" unicode="&#x130;" horiz-adv-x="420" 
d="M85 640h250v-640h-250v640zM337 843v-150h-254v150h254z" />
    <glyph glyph-name="dotlessi" unicode="&#x131;" horiz-adv-x="350" 
d="M55 490h240v-490h-240v490z" />
    <glyph glyph-name="IJ" unicode="&#x132;" horiz-adv-x="1058" 
d="M86 640h240v-296h-240v296zM738 329v311h250v-341q0 -57 -25.5 -111.5t-80 -99.5t-140 -71.5t-204.5 -26.5q-83 0 -163.5 15.5t-145.5 50.5t-104 93.5t-40 144.5h240q14 -62 64.5 -88t148.5 -26q83 0 126 19t58.5 53t15.5 77z" />
    <glyph glyph-name="ij" unicode="&#x133;" horiz-adv-x="728" 
d="M309 747v-150h-254v150h254zM62 490h240v-490h-240v490zM426 490h240v-690h-240v690zM673 747v-150h-254v150h254z" />
    <glyph glyph-name="uni0136" unicode="&#x136;" horiz-adv-x="1215" 
d="M603 315v56l577 -371h-372l-490 340l452 300h356zM70 640h250v-640h-250v640zM418 -283l-14 62q29 7 50 18.5t24 25.5l-88 11v117h253v-77q0 -58 -56.5 -101.5t-168.5 -55.5v0z" />
    <glyph glyph-name="uni0137" unicode="&#x137;" horiz-adv-x="942" 
d="M55 690h240v-690h-240v690zM903 490l-396 -275l5 130l425 -345h-304l-334 279l286 211h318zM343 -283l-14 62q29 7 50 18.5t24 25.5l-88 11v117h253v-77q0 -58 -56.5 -101.5t-168.5 -55.5v0z" />
    <glyph glyph-name="Lacute" unicode="&#x139;" horiz-adv-x="943" 
d="M320 640v-450h583v-190h-833v640h250zM69 692l202 150h320l-281 -150h-241z" />
    <glyph glyph-name="lacute" unicode="&#x13a;" horiz-adv-x="360" 
d="M60 690h240v-690h-240v690zM50 792l202 150h320l-281 -150h-241z" />
    <glyph glyph-name="uni013B" unicode="&#x13b;" horiz-adv-x="943" 
d="M320 640v-450h583v-190h-833v640h250zM427 -283l-14 62q29 7 50 18.5t24 25.5l-88 11v117h253v-77q0 -58 -56.5 -101.5t-168.5 -55.5v0z" />
    <glyph glyph-name="uni013C" unicode="&#x13c;" horiz-adv-x="360" 
d="M60 690h240v-690h-240v690zM85 -283l-14 62q29 7 50 18.5t24 25.5l-88 11v117h253v-77q0 -58 -56.5 -101.5t-168.5 -55.5v0z" />
    <glyph glyph-name="Lcaron" unicode="&#x13d;" horiz-adv-x="943" 
d="M320 640v-450h583v-190h-833v640h250zM787 466h-120l-65 117v107h250v-107z" />
    <glyph glyph-name="lcaron" unicode="&#x13e;" horiz-adv-x="610" 
d="M60 690h240v-690h-240v690zM545 466h-120l-65 117v107h250v-107z" />
    <glyph glyph-name="Ldot" unicode="&#x13f;" horiz-adv-x="943" 
d="M320 640v-450h583v-190h-833v640h250zM721 488v-151h-254v151h254z" />
    <glyph glyph-name="ldot" unicode="&#x140;" horiz-adv-x="659" 
d="M60 690h240v-690h-240v690zM599 348v-151h-254v151h254z" />
    <glyph glyph-name="Lslash" unicode="&#x141;" horiz-adv-x="943" 
d="M320 640v-450h583v-190h-833v640h250zM385 506l37 -53l-410 -280l-35 53z" />
    <glyph glyph-name="lslash" unicode="&#x142;" horiz-adv-x="381" 
d="M374 510l37 -53l-406 -277l-35 53zM71 690h240v-690h-240v690z" />
    <glyph glyph-name="Nacute" unicode="&#x143;" horiz-adv-x="1300" 
d="M1073 196l-93 -53v497h250v-640h-250l-753 436l93 54v-490h-250v640h250zM512 692l202 150h320l-281 -150h-241z" />
    <glyph glyph-name="nacute" unicode="&#x144;" horiz-adv-x="998" 
d="M45 490h240v-490h-240v490zM645 505q59 0 114 -12.5t98.5 -42.5t69.5 -82t26 -131v-237h-240v207q0 75 -39 106.5t-141 31.5q-54 0 -104.5 -12t-90.5 -28.5t-63 -32.5l-2 38q4 18 27.5 50.5t68.5 65.5t113.5 56t162.5 23zM412 602l202 150h320l-281 -150h-241z" />
    <glyph glyph-name="uni0145" unicode="&#x145;" horiz-adv-x="1300" 
d="M1073 196l-93 -53v497h250v-640h-250l-753 436l93 54v-490h-250v640h250zM553 -283l-14 62q29 7 50 18.5t24 25.5l-88 11v117h253v-77q0 -58 -56.5 -101.5t-168.5 -55.5v0z" />
    <glyph glyph-name="uni0146" unicode="&#x146;" horiz-adv-x="998" 
d="M45 490h240v-490h-240v490zM645 505q59 0 114 -12.5t98.5 -42.5t69.5 -82t26 -131v-237h-240v207q0 75 -39 106.5t-141 31.5q-54 0 -104.5 -12t-90.5 -28.5t-63 -32.5l-2 38q4 18 27.5 50.5t68.5 65.5t113.5 56t162.5 23zM403 -283l-14 62q29 7 50 18.5t24 25.5l-88 11
v117h253v-77q0 -58 -56.5 -101.5t-168.5 -55.5v0z" />
    <glyph glyph-name="Ncaron" unicode="&#x147;" horiz-adv-x="1300" 
d="M1073 196l-93 -53v497h250v-640h-250l-753 436l93 54v-490h-250v640h250zM743 720l-188 -1l214 123h242l-222 -150h-280l-222 150h241z" />
    <glyph glyph-name="ncaron" unicode="&#x148;" horiz-adv-x="998" 
d="M45 490h240v-490h-240v490zM645 505q59 0 114 -12.5t98.5 -42.5t69.5 -82t26 -131v-237h-240v207q0 75 -39 106.5t-141 31.5q-54 0 -104.5 -12t-90.5 -28.5t-63 -32.5l-2 38q4 18 27.5 50.5t68.5 65.5t113.5 56t162.5 23zM643 630l-188 -1l214 123h242l-222 -150h-280
l-222 150h241z" />
    <glyph glyph-name="Eng" unicode="&#x14a;" horiz-adv-x="1300" 
d="M1073 196l-93 -53v497h250v-700q0 -54 -26.5 -85.5t-70.5 -46t-96 -18t-103.5 -2t-93.5 1.5v170q40 0 71.5 4t50 12.5t18.5 23.5l-753 436l93 54v-490h-250v640h250z" />
    <glyph glyph-name="eng" unicode="&#x14b;" horiz-adv-x="998" 
d="M553 -215v165q64 0 98.5 4t48 15t13.5 31v207q0 75 -39 106.5t-141 31.5q-55 0 -105.5 -12t-90 -28.5t-62.5 -32.5l-2 38q4 18 27.5 50.5t68.5 65.5t113.5 56t162.5 23q59 0 114 -12.5t98.5 -42.5t69.5 -82t26 -131v-307q0 -44 -17 -72.5t-60.5 -44.5t-122 -22t-200.5 -6
zM45 0v490h240v-490h-240z" />
    <glyph glyph-name="Omacron" unicode="&#x14c;" horiz-adv-x="1330" 
d="M665 -20q-218 0 -351 38.5t-193.5 114t-60.5 187.5t60.5 187.5t193.5 114t351 38.5t351 -38.5t193.5 -114t60.5 -187.5t-60.5 -187.5t-193.5 -114t-351 -38.5zM665 170q103 0 178 12.5t116 45t41 92.5t-41 92.5t-116 45t-178 12.5t-180.5 -12.5t-121 -45t-43.5 -92.5
t43.5 -92.5t121 -45t180.5 -12.5zM438 703v99h454v-99h-454z" />
    <glyph glyph-name="omacron" unicode="&#x14d;" horiz-adv-x="1016" 
d="M510 -15q-159 0 -264.5 26t-158 83t-52.5 150t52.5 150.5t158 84t264.5 26.5q158 0 262.5 -26.5t156.5 -84t52 -150.5t-52 -150t-156.5 -83t-262.5 -26zM510 130q74 0 124 12.5t76 38t26 63.5t-25.5 64t-75.5 39t-125 13q-74 0 -125.5 -13t-78 -38.5t-26.5 -64.5
q0 -38 26 -63.5t77.5 -38t126.5 -12.5zM283 603v99h454v-99h-454z" />
    <glyph glyph-name="Ohungarumlaut" unicode="&#x150;" horiz-adv-x="1330" 
d="M665 -20q-218 0 -351 38.5t-193.5 114t-60.5 187.5t60.5 187.5t193.5 114t351 38.5t351 -38.5t193.5 -114t60.5 -187.5t-60.5 -187.5t-193.5 -114t-351 -38.5zM665 170q103 0 178 12.5t116 45t41 92.5t-41 92.5t-116 45t-178 12.5t-180.5 -12.5t-121 -45t-43.5 -92.5
t43.5 -92.5t121 -45t180.5 -12.5zM693 702l154 150h204l-187 -150h-171zM419 702l135 150h203l-167 -150h-171z" />
    <glyph glyph-name="ohungarumlaut" unicode="&#x151;" horiz-adv-x="1016" 
d="M510 -15q-159 0 -264.5 26t-158 83t-52.5 150t52.5 150.5t158 84t264.5 26.5q158 0 262.5 -26.5t156.5 -84t52 -150.5t-52 -150t-156.5 -83t-262.5 -26zM510 130q74 0 124 12.5t76 38t26 63.5t-25.5 64t-75.5 39t-125 13q-74 0 -125.5 -13t-78 -38.5t-26.5 -64.5
q0 -38 26 -63.5t77.5 -38t126.5 -12.5zM538 602l154 150h204l-187 -150h-171zM264 602l135 150h203l-167 -150h-171z" />
    <glyph glyph-name="OE" unicode="&#x152;" horiz-adv-x="1962" 
d="M1902 190v-190h-1056l350 190h706zM1762 370v-100h-520v100h520zM1900 640v-190h-698l-346 190h1044zM665 -20q-218 0 -351 38.5t-193.5 114t-60.5 187.5t60.5 187.5t193.5 114t351 38.5t351 -38.5t193.5 -114t60.5 -187.5t-60.5 -187.5t-193.5 -114t-351 -38.5zM665 170
q103 0 178 12.5t116 45t41 92.5t-41 92.5t-116 45t-178 12.5t-180.5 -12.5t-121 -45t-43.5 -92.5t43.5 -92.5t121 -45t180.5 -12.5z" />
    <glyph glyph-name="oe" unicode="&#x153;" horiz-adv-x="1696" 
d="M510 -15q-159 0 -264.5 26t-158 83t-52.5 150t52.5 150.5t158 84t264.5 26.5q158 0 262.5 -26.5t156.5 -84t52 -150.5t-52 -150t-156.5 -83t-262.5 -26zM510 130q74 0 124 12.5t76 38t26 63.5t-25.5 64t-75.5 39t-125 13q-74 0 -125.5 -13t-78 -38.5t-26.5 -64.5
q0 -38 26 -63.5t77.5 -38t126.5 -12.5zM1423 176h236q-9 -58 -57.5 -101t-141 -66.5t-235.5 -23.5q-151 0 -260.5 24t-168.5 81t-59 154q0 96 57.5 153.5t166.5 82.5t264 25q152 0 249 -27t143 -87.5t44 -163.5h-680q5 -26 28.5 -48t73 -35.5t132.5 -13.5q86 0 141.5 12
t66.5 34zM1215 360q-106 0 -161.5 -23t-65.5 -46h440q-7 26 -56 47.5t-157 21.5z" />
    <glyph glyph-name="Racute" unicode="&#x154;" horiz-adv-x="1232" 
d="M70 0v640h773q91 0 163.5 -20.5t115 -68.5t42.5 -131q0 -55 -20 -91t-55 -56t-80 -29t-94 -11l-73 14q119 -1 183.5 -10t90 -32.5t25.5 -67.5v-137h-250v107q0 30 -11.5 45.5t-50 21.5t-118.5 6h-391v-180h-250zM320 347h523q30 0 50.5 10t20.5 38q0 26 -20.5 35.5
t-50.5 9.5h-523v-93zM452 692l202 150h320l-281 -150h-241z" />
    <glyph glyph-name="racute" unicode="&#x155;" horiz-adv-x="563" 
d="M45 490h240v-490h-240v490zM543 305q-65 0 -119 -12t-92 -28.5t-57 -32.5l-2 48q3 21 16 49.5t35 59t54 57t73.5 43t91.5 16.5v-200zM205 602l202 150h320l-281 -150h-241z" />
    <glyph glyph-name="uni0156" unicode="&#x156;" horiz-adv-x="1232" 
d="M70 0v640h773q91 0 163.5 -20.5t115 -68.5t42.5 -131q0 -55 -20 -91t-55 -56t-80 -29t-94 -11l-73 14q119 -1 183.5 -10t90 -32.5t25.5 -67.5v-137h-250v107q0 30 -11.5 45.5t-50 21.5t-118.5 6h-391v-180h-250zM320 347h523q30 0 50.5 10t20.5 38q0 26 -20.5 35.5
t-50.5 9.5h-523v-93zM493 -298l-14 62q29 7 50 18.5t24 25.5l-88 11v117h253v-77q0 -58 -56.5 -101.5t-168.5 -55.5v0z" />
    <glyph glyph-name="uni0157" unicode="&#x157;" horiz-adv-x="563" 
d="M45 490h240v-490h-240v490zM543 305q-65 0 -119 -12t-92 -28.5t-57 -32.5l-2 48q3 21 16 49.5t35 59t54 57t73.5 43t91.5 16.5v-200zM70 -283l-14 62q29 7 50 18.5t24 25.5l-88 11v117h253v-77q0 -58 -56.5 -101.5t-168.5 -55.5v0z" />
    <glyph glyph-name="Rcaron" unicode="&#x158;" horiz-adv-x="1232" 
d="M70 0v640h773q91 0 163.5 -20.5t115 -68.5t42.5 -131q0 -55 -20 -91t-55 -56t-80 -29t-94 -11l-73 14q119 -1 183.5 -10t90 -32.5t25.5 -67.5v-137h-250v107q0 30 -11.5 45.5t-50 21.5t-118.5 6h-391v-180h-250zM320 347h523q30 0 50.5 10t20.5 38q0 26 -20.5 35.5
t-50.5 9.5h-523v-93zM683 720l-188 -1l214 123h242l-222 -150h-280l-222 150h241z" />
    <glyph glyph-name="rcaron" unicode="&#x159;" horiz-adv-x="563" 
d="M45 490h240v-490h-240v490zM543 305q-65 0 -119 -12t-92 -28.5t-57 -32.5l-2 48q3 21 16 49.5t35 59t54 57t73.5 43t91.5 16.5v-200zM436 630l-188 -1l214 123h242l-222 -150h-280l-222 150h241z" />
    <glyph glyph-name="Sacute" unicode="&#x15a;" horiz-adv-x="1056" 
d="M35 235h273q7 -21 41 -35.5t91.5 -22t133.5 -7.5q75 0 118.5 4.5t61.5 16t18 31.5q0 19 -29 29.5t-103 14.5t-208 4q-100 0 -172.5 9.5t-119 30t-68.5 52t-22 75.5q0 76 51.5 125.5t156 74t261.5 24.5q230 0 351.5 -66.5t121.5 -191.5h-259q-5 33 -62 50.5t-162 17.5
q-104 0 -154.5 -12t-50.5 -41q0 -15 14 -24t48.5 -14.5t97.5 -7.5t160 -2q107 0 182 -10.5t121.5 -31.5t67.5 -53.5t21 -76.5q0 -76 -48 -124t-152 -71t-272 -23q-95 0 -174.5 11t-141.5 32.5t-105 53t-65.5 71t-22.5 87.5zM378 702l202 150h320l-281 -150h-241z" />
    <glyph glyph-name="sacute" unicode="&#x15b;" horiz-adv-x="842" 
d="M40 176h221q14 -26 53.5 -36t113.5 -10q57 0 84.5 6t36 16t8.5 21q0 17 -18.5 23.5t-62.5 8t-121 1.5q-73 0 -130.5 6.5t-97.5 21t-61 40.5t-21 65q0 48 31 80.5t84 51t122.5 26.5t145.5 8q126 0 206 -25.5t118 -68.5t37 -97h-215q-11 26 -41.5 36t-104.5 10
q-70 0 -101.5 -10.5t-31.5 -33.5q0 -15 15.5 -22.5t59 -10.5t127.5 -3q58 0 113.5 -4t100 -17t70.5 -40t26 -74q0 -57 -46.5 -92.5t-131.5 -51.5t-201 -16q-101 0 -170.5 13t-113.5 34.5t-67.5 47t-31 51t-5.5 45.5zM276 602l202 150h320l-281 -150h-241z" />
    <glyph glyph-name="Scedilla" unicode="&#x15e;" horiz-adv-x="1056" 
d="M427 -124l10.5 -10.5t24 -14t45.5 -6.5t43.5 7.5t14.5 20.5q0 8 -6 16.5t-28 16.5t-71 14l165 23q43 -7 77 -17.5t54.5 -29t20.5 -49.5q0 -55 -68.5 -88.5t-195.5 -33.5q-82 0 -138.5 21.5t-86.5 56.5t-35 73h174zM460 4h170v-104l-170 20v84zM35 235h273q7 -21 41 -35.5
t91.5 -22t133.5 -7.5q75 0 118.5 4.5t61.5 16t18 31.5q0 19 -29 29.5t-103 14.5t-208 4q-100 0 -172.5 9.5t-119 30t-68.5 52t-22 75.5q0 76 51.5 125.5t156 74t261.5 24.5q230 0 351.5 -66.5t121.5 -191.5h-259q-5 33 -62 50.5t-162 17.5q-104 0 -154.5 -12t-50.5 -41
q0 -15 14 -24t48.5 -14.5t97.5 -7.5t160 -2q107 0 182 -10.5t121.5 -31.5t67.5 -53.5t21 -76.5q0 -76 -48 -124t-152 -71t-272 -23q-95 0 -174.5 11t-141.5 32.5t-105 53t-65.5 71t-22.5 87.5z" />
    <glyph glyph-name="scedilla" unicode="&#x15f;" horiz-adv-x="842" 
d="M331 -119l10.5 -10.5t24 -14t45.5 -6.5t43.5 7.5t14.5 20.5q0 8 -6 16.5t-28 16.5t-71 14l165 23q43 -7 77 -17.5t54.5 -29t20.5 -49.5q0 -55 -68.5 -88.5t-195.5 -33.5q-82 0 -138.5 21.5t-86.5 56.5t-35 73h174zM364 9h170v-104l-170 20v84zM40 176h221
q14 -26 53.5 -36t113.5 -10q57 0 84.5 6t36 16t8.5 21q0 17 -18.5 23.5t-62.5 8t-121 1.5q-73 0 -130.5 6.5t-97.5 21t-61 40.5t-21 65q0 48 31 80.5t84 51t122.5 26.5t145.5 8q126 0 206 -25.5t118 -68.5t37 -97h-215q-11 26 -41.5 36t-104.5 10q-70 0 -101.5 -10.5
t-31.5 -33.5q0 -15 15.5 -22.5t59 -10.5t127.5 -3q58 0 113.5 -4t100 -17t70.5 -40t26 -74q0 -57 -46.5 -92.5t-131.5 -51.5t-201 -16q-101 0 -170.5 13t-113.5 34.5t-67.5 47t-31 51t-5.5 45.5z" />
    <glyph glyph-name="Scaron" unicode="&#x160;" horiz-adv-x="1056" 
d="M35 235h273q7 -21 41 -35.5t91.5 -22t133.5 -7.5q75 0 118.5 4.5t61.5 16t18 31.5q0 19 -29 29.5t-103 14.5t-208 4q-100 0 -172.5 9.5t-119 30t-68.5 52t-22 75.5q0 76 51.5 125.5t156 74t261.5 24.5q230 0 351.5 -66.5t121.5 -191.5h-259q-5 33 -62 50.5t-162 17.5
q-104 0 -154.5 -12t-50.5 -41q0 -15 14 -24t48.5 -14.5t97.5 -7.5t160 -2q107 0 182 -10.5t121.5 -31.5t67.5 -53.5t21 -76.5q0 -76 -48 -124t-152 -71t-272 -23q-95 0 -174.5 11t-141.5 32.5t-105 53t-65.5 71t-22.5 87.5zM609 730l-188 -1l214 123h242l-222 -150h-280
l-222 150h241z" />
    <glyph glyph-name="scaron" unicode="&#x161;" horiz-adv-x="842" 
d="M40 176h221q14 -26 53.5 -36t113.5 -10q57 0 84.5 6t36 16t8.5 21q0 17 -18.5 23.5t-62.5 8t-121 1.5q-73 0 -130.5 6.5t-97.5 21t-61 40.5t-21 65q0 48 31 80.5t84 51t122.5 26.5t145.5 8q126 0 206 -25.5t118 -68.5t37 -97h-215q-11 26 -41.5 36t-104.5 10
q-70 0 -101.5 -10.5t-31.5 -33.5q0 -15 15.5 -22.5t59 -10.5t127.5 -3q58 0 113.5 -4t100 -17t70.5 -40t26 -74q0 -57 -46.5 -92.5t-131.5 -51.5t-201 -16q-101 0 -170.5 13t-113.5 34.5t-67.5 47t-31 51t-5.5 45.5zM507 630l-188 -1l214 123h242l-222 -150h-280l-222 150
h241z" />
    <glyph glyph-name="uni0162" unicode="&#x162;" horiz-adv-x="1100" 
d="M432 -109l10.5 -10.5t24 -14t45.5 -6.5t43.5 7.5t14.5 20.5q0 8 -6 16.5t-28 16.5t-71 14l165 23q43 -7 77 -17.5t54.5 -29t20.5 -49.5q0 -55 -68.5 -88.5t-195.5 -33.5q-82 0 -138.5 21.5t-86.5 56.5t-35 73h174zM465 19h170v-104l-170 20v84zM30 640h1040v-190h-1040
v190zM425 463h250v-463h-250v463z" />
    <glyph glyph-name="uni0163" unicode="&#x163;" horiz-adv-x="628" 
d="M196 -109l10.5 -10.5t23.5 -14t46 -6.5q29 0 43.5 7.5t14.5 20.5q0 8 -6 16.5t-28 16.5t-71 14l165 23q43 -7 77 -17.5t54.5 -29t20.5 -49.5q0 -55 -68.5 -88.5t-195.5 -33.5q-82 0 -138.5 21.5t-86.5 56.5t-35 73h174zM229 19h170v-104l-170 20v84zM20 490h588v-150
h-588v150zM194 640h240v-640h-240v640z" />
    <glyph glyph-name="Tcaron" unicode="&#x164;" horiz-adv-x="1100" 
d="M30 640h1040v-190h-1040v190zM425 463h250v-463h-250v463zM644 720l-188 -1l214 123h242l-222 -150h-280l-222 150h241z" />
    <glyph glyph-name="tcaron" unicode="&#x165;" horiz-adv-x="354" 
d="M20 490h588v-150h-588v150zM194 640h240v-640h-240v640zM597 517h-120l-65 117v107h250v-107z" />
    <glyph glyph-name="Tbar" unicode="&#x166;" horiz-adv-x="1100" 
d="M90 283v75h920v-75h-920zM30 640h1040v-190h-1040v190zM425 463h250v-463h-250v463z" />
    <glyph glyph-name="tbar" unicode="&#x167;" horiz-adv-x="628" 
d="M21 265h587v-75h-587v75zM20 490h588v-150h-588v150zM194 640h240v-640h-240v640z" />
    <glyph glyph-name="Umacron" unicode="&#x16a;" horiz-adv-x="1289" 
d="M969 365v275h250v-320q0 -85 -31.5 -144.5t-87.5 -98t-129 -59.5t-156.5 -29.5t-169.5 -8.5q-91 0 -176 8.5t-157.5 29.5t-126.5 59.5t-84.5 98t-30.5 144.5v320h250v-275q0 -80 39 -122t111.5 -57.5t174.5 -15.5q99 0 172 15.5t112.5 57.5t39.5 122zM418 693v99h454v-99
h-454z" />
    <glyph glyph-name="umacron" unicode="&#x16b;" horiz-adv-x="998" 
d="M953 0h-240v490h240v-490zM723 253l2 -48q-3 -21 -19.5 -49t-45.5 -58t-71 -55.5t-96 -41.5t-120 -16t-125 13.5t-105 44.5t-72 83.5t-26 131.5v232h240v-207q0 -55 18.5 -85t58.5 -41.5t103 -11.5q59 0 109.5 17.5t89 42.5t59.5 48zM286 603v99h454v-99h-454z" />
    <glyph glyph-name="Uring" unicode="&#x16e;" horiz-adv-x="1289" 
d="M969 365v275h250v-320q0 -85 -31.5 -144.5t-87.5 -98t-129 -59.5t-156.5 -29.5t-169.5 -8.5q-91 0 -176 8.5t-157.5 29.5t-126.5 59.5t-84.5 98t-30.5 144.5v320h250v-275q0 -80 39 -122t111.5 -57.5t174.5 -15.5q99 0 172 15.5t112.5 57.5t39.5 122zM645 667
q-86 0 -127.5 30.5t-41.5 81.5q0 50 41.5 80.5t127.5 30.5q85 0 127 -30.5t42 -80.5q0 -51 -42 -81.5t-127 -30.5zM645 732q40 0 56.5 10t16.5 37q0 26 -16.5 36t-56.5 10q-41 0 -57.5 -10t-16.5 -36q0 -27 16.5 -37t57.5 -10z" />
    <glyph glyph-name="uring" unicode="&#x16f;" horiz-adv-x="998" 
d="M953 0h-240v490h240v-490zM723 253l2 -48q-3 -21 -19.5 -49t-45.5 -58t-71 -55.5t-96 -41.5t-120 -16t-125 13.5t-105 44.5t-72 83.5t-26 131.5v232h240v-207q0 -55 18.5 -85t58.5 -41.5t103 -11.5q59 0 109.5 17.5t89 42.5t59.5 48zM513 577q-86 0 -127.5 30.5
t-41.5 81.5q0 50 41.5 80.5t127.5 30.5q85 0 127 -30.5t42 -80.5q0 -51 -42 -81.5t-127 -30.5zM513 642q40 0 56.5 10t16.5 37q0 26 -16.5 36t-56.5 10q-41 0 -57.5 -10t-16.5 -36q0 -27 16.5 -37t57.5 -10z" />
    <glyph glyph-name="Uhungarumlaut" unicode="&#x170;" horiz-adv-x="1289" 
d="M969 365v275h250v-320q0 -85 -31.5 -144.5t-87.5 -98t-129 -59.5t-156.5 -29.5t-169.5 -8.5q-91 0 -176 8.5t-157.5 29.5t-126.5 59.5t-84.5 98t-30.5 144.5v320h250v-275q0 -80 39 -122t111.5 -57.5t174.5 -15.5q99 0 172 15.5t112.5 57.5t39.5 122zM673 692l154 150
h204l-187 -150h-171zM399 692l135 150h203l-167 -150h-171z" />
    <glyph glyph-name="uhungarumlaut" unicode="&#x171;" horiz-adv-x="998" 
d="M953 0h-240v490h240v-490zM723 253l2 -48q-3 -21 -19.5 -49t-45.5 -58t-71 -55.5t-96 -41.5t-120 -16t-125 13.5t-105 44.5t-72 83.5t-26 131.5v232h240v-207q0 -55 18.5 -85t58.5 -41.5t103 -11.5q59 0 109.5 17.5t89 42.5t59.5 48zM541 602l154 150h204l-187 -150h-171
zM267 602l135 150h203l-167 -150h-171z" />
    <glyph glyph-name="Uogonek" unicode="&#x172;" horiz-adv-x="1289" 
d="M983 -255q-163 0 -256 36t-93 99q0 47 40 73.5t109.5 41.5t158.5 27v-12q-63 -19 -95.5 -38t-32.5 -52q0 -27 23.5 -44t62 -25t83.5 -8v-98zM969 365v275h250v-320q0 -85 -31.5 -144.5t-87.5 -98t-129 -59.5t-156.5 -29.5t-169.5 -8.5q-91 0 -176 8.5t-157.5 29.5
t-126.5 59.5t-84.5 98t-30.5 144.5v320h250v-275q0 -80 39 -122t111.5 -57.5t174.5 -15.5q99 0 172 15.5t112.5 57.5t39.5 122z" />
    <glyph glyph-name="uogonek" unicode="&#x173;" horiz-adv-x="998" 
d="M915 -240q-163 0 -256 36t-93 99q0 47 40 72.5t109.5 37.5t158.5 17v-22q-63 -7 -95.5 -19.5t-32.5 -45.5q0 -27 23.5 -44t62 -25t83.5 -8v-98zM953 0h-240v490h240v-490zM723 253l2 -48q-3 -21 -19.5 -49t-45.5 -58t-71 -55.5t-96 -41.5t-120 -16t-125 13.5t-105 44.5
t-72 83.5t-26 131.5v232h240v-207q0 -55 18.5 -85t58.5 -41.5t103 -11.5q59 0 109.5 17.5t89 42.5t59.5 48z" />
    <glyph glyph-name="Wcircumflex" unicode="&#x174;" horiz-adv-x="1882" 
d="M378 0l-358 640h282l302 -595l-95 -2l283 597h302l283 -597l-95 2l302 595h278l-354 -640h-338l-276 539h98l-276 -539h-338zM1090 892l222 -150h-242l-214 123l188 -1l-215 -122h-241l222 150h280z" />
    <glyph glyph-name="wcircumflex" unicode="&#x175;" horiz-adv-x="1462" 
d="M1079 92l-104 2l217 396h265l-309 -490h-226l-253 380l118 -1l-263 -379h-226l-293 490h264l204 -396h-103l226 396h265zM868 752l222 -150h-242l-214 123l188 -1l-215 -122h-241l222 150h280z" />
    <glyph glyph-name="Ycircumflex" unicode="&#x176;" horiz-adv-x="1070" 
d="M1065 640l-405 -477v-163h-250v163l-405 477h295l329 -415h-185l326 415h295zM675 842l222 -150h-242l-214 123l188 -1l-215 -122h-241l222 150h280z" />
    <glyph glyph-name="ycircumflex" unicode="&#x177;" horiz-adv-x="930" 
d="M5 490h255l292 -470l-207 -20zM925 490l-487 -690h-245l209 283l268 407h255zM615 752l222 -150h-242l-214 123l188 -1l-215 -122h-241l222 150h280z" />
    <glyph glyph-name="Ydieresis" unicode="&#x178;" horiz-adv-x="1070" 
d="M1065 640l-405 -477v-163h-250v163l-405 477h295l329 -415h-185l326 415h295zM510 843v-151h-254v151h254zM814 843v-151h-254v151h254z" />
    <glyph glyph-name="Zacute" unicode="&#x179;" horiz-adv-x="1200" 
d="M70 640h1060v-190l-728 -301l-8 41h736v-190h-1060v190l731 301l8 -41h-739v190zM463 742l202 150h320l-281 -150h-241z" />
    <glyph glyph-name="zacute" unicode="&#x17a;" horiz-adv-x="896" 
d="M830 340l-541 -233l-9 43h556v-150h-776v150l537 233l9 -43h-546v150h770v-150zM307 602l202 150h320l-281 -150h-241z" />
    <glyph glyph-name="Zdotaccent" unicode="&#x17b;" horiz-adv-x="1200" 
d="M70 640h1060v-190l-728 -301l-8 41h736v-190h-1060v190l731 301l8 -41h-739v190zM727 893v-150h-254v150h254z" />
    <glyph glyph-name="zdotaccent" unicode="&#x17c;" horiz-adv-x="896" 
d="M830 340l-541 -233l-9 43h556v-150h-776v150l537 233l9 -43h-546v150h770v-150zM571 753v-150h-254v150h254z" />
    <glyph glyph-name="Zcaron" unicode="&#x17d;" horiz-adv-x="1200" 
d="M70 640h1060v-190l-728 -301l-8 41h736v-190h-1060v190l731 301l8 -41h-739v190zM694 770l-188 -1l214 123h242l-222 -150h-280l-222 150h241z" />
    <glyph glyph-name="zcaron" unicode="&#x17e;" horiz-adv-x="896" 
d="M830 340l-541 -233l-9 43h556v-150h-776v150l537 233l9 -43h-546v150h770v-150zM538 630l-188 -1l214 123h242l-222 -150h-280l-222 150h241z" />
    <glyph glyph-name="florin" unicode="&#x192;" horiz-adv-x="1260" 
d="M892 660q122 0 196.5 -31t108 -88.5t33.5 -136.5h-220q-4 29 -31 47.5t-87 18.5q-39 0 -66 -8t-43.5 -23.5t-24.5 -39t-8 -55.5v-27q0 -107 -47 -180t-131 -110t-196 -37t-189.5 32.5t-117 88.5t-39.5 126h220q4 -30 36.5 -43.5t89.5 -13.5q47 0 76.5 13.5t43.5 44
t14 79.5v27q0 107 47 177t133 104.5t202 34.5zM328 358h539v-65h-539v65z" />
    <glyph glyph-name="uni0218" unicode="&#x218;" horiz-adv-x="1056" 
d="M35 235h273q7 -21 41 -35.5t91.5 -22t133.5 -7.5q75 0 118.5 4.5t61.5 16t18 31.5q0 19 -29 29.5t-103 14.5t-208 4q-100 0 -172.5 9.5t-119 30t-68.5 52t-22 75.5q0 76 51.5 125.5t156 74t261.5 24.5q230 0 351.5 -66.5t121.5 -191.5h-259q-5 33 -62 50.5t-162 17.5
q-104 0 -154.5 -12t-50.5 -41q0 -15 14 -24t48.5 -14.5t97.5 -7.5t160 -2q107 0 182 -10.5t121.5 -31.5t67.5 -53.5t21 -76.5q0 -76 -48 -124t-152 -71t-272 -23q-95 0 -174.5 11t-141.5 32.5t-105 53t-65.5 71t-22.5 87.5zM449 -298l-14 62q29 7 50 18.5t24 25.5l-88 11
v117h253v-77q0 -58 -56.5 -101.5t-168.5 -55.5v0z" />
    <glyph glyph-name="uni0219" unicode="&#x219;" horiz-adv-x="842" 
d="M40 176h221q14 -26 53.5 -36t113.5 -10q57 0 84.5 6t36 16t8.5 21q0 17 -18.5 23.5t-62.5 8t-121 1.5q-73 0 -130.5 6.5t-97.5 21t-61 40.5t-21 65q0 48 31 80.5t84 51t122.5 26.5t145.5 8q126 0 206 -25.5t118 -68.5t37 -97h-215q-11 26 -41.5 36t-104.5 10
q-70 0 -101.5 -10.5t-31.5 -33.5q0 -15 15.5 -22.5t59 -10.5t127.5 -3q58 0 113.5 -4t100 -17t70.5 -40t26 -74q0 -57 -46.5 -92.5t-131.5 -51.5t-201 -16q-101 0 -170.5 13t-113.5 34.5t-67.5 47t-31 51t-5.5 45.5zM353 -293l-14 62q29 7 50 18.5t24 25.5l-88 11v117h253
v-77q0 -58 -56.5 -101.5t-168.5 -55.5v0z" />
    <glyph glyph-name="uni021A" unicode="&#x21a;" horiz-adv-x="1100" 
d="M30 640h1040v-190h-1040v190zM425 463h250v-463h-250v463zM454 -283l-14 62q29 7 50 18.5t24 25.5l-88 11v117h253v-77q0 -58 -56.5 -101.5t-168.5 -55.5v0z" />
    <glyph glyph-name="uni021B" unicode="&#x21b;" horiz-adv-x="628" 
d="M20 490h588v-150h-588v150zM194 640h240v-640h-240v640zM218 -283l-14 62q29 7 50 18.5t24 25.5l-88 11v117h253v-77q0 -58 -56.5 -101.5t-168.5 -55.5v0z" />
    <glyph glyph-name="uni022E" unicode="&#x22e;" horiz-adv-x="1330" 
d="M665 -20q-218 0 -351 38.5t-193.5 114t-60.5 187.5t60.5 187.5t193.5 114t351 38.5t351 -38.5t193.5 -114t60.5 -187.5t-60.5 -187.5t-193.5 -114t-351 -38.5zM665 170q103 0 178 12.5t116 45t41 92.5t-41 92.5t-116 45t-178 12.5t-180.5 -12.5t-121 -45t-43.5 -92.5
t43.5 -92.5t121 -45t180.5 -12.5zM792 853v-150h-254v150h254z" />
    <glyph glyph-name="circumflex" unicode="&#x2c6;" horiz-adv-x="924" 
d="M602 752l222 -150h-242l-214 123l188 -1l-215 -122h-241l222 150h280z" />
    <glyph glyph-name="caron" unicode="&#x2c7;" horiz-adv-x="924" 
d="M556 630l-188 -1l214 123h242l-222 -150h-280l-222 150h241z" />
    <glyph glyph-name="breve" unicode="&#x2d8;" horiz-adv-x="1010" 
d="M880 730q-20 -40 -65 -72.5t-121 -52t-189 -19.5t-189 19.5t-121 52t-65 72.5h150q22 -14 75 -29t150 -15t149.5 15t75.5 29h150z" />
    <glyph glyph-name="dotaccent" unicode="&#x2d9;" horiz-adv-x="304" 
d="M274 753v-150h-254v150h254z" />
    <glyph glyph-name="ring" unicode="&#x2da;" horiz-adv-x="538" 
d="M269 577q-86 0 -127.5 30.5t-41.5 81.5q0 50 41.5 80.5t127.5 30.5q85 0 127 -30.5t42 -80.5q0 -51 -42 -81.5t-127 -30.5zM269 642q40 0 56.5 10t16.5 37q0 26 -16.5 36t-56.5 10q-41 0 -57.5 -10t-16.5 -36q0 -27 16.5 -37t57.5 -10z" />
    <glyph glyph-name="ogonek" unicode="&#x2db;" horiz-adv-x="549" 
d="M449 -240q-163 0 -256 36t-93 99q0 47 40 72.5t109.5 37.5t158.5 17v-22q-63 -7 -95.5 -19.5t-32.5 -45.5q0 -27 23.5 -44t62 -25t83.5 -8v-98z" />
    <glyph glyph-name="tilde" unicode="&#x2dc;" horiz-adv-x="937" 
d="M602 595q-39 0 -71.5 8.5t-61.5 19t-58 19t-61 8.5q-24 0 -41 -6t-30.5 -17t-28.5 -27h-150q19 38 50.5 72t77.5 56t107 22q40 0 71.5 -8.5t59.5 -19t55.5 -19t59.5 -8.5q28 0 47 7t33 18.5t26 24.5h150q-18 -37 -50 -71.5t-77.5 -56.5t-107.5 -22z" />
    <glyph glyph-name="hungarumlaut" unicode="&#x2dd;" horiz-adv-x="832" 
d="M374 602l154 150h204l-187 -150h-171zM100 602l135 150h203l-167 -150h-171z" />
    <glyph glyph-name="gravecomb" unicode="&#x300;" 
d="M381 602l-281 150h320l202 -150h-241z" />
    <glyph glyph-name="acutecomb" unicode="&#x301;" 
d="M100 602l202 150h320l-281 -150h-241z" />
    <glyph glyph-name="uni0302" unicode="&#x302;" 
d="M602 752l222 -150h-242l-214 123l188 -1l-215 -122h-241l222 150h280z" />
    <glyph glyph-name="tildecomb" unicode="&#x303;" 
d="M602 595q-39 0 -71.5 8.5t-61.5 19t-58 19t-61 8.5q-24 0 -41 -6t-30.5 -17t-28.5 -27h-150q19 38 50.5 72t77.5 56t107 22q40 0 71.5 -8.5t59.5 -19t55.5 -19t59.5 -8.5q28 0 47 7t33 18.5t26 24.5h150q-18 -37 -50 -71.5t-77.5 -56.5t-107.5 -22z" />
    <glyph glyph-name="uni0304" unicode="&#x304;" 
d="M100 603v99h454v-99h-454z" />
    <glyph glyph-name="uni0306" unicode="&#x306;" 
d="M880 730q-20 -40 -65 -72.5t-121 -52t-189 -19.5t-189 19.5t-121 52t-65 72.5h150q22 -14 75 -29t150 -15t149.5 15t75.5 29h150z" />
    <glyph glyph-name="uni0307" unicode="&#x307;" 
d="M274 753v-150h-254v150h254z" />
    <glyph glyph-name="uni0308" unicode="&#x308;" 
d="M291 753v-151h-254v151h254zM595 753v-151h-254v151h254z" />
    <glyph glyph-name="uni030A" unicode="&#x30a;" 
d="M269 577q-86 0 -127.5 30.5t-41.5 81.5q0 50 41.5 80.5t127.5 30.5q85 0 127 -30.5t42 -80.5q0 -51 -42 -81.5t-127 -30.5zM269 642q40 0 56.5 10t16.5 37q0 26 -16.5 36t-56.5 10q-41 0 -57.5 -10t-16.5 -36q0 -27 16.5 -37t57.5 -10z" />
    <glyph glyph-name="uni030B" unicode="&#x30b;" 
d="M374 602l154 150h204l-187 -150h-171zM100 602l135 150h203l-167 -150h-171z" />
    <glyph glyph-name="uni030C" unicode="&#x30c;" 
d="M556 630l-188 -1l214 123h242l-222 -150h-280l-222 150h241z" />
    <glyph glyph-name="uni0312" unicode="&#x312;" 
d="M548 793l13 -62q-22 -5 -46 -17t-27 -27l88 -11v-117h-253v77q0 54 53.5 99t171.5 58z" />
    <glyph glyph-name="uni0326" unicode="&#x326;" 
d="M56 -283l-14 62q29 7 50 18.5t24 25.5l-88 11v117h253v-77q0 -58 -56.5 -101.5t-168.5 -55.5v0z" />
    <glyph glyph-name="uni0327" unicode="&#x327;" 
d="M477 19v-170l-100 123q47 -7 91.5 -13.5t79.5 -17.5t55.5 -29.5t20.5 -49.5q0 -55 -68.5 -88.5t-195.5 -33.5q-82 0 -138.5 21.5t-86.5 56.5t-35 73h174l10.5 -10.5t24 -14t45.5 -6.5t43.5 7.5t14.5 20.5q0 8 -6 16.5t-28 16.5t-71 14v84h170z" />
    <glyph glyph-name="uni0328" unicode="&#x328;" 
d="M449 -240q-163 0 -256 36t-93 99q0 47 40 72.5t109.5 37.5t158.5 17v-22q-63 -7 -95.5 -19.5t-32.5 -45.5q0 -27 23.5 -44t62 -25t83.5 -8v-98z" />
    <glyph glyph-name="uni0335" unicode="&#x335;" 
d="M20 419h490v-65h-490v65z" />
    <glyph glyph-name="uni0336" unicode="&#x336;" 
d="M20 424h400v-60h-400v60z" />
    <glyph glyph-name="uni0337" unicode="&#x337;" 
d="M428 564l37 -53l-410 -280l-35 53z" />
    <glyph glyph-name="uni0338" unicode="&#x338;" 
d="M453 765l54 -30l-435 -785l-52 32z" />
    <glyph glyph-name="uni037E" unicode="&#x37e;" horiz-adv-x="354" 
d="M304 479v-151h-254v151h254zM79 -127l-14 62q16 8 33.5 35.5t20.5 58.5l-68 11v153h253v-93q0 -91 -53 -152t-172 -75z" />
    <glyph glyph-name="tonos" unicode="&#x384;" horiz-adv-x="692" 
d="M100 600l202 150h320l-281 -150h-241z" />
    <glyph glyph-name="dieresistonos" unicode="&#x385;" horiz-adv-x="1048" 
d="M254 690v-151h-254v151h254zM1048 690v-151h-254v151h254zM263 539l202 151h320l-281 -151h-241z" />
    <glyph glyph-name="Alphatonos" unicode="&#x386;" horiz-adv-x="1342" 
d="M416 97v150h684v-150h-684zM192 0l429 640h278l433 -640h-275l-371 573h149l-368 -573h-275zM0 490l202 150h320l-281 -150h-241z" />
    <glyph glyph-name="anoteleia" unicode="&#x387;" horiz-adv-x="354" 
d="M304 490v-151h-254v151h254z" />
    <glyph glyph-name="Epsilontonos" unicode="&#x388;" horiz-adv-x="1632" 
d="M812 270v-80h760v-190h-1010v640h1008v-190h-758v-80h620v-100h-620zM0 490l202 150h320l-281 -150h-241z" />
    <glyph glyph-name="Etatonos" unicode="&#x389;" horiz-adv-x="1772" 
d="M776 419h704v-190h-704v190zM1452 640h250v-640h-250v640zM562 640h250v-640h-250v640zM0 490l202 150h320l-281 -150h-241z" />
    <glyph glyph-name="Iotatonos" unicode="&#x38a;" horiz-adv-x="912" 
d="M577 640h250v-640h-250v640zM0 490l202 150h320l-281 -150h-241z" />
    <glyph glyph-name="Omicrontonos" unicode="&#x38c;" horiz-adv-x="1727" 
d="M1062 -20q-218 0 -351 38.5t-193.5 114t-60.5 187.5t60.5 187.5t193.5 114t351 38.5t351 -38.5t193.5 -114t60.5 -187.5t-60.5 -187.5t-193.5 -114t-351 -38.5zM1062 170q103 0 178 12.5t116 45t41 92.5t-41 92.5t-116 45t-178 12.5t-180.5 -12.5t-121 -45t-43.5 -92.5
t43.5 -92.5t121 -45t180.5 -12.5zM0 490l202 150h320l-281 -150h-241z" />
    <glyph glyph-name="Upsilontonos" unicode="&#x38e;" horiz-adv-x="1592" 
d="M1587 640l-405 -477v-163h-250v163l-405 477h295l329 -415h-185l326 415h295zM0 490l202 150h320l-281 -150h-241z" />
    <glyph glyph-name="Omegatonos" unicode="&#x38f;" horiz-adv-x="1612" 
d="M382 0v190h319v10q-60 3 -115 15t-99 36t-69.5 61.5t-25.5 90.5q0 66 41.5 114.5t118.5 80t186 47t244 15.5t244 -15.5t186 -47t118.5 -80t41.5 -114.5q0 -53 -27 -90.5t-71.5 -61.5t-100 -36t-112.5 -15v-10h329v-190h-510v200q72 13 126.5 27t85 38t30.5 66
q0 47 -32 77.5t-106.5 46t-201.5 15.5t-201.5 -15.5t-106.5 -46t-32 -77.5q0 -43 31.5 -68t88 -38.5t130.5 -24.5v-200h-510zM0 490l202 150h320l-281 -150h-241z" />
    <glyph glyph-name="iotadieresistonos" unicode="&#x390;" horiz-adv-x="415" 
d="M375 0q-123 -15 -195.5 4t-103.5 62.5t-31 103.5v320h240v-260q0 -39 24 -53t66 -7v-170zM-39 753v-151h-254v151h254zM755 753v-151h-254v151h254zM-30 602l202 151h320l-281 -151h-241z" />
    <glyph glyph-name="Alpha" unicode="&#x391;" horiz-adv-x="1160" 
d="M234 97v150h684v-150h-684zM10 0l429 640h278l433 -640h-275l-371 573h149l-368 -573h-275z" />
    <glyph glyph-name="Beta" unicode="&#x392;" horiz-adv-x="1140" 
d="M70 0v640h630q194 0 286 -38t92 -132q0 -60 -39.5 -92t-113 -44.5t-176.5 -15.5l8 8q75 0 139 -4t112 -18t75 -43t27 -80q0 -62 -44 -102t-125 -59.5t-191 -19.5h-680zM320 188h430q53 0 76.5 10t23.5 32q0 15 -10.5 24t-32.5 13.5t-57 4.5h-430v-84zM320 368h388
q53 0 76.5 10t23.5 32q0 23 -23.5 32.5t-76.5 9.5h-388v-84z" />
    <glyph glyph-name="Gamma" unicode="&#x393;" horiz-adv-x="948" 
d="M284 640h654v-190h-654v190zM70 640h250v-640h-250v640z" />
    <glyph glyph-name="uni0394" unicode="&#x394;" horiz-adv-x="1160" 
d="M234 0v150h684v-150h-684zM10 0l429 640h278l433 -640h-275l-371 573h149l-368 -573h-275z" />
    <glyph glyph-name="Epsilon" unicode="&#x395;" horiz-adv-x="1140" 
d="M320 270v-80h760v-190h-1010v640h1008v-190h-758v-80h620v-100h-620z" />
    <glyph glyph-name="Zeta" unicode="&#x396;" horiz-adv-x="1120" 
d="M70 640h980v-190l-648 -301l-8 41h656v-190h-980v190l651 301l8 -41h-659v190z" />
    <glyph glyph-name="Eta" unicode="&#x397;" horiz-adv-x="1280" 
d="M284 419h704v-190h-704v190zM960 640h250v-640h-250v640zM70 640h250v-640h-250v640z" />
    <glyph glyph-name="Theta" unicode="&#x398;" horiz-adv-x="1330" 
d="M665 -20q-218 0 -351 38.5t-193.5 114t-60.5 187.5t60.5 187.5t193.5 114t351 38.5t351 -38.5t193.5 -114t60.5 -187.5t-60.5 -187.5t-193.5 -114t-351 -38.5zM665 170q103 0 178 12.5t116 45t41 92.5t-41 92.5t-116 45t-178 12.5t-180.5 -12.5t-121 -45t-43.5 -92.5
t43.5 -92.5t121 -45t180.5 -12.5zM380 370h560v-100h-560v100z" />
    <glyph glyph-name="Iota" unicode="&#x399;" horiz-adv-x="420" 
d="M85 640h250v-640h-250v640z" />
    <glyph glyph-name="Kappa" unicode="&#x39a;" horiz-adv-x="1215" 
d="M603 315v56l577 -371h-372l-490 340l452 300h356zM70 640h250v-640h-250v640z" />
    <glyph glyph-name="Lambda" unicode="&#x39b;" horiz-adv-x="1160" 
d="M10 0l429 640h278l433 -640h-275l-371 573h149l-368 -573h-275z" />
    <glyph glyph-name="Mu" unicode="&#x39c;" horiz-adv-x="1580" 
d="M864 76h-150l546 564h250v-640h-250v436l75 -31l-395 -405h-300l-396 404l76 31v-435h-250v640h250z" />
    <glyph glyph-name="Nu" unicode="&#x39d;" horiz-adv-x="1300" 
d="M1073 196l-93 -53v497h250v-640h-250l-753 436l93 54v-490h-250v640h250z" />
    <glyph glyph-name="Xi" unicode="&#x39e;" horiz-adv-x="1130" 
d="M60 640h1008v-190h-1008v190zM60 190h1010v-190h-1010v190zM198 370h732v-100h-732v100z" />
    <glyph glyph-name="Omicron" unicode="&#x39f;" horiz-adv-x="1330" 
d="M665 -20q-218 0 -351 38.5t-193.5 114t-60.5 187.5t60.5 187.5t193.5 114t351 38.5t351 -38.5t193.5 -114t60.5 -187.5t-60.5 -187.5t-193.5 -114t-351 -38.5zM665 170q103 0 178 12.5t116 45t41 92.5t-41 92.5t-116 45t-178 12.5t-180.5 -12.5t-121 -45t-43.5 -92.5
t43.5 -92.5t121 -45t180.5 -12.5z" />
    <glyph glyph-name="Pi" unicode="&#x3a0;" horiz-adv-x="1280" 
d="M284 640h704v-190h-704v190zM960 640h250v-640h-250v640zM70 640h250v-640h-250v640z" />
    <glyph glyph-name="Rho" unicode="&#x3a1;" horiz-adv-x="1177" 
d="M302 165v175h499q30 0 50.5 9.5t20.5 40.5q0 32 -20.5 41t-50.5 9h-483v-440h-250v640h694q75 0 140.5 -10.5t114.5 -37.5t77 -76t28 -126t-28 -122t-77 -67t-114.5 -29t-140.5 -7h-460z" />
    <glyph glyph-name="Sigma" unicode="&#x3a3;" horiz-adv-x="1126" 
d="M80 640h956v-190h-820l-81 126l519 -254l-513 -265l75 133h830v-190h-966v190l345 170l-40 -61l-305 151v190z" />
    <glyph glyph-name="Tau" unicode="&#x3a4;" horiz-adv-x="1100" 
d="M30 640h1040v-190h-1040v190zM425 463h250v-463h-250v463z" />
    <glyph glyph-name="Upsilon" unicode="&#x3a5;" horiz-adv-x="1070" 
d="M1065 640l-405 -477v-163h-250v163l-405 477h295l329 -415h-185l326 415h295z" />
    <glyph glyph-name="Phi" unicode="&#x3a6;" horiz-adv-x="1370" 
d="M685 70q-178 0 -298.5 10.5t-192.5 38t-103 76.5t-31 125q0 77 31 125.5t103 76t192.5 38t298.5 10.5q179 0 299 -10.5t192 -38t103 -76t31 -125.5q0 -76 -31 -125t-103 -76.5t-192 -38t-299 -10.5zM685 260q123 0 201.5 2.5t116 15t37.5 42.5t-37.5 42.5t-116 15
t-201.5 2.5t-204 -2.5t-121 -15t-40 -42.5t40 -42.5t121 -15t204 -2.5zM560 640h250v-640h-250v640z" />
    <glyph glyph-name="Chi" unicode="&#x3a7;" horiz-adv-x="1140" 
d="M780 640h320l-450 -380l-10 -8l-290 -252h-320l470 394l7 6zM360 640l281 -247l6 -6l463 -387h-320l-302 261l-4 4l-444 375h320z" />
    <glyph glyph-name="Psi" unicode="&#x3a8;" horiz-adv-x="1332" 
d="M1271 463q0 -88 -33.5 -146t-105.5 -92t-187 -48t-279 -14q-163 0 -278.5 14t-187.5 48t-105.5 92t-33.5 146v177h250v-177q0 -49 26 -72.5t74 -31t113 -7t142 0.5t142 -0.5t112.5 7t74 31t26.5 72.5v177h250v-177zM541 640h250v-640h-250v640z" />
    <glyph glyph-name="uni03A9" unicode="&#x3a9;" horiz-adv-x="1260" 
d="M30 0v190h319v10q-60 3 -115 15t-99 36t-69.5 61.5t-25.5 90.5q0 66 41.5 114.5t118.5 80t186 47t244 15.5t244 -15.5t186 -47t118.5 -80t41.5 -114.5q0 -53 -27 -90.5t-71.5 -61.5t-100 -36t-112.5 -15v-10h329v-190h-510v200q72 13 126.5 27t85 38t30.5 66
q0 47 -32 77.5t-106.5 46t-201.5 15.5t-201.5 -15.5t-106.5 -46t-32 -77.5q0 -43 31.5 -68t88 -38.5t130.5 -24.5v-200h-510z" />
    <glyph glyph-name="Iotadieresis" unicode="&#x3aa;" horiz-adv-x="420" 
d="M85 640h250v-640h-250v640zM185 843v-151h-254v151h254zM489 843v-151h-254v151h254z" />
    <glyph glyph-name="Upsilondieresis" unicode="&#x3ab;" horiz-adv-x="1070" 
d="M1065 640l-405 -477v-163h-250v163l-405 477h295l329 -415h-185l326 415h295zM510 843v-151h-254v151h254zM814 843v-151h-254v151h254z" />
    <glyph glyph-name="alphatonos" unicode="&#x3ac;" horiz-adv-x="1063" 
d="M408 -14q-108 0 -192 30.5t-132.5 88.5t-48.5 140q0 86 48.5 144t132.5 87t192 29q120 0 207.5 -32.5t135 -91t47.5 -136.5q0 -58 -27 -105.5t-78 -82t-123 -53t-162 -18.5zM498 138q76 0 139.5 9.5t102 32.5t38.5 65q0 43 -38.5 66t-102 32t-139.5 9q-102 0 -158 -26.5
t-56 -80.5q0 -35 25 -59t73 -36t116 -12zM778 490h240v-490h-226q-1 4 -4.5 27t-6.5 64t-3 99v300zM341 600l202 150h320l-281 -150h-241z" />
    <glyph glyph-name="epsilontonos" unicode="&#x3ad;" horiz-adv-x="997" 
d="M513 -15q-142 0 -247 12t-163 43.5t-58 87.5q0 36 22.5 58t59 35t81.5 19t90 9q-41 0 -84 3t-79.5 12t-58.5 28t-22 52q0 52 55 88t157.5 54.5t246.5 18.5q150 0 243.5 -26.5t143.5 -73t71 -107.5h-220q-16 21 -49 34.5t-81 20.5t-108 7q-97 0 -150 -12t-53 -39
q0 -14 15.5 -20t43 -7t63.5 -1h231v-64h-231q-36 0 -64.5 -1t-45.5 -8.5t-17 -25.5q0 -19 28 -30.5t75 -16.5t105 -5q60 0 108 7t81.5 21t49.5 35h220q-15 -46 -45.5 -84.5t-83 -66t-133.5 -42.5t-197 -15zM374 602l202 150h320l-281 -150h-241z" />
    <glyph glyph-name="etatonos" unicode="&#x3ae;" horiz-adv-x="998" 
d="M45 490h240v-490h-240v490zM645 505q59 0 114 -12.5t98.5 -42.5t69.5 -82t26 -131v-437h-240v407q0 75 -39 106.5t-141 31.5q-54 0 -104.5 -12t-90.5 -28.5t-63 -32.5l-2 38q4 18 27.5 50.5t68.5 65.5t113.5 56t162.5 23zM412 602l202 150h320l-281 -150h-241z" />
    <glyph glyph-name="iotatonos" unicode="&#x3af;" horiz-adv-x="415" 
d="M375 0q-123 -15 -195.5 4t-103.5 62.5t-31 103.5v320h240v-260q0 -39 24 -53t66 -7v-170zM28 602l202 150h320l-281 -150h-241z" />
    <glyph glyph-name="upsilondieresistonos" unicode="&#x3b0;" horiz-adv-x="996" 
d="M951 490h-245v-226q0 -65 -48 -99.5t-158 -34.5q-113 0 -161.5 34.5t-48.5 99.5v226h-245v-226q0 -147 108.5 -213t346.5 -66q158 0 257.5 29t146.5 90.5t47 159.5v226zM227 753v-151h-254v151h254zM1021 753v-151h-254v151h254zM236 602l202 151h320l-281 -151h-241z
" />
    <glyph glyph-name="alpha" unicode="&#x3b1;" horiz-adv-x="1063" 
d="M408 -14q-108 0 -192 30.5t-132.5 88.5t-48.5 140q0 86 48.5 144t132.5 87t192 29q120 0 207.5 -32.5t135 -91t47.5 -136.5q0 -58 -27 -105.5t-78 -82t-123 -53t-162 -18.5zM498 138q76 0 139.5 9.5t102 32.5t38.5 65q0 43 -38.5 66t-102 32t-139.5 9q-102 0 -158 -26.5
t-56 -80.5q0 -35 25 -59t73 -36t116 -12zM778 490h240v-490h-226q-1 4 -4.5 27t-6.5 64t-3 99v300z" />
    <glyph glyph-name="beta" unicode="&#x3b2;" horiz-adv-x="1063" 
d="M1017 190q0 -76 -45.5 -121t-127 -64.5t-189.5 -19.5q-90 0 -162 18.5t-123 53t-78 82.5t-27 106l-220 -50v191q0 122 48.5 191.5t152.5 98.5t270 29q230 0 346 -49t116 -150q0 -44 -20.5 -77t-69.5 -52.5t-134 -20.5q90 -3 148 -22t86.5 -55.5t28.5 -88.5zM600 383
q53 0 91 14.5t38 58.5q0 41 -23 61.5t-70.5 28t-120.5 7.5q-46 0 -87.5 -3t-73.5 -15.5t-50.5 -40.5t-18.5 -78v-171q0 -42 38.5 -65.5t102 -32.5t139.5 -9q110 0 162 21.5t52 75.5q0 32 -20 50.5t-54 25.5t-75 7h-231v65h201zM45 205l208 47h32v-452h-240v405z" />
    <glyph glyph-name="gamma" unicode="&#x3b3;" horiz-adv-x="918" 
d="M331 50h240v-250h-240v250zM510 90l-114 2l252 398h265l-349 -490h-226l-333 490h264z" />
    <glyph glyph-name="delta" unicode="&#x3b4;" horiz-adv-x="1034" 
d="M498 -15q-148 0 -251.5 25.5t-157.5 78.5t-54 135q0 76 47.5 125t128 72.5t177.5 23.5q67 0 133.5 -12.5t125 -35.5t101 -54.5t61.5 -68.5l-14 16q-13 53 -68 95.5t-141.5 74.5t-194.5 52.5t-228 27.5l113 30q193 0 329 -29t220.5 -77t124 -106t39.5 -115q0 -61 -28 -105
t-76.5 -73.5t-111 -47t-133.5 -25t-142 -7.5zM518 138q88 0 146 8.5t86.5 27t28.5 47.5q0 30 -27.5 47.5t-70 25.5t-89 10.5t-84.5 2.5q-68 0 -118.5 -6.5t-78 -24.5t-27.5 -52q0 -37 28 -55.5t80.5 -24.5t125.5 -6zM940 690v-150h-780v150h780z" />
    <glyph glyph-name="epsilon" unicode="&#x3b5;" horiz-adv-x="997" 
d="M513 -15q-142 0 -247 12t-163 43.5t-58 87.5q0 36 22.5 58t59 35t81.5 19t90 9q-41 0 -84 3t-79.5 12t-58.5 28t-22 52q0 52 55 88t157.5 54.5t246.5 18.5q150 0 243.5 -26.5t143.5 -73t71 -107.5h-220q-16 21 -49 34.5t-81 20.5t-108 7q-97 0 -150 -12t-53 -39
q0 -14 15.5 -20t43 -7t63.5 -1h231v-64h-231q-36 0 -64.5 -1t-45.5 -8.5t-17 -25.5q0 -19 28 -30.5t75 -16.5t105 -5q60 0 108 7t81.5 21t49.5 35h220q-15 -46 -45.5 -84.5t-83 -66t-133.5 -42.5t-197 -15z" />
    <glyph glyph-name="zeta" unicode="&#x3b6;" horiz-adv-x="820" 
d="M830 540q-160 -30 -265 -63.5t-165 -70t-85 -77t-25 -85.5q0 -44 20.5 -67.5t55.5 -34t78.5 -14t89.5 -7t89.5 -13.5t78.5 -32.5t56 -64t21 -109.5v-102h-240v102q0 34 -21 51.5t-56 25t-79 10t-91 7t-91 16t-79 35.5t-56 67t-21 110q0 65 31.5 114.5t86 85.5t124 60.5
t146.5 40.5t153.5 25.5t143.5 14.5zM830 690v-150h-730v150h730z" />
    <glyph glyph-name="eta" unicode="&#x3b7;" horiz-adv-x="998" 
d="M45 490h240v-490h-240v490zM645 505q59 0 114 -12.5t98.5 -42.5t69.5 -82t26 -131v-437h-240v407q0 75 -39 106.5t-141 31.5q-54 0 -104.5 -12t-90.5 -28.5t-63 -32.5l-2 38q4 18 27.5 50.5t68.5 65.5t113.5 56t162.5 23z" />
    <glyph glyph-name="theta" unicode="&#x3b8;" horiz-adv-x="1080" 
d="M545 -20q-168 0 -279 44.5t-166 126.5t-55 194t55 194t166 126.5t279 44.5t276.5 -44.5t161 -126.5t52.5 -194t-52.5 -194t-161 -126.5t-276.5 -44.5zM545 125q81 0 130 17.5t73.5 47.5t33 70t8.5 85t-8.5 85t-33 70t-73.5 47.5t-130 17.5t-131.5 -17.5t-77 -47.5
t-36.5 -70t-10 -85t10 -85t36.5 -70t77 -47.5t131.5 -17.5zM265 395h550v-100h-550v100z" />
    <glyph glyph-name="iota" unicode="&#x3b9;" horiz-adv-x="415" 
d="M375 0q-123 -15 -195.5 4t-103.5 62.5t-31 103.5v320h240v-260q0 -39 24 -53t66 -7v-170z" />
    <glyph glyph-name="kappa" unicode="&#x3ba;" horiz-adv-x="932" 
d="M45 490h240v-490h-240v490zM893 490l-396 -275l5 130l425 -345h-304l-334 279l286 211h318z" />
    <glyph glyph-name="lambda" unicode="&#x3bb;" horiz-adv-x="918" 
d="M383 400h134l-247 -400h-265l349 490h226l333 -490h-265zM315 690q68 0 108.5 -23.5t72.5 -66.5l84 -110l-209 -62l-47 72q-11 17 -27.5 28.5t-50.5 11.5h-131v150h200z" />
    <glyph glyph-name="uni03BC" unicode="&#x3bc;" horiz-adv-x="1063" 
d="M1043 0q-123 0 -195.5 19.5t-103.5 57.5t-31 93v320h240v-240q0 -26 11 -39t31 -17t48 -4v-190zM723 253l2 -48q-3 -21 -13 -49t-29 -58t-48.5 -55.5t-72 -41.5t-99.5 -16q-87 0 -137 36t-68 113l27 39v-373h-240v690h240v-187q0 -65 25.5 -99t68.5 -46.5t96 -12.5
q59 0 108 17.5t85 42.5t55 48z" />
    <glyph glyph-name="nu" unicode="&#x3bd;" horiz-adv-x="918" 
d="M510 90l-114 2l252 398h265l-349 -490h-226l-333 490h264z" />
    <glyph glyph-name="xi" unicode="&#x3be;" horiz-adv-x="790" 
d="M45 169q0 47 24 76.5t62.5 47t85 25.5t91.5 11q-41 0 -84 1.5t-79.5 9.5t-58.5 28t-22 56q0 33 28.5 54t77.5 33.5t111.5 18.5t132 8.5t138 4t128.5 5.5l110 -8q-121 -14 -204 -24t-135.5 -19t-81 -19t-39 -24t-10.5 -35q0 -19 10.5 -32t33 -19.5t58.5 -6.5h251v-64h-251
q-45 0 -74 -8t-43.5 -25t-14.5 -45q0 -32 20.5 -49t55.5 -24.5t78.5 -10.5t89.5 -7.5t89.5 -16t78.5 -35.5t56 -66t21 -108v-102h-240v102q0 38 -27 57.5t-71 27.5t-96.5 12t-105 11t-96.5 23t-71 48t-27 88zM790 690v-150h-720v150h720z" />
    <glyph glyph-name="omicron" unicode="&#x3bf;" horiz-adv-x="1016" 
d="M510 -15q-159 0 -264.5 26t-158 83t-52.5 150t52.5 150.5t158 84t264.5 26.5q158 0 262.5 -26.5t156.5 -84t52 -150.5t-52 -150t-156.5 -83t-262.5 -26zM510 130q74 0 124 12.5t76 38t26 63.5t-25.5 64t-75.5 39t-125 13q-74 0 -125.5 -13t-78 -38.5t-26.5 -64.5
q0 -38 26 -63.5t77.5 -38t126.5 -12.5z" />
    <glyph glyph-name="pi" unicode="&#x3c0;" horiz-adv-x="1140" 
d="M220 380h240v-380h-240v380zM1090 490v-150h-1040v150h1040zM920 239q0 -33 16 -52t53 -23t101 6v-170q-131 -15 -210.5 -6.5t-120.5 37.5t-55 77t-14 111v161h230v-141z" />
    <glyph glyph-name="rho" unicode="&#x3c1;" horiz-adv-x="1063" 
d="M655 -15q-90 0 -162 18.5t-123 53t-78 82.5t-27 106l-220 -50q0 107 54.5 175.5t170 101t296.5 32.5q148 0 251 -30.5t157 -88.5t54 -140q0 -86 -48 -144t-132.5 -87t-192.5 -29zM565 138q68 0 116 12t73 35.5t25 59.5q0 53 -56 80t-158 27q-76 0 -139.5 -9t-102 -32.5
t-38.5 -65.5t38.5 -65.5t102 -32.5t139.5 -9zM45 195l208 57l32 -7v-445h-240v395z" />
    <glyph glyph-name="uni03C2" unicode="&#x3c2;" horiz-adv-x="994" 
d="M280 244q0 -44 24.5 -67.5t65.5 -34t92.5 -14t106.5 -7t106.5 -13.5t93 -32.5t66 -64t24.5 -109.5v-102h-240v102q0 34 -24.5 51t-66.5 24t-94 10t-107 7.5t-107 17.5t-94 39.5t-66.5 73t-24.5 119.5q0 95 56.5 152.5t165 83t263.5 25.5t251 -27t141 -78t46 -122h-220
q-16 39 -72 60.5t-146 21.5q-73 0 -127 -10.5t-83.5 -35.5t-29.5 -70z" />
    <glyph glyph-name="sigma" unicode="&#x3c3;" horiz-adv-x="1016" 
d="M510 -15q-159 0 -264.5 26t-158 83t-52.5 150t52.5 146.5t158 76.5t264.5 23v-135q27 0 72.5 -1.5t98.5 -6.5t106 -16t97 -30t70.5 -47.5t26.5 -68.5q0 -54 -52 -99.5t-156.5 -73t-262.5 -27.5zM510 130q74 0 124 12.5t76 38t26 63.5q0 33 -25.5 54.5t-75.5 31.5t-125 10
q-74 0 -125.5 -8t-78 -28.5t-26.5 -59.5q0 -38 26 -63.5t77.5 -38t126.5 -12.5zM1016 490v-150h-506v150h506z" />
    <glyph glyph-name="tau" unicode="&#x3c4;" horiz-adv-x="650" 
d="M600 490v-150h-550v150h550zM430 239q0 -33 16 -52t53 -23t101 6v-170q-131 -15 -210.5 -6.5t-120.5 37.5t-55 77t-14 111v161h230v-141z" />
    <glyph glyph-name="upsilon" unicode="&#x3c5;" horiz-adv-x="996" 
d="M951 490h-245v-226q0 -65 -48 -99.5t-158 -34.5q-113 0 -161.5 34.5t-48.5 99.5v226h-245v-226q0 -147 108.5 -213t346.5 -66q158 0 257.5 29t146.5 90.5t47 159.5v226z" />
    <glyph glyph-name="phi" unicode="&#x3c6;" horiz-adv-x="1236" 
d="M1201 245q0 76 -32 125t-88.5 76.5t-130 40t-158 15.5t-172.5 3q-87 0 -172 -3t-159.5 -15.5t-131.5 -40t-89.5 -76.5t-32.5 -125t32.5 -125t89.5 -76.5t131.5 -40t159 -15.5t172.5 -3t172.5 3t158.5 15.5t130 40t88 76.5t32 125zM281 245q0 47 31 71.5t104.5 34
t203.5 9.5q128 0 201 -9.5t103.5 -34t30.5 -71.5t-30.5 -71.5t-103.5 -34t-201 -9.5q-130 0 -203.5 9.5t-104.5 34t-31 71.5zM738 -200v890h-240v-890h240z" />
    <glyph glyph-name="chi" unicode="&#x3c7;" horiz-adv-x="980" 
d="M950 490l-390 -388l-266 -302h-284l396 400l260 290h284zM10 490h284l272 -283l404 -407h-284l-283 291z" />
    <glyph glyph-name="psi" unicode="&#x3c8;" horiz-adv-x="1176" 
d="M1131 490h-245v-196q0 -58 -24.5 -94.5t-88.5 -53t-183 -16.5q-120 0 -185 16.5t-90 53t-25 94.5v196h-245v-196q0 -85 28 -144t91.5 -95.5t168 -53t257.5 -16.5q152 0 256 16.5t166.5 53t90.5 95.5t28 144v196zM708 -200v690h-240v-690h240z" />
    <glyph glyph-name="omega" unicode="&#x3c9;" horiz-adv-x="1477" 
d="M1047 -15q-118 0 -188.5 29t-101.5 90.5t-31 159.5v76h135v-76q0 -43 15 -73t51.5 -45.5t99.5 -15.5q66 0 103 15t52 41t15 59q0 34 -16 59.5t-57 40.5t-117 15v145q159 0 254.5 -28.5t138 -86t42.5 -145.5t-41 -145.5t-128 -86t-226 -28.5zM430 -15q-139 0 -226 28.5
t-128 86t-41 145.5t42.5 145.5t138 86t254.5 28.5v-145q-75 0 -116.5 -15t-57.5 -40.5t-16 -59.5q0 -33 15 -59t52.5 -41t102.5 -15q64 0 100 15.5t51 45.5t15 73v76h135v-76q0 -98 -31 -159.5t-101.5 -90.5t-188.5 -29z" />
    <glyph glyph-name="iotadieresis" unicode="&#x3ca;" horiz-adv-x="415" 
d="M375 0q-123 -15 -195.5 4t-103.5 62.5t-31 103.5v320h240v-260q0 -39 24 -53t66 -7v-170zM147 753v-151h-254v151h254zM451 753v-151h-254v151h254z" />
    <glyph glyph-name="upsilondieresis" unicode="&#x3cb;" horiz-adv-x="996" 
d="M951 490h-245v-226q0 -65 -48 -99.5t-158 -34.5q-113 0 -161.5 34.5t-48.5 99.5v226h-245v-226q0 -147 108.5 -213t346.5 -66q158 0 257.5 29t146.5 90.5t47 159.5v226zM473 753v-151h-254v151h254zM777 753v-151h-254v151h254z" />
    <glyph glyph-name="omicrontonos" unicode="&#x3cc;" horiz-adv-x="1016" 
d="M510 -15q-159 0 -264.5 26t-158 83t-52.5 150t52.5 150.5t158 84t264.5 26.5q158 0 262.5 -26.5t156.5 -84t52 -150.5t-52 -150t-156.5 -83t-262.5 -26zM510 130q74 0 124 12.5t76 38t26 63.5t-25.5 64t-75.5 39t-125 13q-74 0 -125.5 -13t-78 -38.5t-26.5 -64.5
q0 -38 26 -63.5t77.5 -38t126.5 -12.5zM373 602l202 150h320l-281 -150h-241z" />
    <glyph glyph-name="upsilontonos" unicode="&#x3cd;" horiz-adv-x="996" 
d="M951 490h-245v-226q0 -65 -48 -99.5t-158 -34.5q-113 0 -161.5 34.5t-48.5 99.5v226h-245v-226q0 -147 108.5 -213t346.5 -66q158 0 257.5 29t146.5 90.5t47 159.5v226zM363 602l202 150h320l-281 -150h-241z" />
    <glyph glyph-name="omegatonos" unicode="&#x3ce;" horiz-adv-x="1477" 
d="M1047 -15q-118 0 -188.5 29t-101.5 90.5t-31 159.5v76h135v-76q0 -43 15 -73t51.5 -45.5t99.5 -15.5q66 0 103 15t52 41t15 59q0 34 -16 59.5t-57 40.5t-117 15v145q159 0 254.5 -28.5t138 -86t42.5 -145.5t-41 -145.5t-128 -86t-226 -28.5zM430 -15q-139 0 -226 28.5
t-128 86t-41 145.5t42.5 145.5t138 86t254.5 28.5v-145q-75 0 -116.5 -15t-57.5 -40.5t-16 -59.5q0 -33 15 -59t52.5 -41t102.5 -15q64 0 100 15.5t51 45.5t15 73v76h135v-76q0 -98 -31 -159.5t-101.5 -90.5t-188.5 -29zM595 602l202 150h320l-281 -150h-241z" />
    <glyph glyph-name="Wgrave" unicode="&#x1e80;" horiz-adv-x="1882" 
d="M378 0l-358 640h282l302 -595l-95 -2l283 597h302l283 -597l-95 2l302 595h278l-354 -640h-338l-276 539h98l-276 -539h-338zM850 742l-281 150h320l202 -150h-241z" />
    <glyph glyph-name="wgrave" unicode="&#x1e81;" horiz-adv-x="1462" 
d="M1079 92l-104 2l217 396h265l-309 -490h-226l-253 380l118 -1l-263 -379h-226l-293 490h264l204 -396h-103l226 396h265zM628 602l-281 150h320l202 -150h-241z" />
    <glyph glyph-name="Wacute" unicode="&#x1e82;" horiz-adv-x="1882" 
d="M378 0l-358 640h282l302 -595l-95 -2l283 597h302l283 -597l-95 2l302 595h278l-354 -640h-338l-276 539h98l-276 -539h-338zM813 742l202 150h320l-281 -150h-241z" />
    <glyph glyph-name="wacute" unicode="&#x1e83;" horiz-adv-x="1462" 
d="M1079 92l-104 2l217 396h265l-309 -490h-226l-253 380l118 -1l-263 -379h-226l-293 490h264l204 -396h-103l226 396h265zM591 602l202 150h320l-281 -150h-241z" />
    <glyph glyph-name="Wdieresis" unicode="&#x1e84;" horiz-adv-x="1882" 
d="M378 0l-358 640h282l302 -595l-95 -2l283 597h302l283 -597l-95 2l302 595h278l-354 -640h-338l-276 539h98l-276 -539h-338zM686 737v-151h-254v151h254zM1502 738v-151h-254v151h254z" />
    <glyph glyph-name="wdieresis" unicode="&#x1e85;" horiz-adv-x="1462" 
d="M1079 92l-104 2l217 396h265l-309 -490h-226l-253 380l118 -1l-263 -379h-226l-293 490h264l204 -396h-103l226 396h265zM703 753v-151h-254v151h254zM1007 753v-151h-254v151h254z" />
    <glyph glyph-name="Ygrave" unicode="&#x1ef2;" horiz-adv-x="1070" 
d="M1065 640l-405 -477v-163h-250v163l-405 477h295l329 -415h-185l326 415h295zM435 692l-281 150h320l202 -150h-241z" />
    <glyph glyph-name="ygrave" unicode="&#x1ef3;" horiz-adv-x="930" 
d="M5 490h255l292 -470l-207 -20zM925 490l-487 -690h-245l209 283l268 407h255zM375 602l-281 150h320l202 -150h-241z" />
    <glyph glyph-name="endash" unicode="&#x2013;" horiz-adv-x="700" 
d="M80 347h540v-150h-540v150z" />
    <glyph glyph-name="emdash" unicode="&#x2014;" horiz-adv-x="940" 
d="M60 347h820v-150h-820v150z" />
    <glyph glyph-name="quoteleft" unicode="&#x2018;" horiz-adv-x="303" 
d="M250 711l14 -62q-16 -8 -33.5 -35t-20.5 -59l68 -11v-153h-253v93q0 92 53.5 153t171.5 74z" />
    <glyph glyph-name="quoteright" unicode="&#x2019;" horiz-adv-x="303" 
d="M53 341l-14 62q16 8 33.5 35.5t20.5 58.5l-68 11v153h253v-93q0 -91 -53 -152.5t-172 -74.5z" />
    <glyph glyph-name="quotesinglbase" unicode="&#x201a;" horiz-adv-x="303" 
d="M53 -167l-14 62q16 8 33.5 35.5t20.5 58.5l-68 11v153h253v-93q0 -91 -53 -152t-172 -75z" />
    <glyph glyph-name="quotedblleft" unicode="&#x201c;" horiz-adv-x="606" 
d="M250 711l14 -62q-16 -8 -33.5 -35t-20.5 -59l68 -11v-153h-253v93q0 92 53.5 153t171.5 74zM553 711l14 -62q-16 -8 -33.5 -35t-20.5 -59l68 -11v-153h-253v93q0 92 53.5 153t171.5 74z" />
    <glyph glyph-name="quotedblright" unicode="&#x201d;" horiz-adv-x="606" 
d="M53 341l-14 62q16 8 33.5 35.5t20.5 58.5l-68 11v153h253v-93q0 -91 -53 -152.5t-172 -74.5zM356 341l-14 62q16 8 33.5 35.5t20.5 58.5l-68 11v153h253v-93q0 -91 -53 -152.5t-172 -74.5z" />
    <glyph glyph-name="quotedblbase" unicode="&#x201e;" horiz-adv-x="606" 
d="M53 -167l-14 62q16 8 33.5 35.5t20.5 58.5l-68 11v153h253v-93q0 -91 -53 -152.5t-172 -74.5zM356 -167l-14 62q16 8 33.5 35.5t20.5 58.5l-68 11v153h253v-93q0 -91 -53 -152.5t-172 -74.5z" />
    <glyph glyph-name="dagger" unicode="&#x2020;" horiz-adv-x="1130" 
d="M80 500h970v-190h-970v190zM445 700h240v-900h-240v900z" />
    <glyph glyph-name="daggerdbl" unicode="&#x2021;" horiz-adv-x="1030" 
d="M395 -200v900h240v-900h-240zM30 0v190h970v-190h-970zM30 310v190h970v-190h-970z" />
    <glyph glyph-name="bullet" unicode="&#x2022;" horiz-adv-x="478" 
d="M90 411h298v-298h-298v298z" />
    <glyph glyph-name="ellipsis" unicode="&#x2026;" horiz-adv-x="1042" 
d="M992 151v-151h-254v151h254zM304 151v-151h-254v151h254zM648 151v-151h-254v151h254z" />
    <glyph glyph-name="perthousand" unicode="&#x2030;" horiz-adv-x="1474" 
d="M317 326q-91 0 -155 17t-98 55t-34 100q0 93 75.5 133.5t211.5 40.5q135 0 209.5 -40.5t74.5 -133.5q0 -62 -33.5 -100t-97 -55t-153.5 -17zM317 426q59 0 89.5 18t30.5 54t-30.5 55t-89.5 19q-60 0 -92 -19t-32 -55t31.5 -54t92.5 -18zM1160 305q-91 0 -155 17t-98 55
t-34 100q0 93 75.5 133.5t211.5 40.5t210 -40.5t74 -133.5q0 -62 -33.5 -100t-96.5 -55t-154 -17zM1160 405q59 0 90 18t31 54t-30.5 55t-90.5 19q-59 0 -91 -19t-32 -55t31 -54t92 -18zM942 -86q-91 0 -155 17t-98 55t-34 100q0 93 75.5 133.5t211.5 40.5t210 -40.5
t74 -133.5q0 -62 -33.5 -100t-96.5 -55t-154 -17zM942 14q59 0 90 18t31 54t-31 55t-90 19t-91 -19t-32 -55t31 -54t92 -18zM818 686l54 -30l-382 -690l-52 32z" />
    <glyph glyph-name="guilsinglleft" unicode="&#x2039;" horiz-adv-x="491" 
d="M60 279l270 291l109 -101l-274 -284zM60 279l105 95l276 -286l-111 -99z" />
    <glyph glyph-name="guilsinglright" unicode="&#x203a;" horiz-adv-x="491" 
d="M431 279l-105 -94l-275 284l109 101zM431 279l-271 -290l-110 99l276 286z" />
    <glyph glyph-name="fraction" unicode="&#x2044;" horiz-adv-x="84" 
d="M210 700l54 -30l-382 -690l-52 32z" />
    <glyph glyph-name="uni2074" unicode="&#x2074;" horiz-adv-x="314" 
d="M254 536h40v-60h-40v-76h-63v76h-151v60l147 167h67v-167zM191 536v90l-78 -90h78z" />
    <glyph glyph-name="Euro" unicode="&#x20ac;" horiz-adv-x="1406" 
d="M779 234h-759l61 48h758zM881 342h-861l61 58h860zM458 241q23 -24 66.5 -38.5t110.5 -21t159 -6.5q99 0 158.5 13t90.5 34t43 45h260q-5 -95 -68 -159t-183.5 -96t-300.5 -32q-124 0 -230.5 14.5t-188.5 45.5t-133 80.5t-65 119.5zM978 439q-34 8 -79.5 12t-104.5 4
q-105 0 -178 -11t-115.5 -33t-58.5 -55h-268q10 85 54 143.5t117 93.5t169 51t210 16q150 0 256 -13t173 -36z" />
    <glyph glyph-name="trademark" unicode="&#x2122;" horiz-adv-x="1695" 
d="M485 390h-200v110h-215v140h640v-140h-225v-110zM1204 464l221 176h200v-250h-200v102l-120 -107h-200l-120 106v-101h-200v250h200zM1625 168h-1540v140h1540v-140z" />
    <glyph glyph-name="uni2150" unicode="&#x2150;" horiz-adv-x="1509" 
d="M25 240v135h204v132h-204v135h404v-267h170v-135h-574zM909 700l54 -30l-382 -690l-52 32zM883 266v135h596v-153l-219 -248h-250l254 266h-381z" />
    <glyph glyph-name="uni2151" unicode="&#x2151;" horiz-adv-x="1465" 
d="M25 240v135h204v132h-204v135h404v-267h170v-135h-574zM909 700l54 -30l-382 -690l-52 32zM1097 415q109 0 183 -16.5t112 -49t38 -81.5q0 -21 -9 -48t-48 -62q-10 -8 -33 -26.5t-51 -41t-54.5 -43t-44 -34l-17.5 -13.5h-223l199 133q-22 -9 -47 -15t-52 -6
q-115 0 -173.5 34t-58.5 105q0 80 66.5 122t212.5 42zM1114 212q66 0 101 9t35 28q0 17 -35 25.5t-101 8.5q-64 0 -91 -9t-27 -25q0 -19 27 -28t91 -9z" />
    <glyph glyph-name="uni2152" unicode="&#x2152;" horiz-adv-x="2247" 
d="M25 240v135h204v132h-204v135h404v-267h170v-135h-574zM909 700l54 -30l-382 -690l-52 32zM878 0v135h204v132h-204v135h404v-267h170v-135h-574zM1822 419q107 0 179.5 -24.5t109 -73.5t36.5 -122t-36.5 -121.5t-109 -73t-179.5 -24.5t-179.5 24.5t-109 73t-36.5 121.5
t36.5 122t109 73.5t179.5 24.5zM1822 127q62 0 91.5 17.5t29.5 54.5q0 36 -29.5 53t-91.5 17q-63 0 -94.5 -17t-31.5 -53q0 -37 31 -54.5t95 -17.5z" />
    <glyph glyph-name="uni2153" unicode="&#x2153;" horiz-adv-x="1466" 
d="M25 240v135h204v132h-204v135h404v-267h170v-135h-574zM909 700l54 -30l-382 -690l-52 32zM1242 191q56 -1 98.5 -6t66.5 -22.5t24 -56.5q0 -67 -79.5 -96.5t-225.5 -29.5q-99 0 -168 17.5t-104.5 54t-35.5 94.5h143q2 -19 43 -26t119 -7q68 0 97 5t29 25t-32 24t-94 4
h-136v40h136q68 0 93 7.5t25 23.5q0 14 -24.5 20.5t-93.5 6.5q-76 0 -117.5 -8.5t-43.5 -19.5h-142q0 63 41 101.5t109 56t149 17.5q152 0 226.5 -31.5t74.5 -92.5q0 -48 -49.5 -72t-128.5 -29z" />
    <glyph glyph-name="uni2154" unicode="&#x2154;" horiz-adv-x="1517" 
d="M629 240h-570v129q107 15 177.5 26.5t112 21t61.5 18.5t26 17.5t6 18.5q0 34 -82 34q-76 0 -109.5 -12.5t-41.5 -28.5h-174q0 50 32 94t102.5 71t184.5 27q82 0 146.5 -12.5t102 -42t37.5 -81.5q0 -45 -26 -71t-77 -40t-126 -24l-136 -16l354 10v-139zM960 700l54 -30
l-382 -690l-52 32zM1293 191q56 -1 98.5 -6t66.5 -22.5t24 -56.5q0 -67 -79.5 -96.5t-225.5 -29.5q-99 0 -168 17.5t-104.5 54t-35.5 94.5h143q2 -19 43 -26t119 -7q68 0 97 5t29 25t-32 24t-94 4h-136v40h136q68 0 93 7.5t25 23.5q0 14 -24.5 20.5t-93.5 6.5
q-76 0 -117.5 -8.5t-43.5 -19.5h-142q0 63 41 101.5t109 56t149 17.5q152 0 226.5 -31.5t74.5 -92.5q0 -48 -49.5 -72t-128.5 -29z" />
    <glyph glyph-name="uni2155" unicode="&#x2155;" horiz-adv-x="1458" 
d="M25 240v135h204v132h-204v135h404v-267h170v-135h-574zM909 700l54 -30l-382 -690l-52 32zM1208 236q58 0 103 -12t71 -38.5t26 -70.5q0 -72 -66.5 -103.5t-214.5 -31.5q-87 0 -152 17t-101 50t-36 80h146q2 -12 41.5 -19t111.5 -7q38 0 62.5 6t24.5 25q0 20 -24.5 23.5
t-62.5 3.5h-75.5t-57.5 -0.5l-22 -0.5l-119 34l14 210h484v-130h-365l-6 -78q41 24 94.5 33t123.5 9z" />
    <glyph glyph-name="uni2156" unicode="&#x2156;" horiz-adv-x="1509" 
d="M629 240h-570v129q107 15 177.5 26.5t112 21t61.5 18.5t26 17.5t6 18.5q0 34 -82 34q-76 0 -109.5 -12.5t-41.5 -28.5h-174q0 50 32 94t102.5 71t184.5 27q82 0 146.5 -12.5t102 -42t37.5 -81.5q0 -45 -26 -71t-77 -40t-126 -24l-136 -16l354 10v-139zM960 700l54 -30
l-382 -690l-52 32zM1259 236q58 0 103 -12t71 -38.5t26 -70.5q0 -72 -66.5 -103.5t-214.5 -31.5q-87 0 -152 17t-101 50t-36 80h146q2 -12 41.5 -19t111.5 -7q38 0 62.5 6t24.5 25q0 20 -24.5 23.5t-62.5 3.5h-75.5t-57.5 -0.5l-22 -0.5l-119 34l14 210h484v-130h-365
l-6 -78q41 24 94.5 33t123.5 9z" />
    <glyph glyph-name="uni2157" unicode="&#x2157;" horiz-adv-x="1482" 
d="M459 431q56 -1 98.5 -6t66.5 -22.5t24 -56.5q0 -67 -79.5 -96.5t-225.5 -29.5q-99 0 -168 17.5t-104.5 54t-35.5 94.5h143q2 -19 43 -26t119 -7q68 0 97 5t29 25t-32 24t-94 4h-136v40h136q68 0 93 7.5t25 23.5q0 14 -24.5 20.5t-93.5 6.5q-76 0 -117.5 -8.5t-43.5 -19.5
h-142q0 63 41 101.5t109 56t149 17.5q152 0 226.5 -31.5t74.5 -92.5q0 -48 -49.5 -72t-128.5 -29zM933 700l54 -30l-382 -690l-52 32zM1232 236q58 0 103 -12t71 -38.5t26 -70.5q0 -72 -66.5 -103.5t-214.5 -31.5q-87 0 -152 17t-101 50t-36 80h146q2 -12 41.5 -19t111.5 -7
q38 0 62.5 6t24.5 25q0 20 -24.5 23.5t-62.5 3.5h-75.5t-57.5 -0.5l-22 -0.5l-119 34l14 210h484v-130h-365l-6 -78q41 24 94.5 33t123.5 9z" />
    <glyph glyph-name="uni2158" unicode="&#x2158;" horiz-adv-x="1492" 
d="M354 240v63h-304v132l339 206h175v-228h79v-110h-79v-63h-210zM234 400h130v104zM943 700l54 -30l-382 -690l-52 32zM1242 236q58 0 103 -12t71 -38.5t26 -70.5q0 -72 -66.5 -103.5t-214.5 -31.5q-87 0 -152 17t-101 50t-36 80h146q2 -12 41.5 -19t111.5 -7q38 0 62.5 6
t24.5 25q0 20 -24.5 23.5t-62.5 3.5h-75.5t-57.5 -0.5l-22 -0.5l-119 34l14 210h484v-130h-365l-6 -78q41 24 94.5 33t123.5 9z" />
    <glyph glyph-name="uni2159" unicode="&#x2159;" horiz-adv-x="1405" 
d="M25 240v135h204v132h-204v135h404v-267h170v-135h-574zM909 700l54 -30l-382 -690l-52 32zM1158 283q101 0 156.5 -34.5t55.5 -104.5q0 -79 -66.5 -121.5t-212.5 -42.5q-108 0 -182.5 17t-112.5 49.5t-38 80.5q0 21 9 48.5t48 61.5q10 8 33 27t51 42.5t54.5 45t44 35.5
l17.5 14h223l-210 -144q27 11 59 18.5t71 7.5zM1074 112q72 0 100 9.5t28 25.5q0 19 -28 27.5t-100 8.5q-66 0 -101 -8.5t-35 -27.5q0 -18 35 -26.5t101 -8.5z" />
    <glyph glyph-name="uni215A" unicode="&#x215a;" horiz-adv-x="1381" 
d="M425 476q58 0 103 -12t71 -38.5t26 -70.5q0 -72 -66.5 -103.5t-214.5 -31.5q-87 0 -152 17t-101 50t-36 80h146q2 -12 41.5 -19t111.5 -7q38 0 62.5 6t24.5 25q0 20 -24.5 23.5t-62.5 3.5h-75.5t-57.5 -0.5l-22 -0.5l-119 34l14 210h484v-130h-365l-6 -78q41 24 94.5 33
t123.5 9zM885 700l54 -30l-382 -690l-52 32zM1134 283q101 0 156.5 -34.5t55.5 -104.5q0 -79 -66.5 -121.5t-212.5 -42.5q-108 0 -182.5 17t-112.5 49.5t-38 80.5q0 21 9 48.5t48 61.5q10 8 33 27t51 42.5t54.5 45t44 35.5l17.5 14h223l-210 -144q27 11 59 18.5t71 7.5z
M1050 112q72 0 100 9.5t28 25.5q0 19 -28 27.5t-100 8.5q-66 0 -101 -8.5t-35 -27.5q0 -18 35 -26.5t101 -8.5z" />
    <glyph glyph-name="oneeighth" unicode="&#x215b;" horiz-adv-x="1451" 
d="M25 240v135h204v132h-204v135h404v-267h170v-135h-574zM909 700l54 -30l-382 -690l-52 32zM1262 202q41 -1 76 -11.5t56.5 -31.5t21.5 -55q0 -37 -28.5 -64.5t-94 -42.5t-176.5 -15t-176.5 15t-94 42.5t-28.5 64.5q0 34 21.5 55t54.5 31.5t69 11.5q-33 4 -62 15
t-47.5 31.5t-18.5 52.5q0 61 66 88t216 27t216 -27t66 -88q0 -48 -40.5 -70.5t-96.5 -28.5zM1117 286q-55 0 -74.5 -6.5t-19.5 -20.5q0 -13 19.5 -22t74.5 -9q56 0 78 9t22 22q0 14 -22 20.5t-78 6.5zM1117 113q67 0 93 7.5t26 21.5q0 15 -26 22t-93 7t-90 -7t-23 -22
q0 -14 23 -21.5t90 -7.5z" />
    <glyph glyph-name="threeeighths" unicode="&#x215c;" horiz-adv-x="1475" 
d="M459 431q56 -1 98.5 -6t66.5 -22.5t24 -56.5q0 -67 -79.5 -96.5t-225.5 -29.5q-99 0 -168 17.5t-104.5 54t-35.5 94.5h143q2 -19 43 -26t119 -7q68 0 97 5t29 25t-32 24t-94 4h-136v40h136q68 0 93 7.5t25 23.5q0 14 -24.5 20.5t-93.5 6.5q-76 0 -117.5 -8.5t-43.5 -19.5
h-142q0 63 41 101.5t109 56t149 17.5q152 0 226.5 -31.5t74.5 -92.5q0 -48 -49.5 -72t-128.5 -29zM933 700l54 -30l-382 -690l-52 32zM1286 202q41 -1 76 -11.5t56.5 -31.5t21.5 -55q0 -37 -28.5 -64.5t-94 -42.5t-176.5 -15t-176.5 15t-94 42.5t-28.5 64.5q0 34 21.5 55
t54.5 31.5t69 11.5q-33 4 -62 15t-47.5 31.5t-18.5 52.5q0 61 66 88t216 27t216 -27t66 -88q0 -48 -40.5 -70.5t-96.5 -28.5zM1141 286q-55 0 -74.5 -6.5t-19.5 -20.5q0 -13 19.5 -22t74.5 -9q56 0 78 9t22 22q0 14 -22 20.5t-78 6.5zM1141 113q67 0 93 7.5t26 21.5
q0 15 -26 22t-93 7t-90 -7t-23 -22q0 -14 23 -21.5t90 -7.5z" />
    <glyph glyph-name="fiveeighths" unicode="&#x215d;" horiz-adv-x="1427" 
d="M425 476q58 0 103 -12t71 -38.5t26 -70.5q0 -72 -66.5 -103.5t-214.5 -31.5q-87 0 -152 17t-101 50t-36 80h146q2 -12 41.5 -19t111.5 -7q38 0 62.5 6t24.5 25q0 20 -24.5 23.5t-62.5 3.5h-75.5t-57.5 -0.5l-22 -0.5l-119 34l14 210h484v-130h-365l-6 -78q41 24 94.5 33
t123.5 9zM885 700l54 -30l-382 -690l-52 32zM1238 202q41 -1 76 -11.5t56.5 -31.5t21.5 -55q0 -37 -28.5 -64.5t-94 -42.5t-176.5 -15t-176.5 15t-94 42.5t-28.5 64.5q0 34 21.5 55t54.5 31.5t69 11.5q-33 4 -62 15t-47.5 31.5t-18.5 52.5q0 61 66 88t216 27t216 -27t66 -88
q0 -48 -40.5 -70.5t-96.5 -28.5zM1093 286q-55 0 -74.5 -6.5t-19.5 -20.5q0 -13 19.5 -22t74.5 -9q56 0 78 9t22 22q0 14 -22 20.5t-78 6.5zM1093 113q67 0 93 7.5t26 21.5q0 15 -26 22t-93 7t-90 -7t-23 -22q0 -14 23 -21.5t90 -7.5z" />
    <glyph glyph-name="seveneighths" unicode="&#x215e;" horiz-adv-x="1378" 
d="M30 506v135h596v-153l-219 -248h-250l254 266h-381zM836 700l54 -30l-382 -690l-52 32zM1189 202q41 -1 76 -11.5t56.5 -31.5t21.5 -55q0 -37 -28.5 -64.5t-94 -42.5t-176.5 -15t-176.5 15t-94 42.5t-28.5 64.5q0 34 21.5 55t54.5 31.5t69 11.5q-33 4 -62 15t-47.5 31.5
t-18.5 52.5q0 61 66 88t216 27t216 -27t66 -88q0 -48 -40.5 -70.5t-96.5 -28.5zM1044 286q-55 0 -74.5 -6.5t-19.5 -20.5q0 -13 19.5 -22t74.5 -9q56 0 78 9t22 22q0 14 -22 20.5t-78 6.5zM1044 113q67 0 93 7.5t26 21.5q0 15 -26 22t-93 7t-90 -7t-23 -22q0 -14 23 -21.5
t90 -7.5z" />
    <glyph glyph-name="uni2189" unicode="&#x2189;" horiz-adv-x="1487" 
d="M360 659q107 0 179.5 -24.5t109 -73.5t36.5 -122q0 -72 -36.5 -121t-109 -73.5t-179.5 -24.5t-179.5 24.5t-109 73.5t-36.5 121q0 73 36.5 122t109 73.5t179.5 24.5zM360 367q62 0 91.5 17.5t29.5 54.5q0 36 -29.5 53t-91.5 17q-63 0 -94.5 -17t-31.5 -53q0 -37 31 -54.5
t95 -17.5zM930 700l54 -30l-382 -690l-52 32zM1263 191q56 -1 98.5 -6t66.5 -22.5t24 -56.5q0 -67 -79.5 -96.5t-225.5 -29.5q-99 0 -168 17.5t-104.5 54t-35.5 94.5h143q2 -19 43 -26t119 -7q68 0 97 5t29 25t-32 24t-94 4h-136v40h136q68 0 93 7.5t25 23.5
q0 14 -24.5 20.5t-93.5 6.5q-76 0 -117.5 -8.5t-43.5 -19.5h-142q0 63 41 101.5t109 56t149 17.5q152 0 226.5 -31.5t74.5 -92.5q0 -48 -49.5 -72t-128.5 -29z" />
    <glyph glyph-name="arrowleft" unicode="&#x2190;" horiz-adv-x="941" 
d="M330 -11l-270 290l270 291l109 -101l-116 -120l89 5h489v-150h-489l-88 5l117 -121z" />
    <glyph glyph-name="arrowup" unicode="&#x2191;" horiz-adv-x="761" 
d="M308 -81v488l5 89l-120 -116l-100 109l290 270l290 -270l-98 -110l-122 118l5 -90v-488h-150z" />
    <glyph glyph-name="arrowright" unicode="&#x2192;" horiz-adv-x="941" 
d="M610 -11l-110 99l117 121l-89 -5h-488v150h488l89 -5l-116 120l109 101l271 -291z" />
    <glyph glyph-name="arrowdown" unicode="&#x2193;" horiz-adv-x="761" 
d="M380 -133l-290 271l99 110l121 -117l-5 89v488h150v-488l-5 -90l121 117l100 -109z" />
    <glyph glyph-name="arrowboth" unicode="&#x2194;" horiz-adv-x="1208" 
d="M330 -11l-270 290l270 291l109 -101l-115 -118l40 3h480l39 -3l-114 118l109 101l270 -291l-270 -290l-110 99l115 119l-39 -3h-480l-39 3l116 -119z" />
    <glyph glyph-name="arrowupdn" unicode="&#x2195;" horiz-adv-x="761" 
d="M380 -175l-290 270l99 111l119 -115l-3 38v380l3 38l-119 -115l-99 111l290 270l291 -270l-100 -109l-119 115l3 -40v-380l-3 -40l119 115l100 -109z" />
    <glyph glyph-name="uni2196" unicode="&#x2196;" horiz-adv-x="861" 
d="M655 -11l-345 345l-59 66l-3 -168l-148 8l14 396l397 14l6 -147l-167 -3l66 -60l345 -345z" />
    <glyph glyph-name="uni2197" unicode="&#x2197;" horiz-adv-x="861" 
d="M206 -17l-106 106l345 346l67 59l-167 3l6 148l396 -14l14 -397l-147 -8l-3 170l-60 -67z" />
    <glyph glyph-name="uni2198" unicode="&#x2198;" horiz-adv-x="862" 
d="M351 -15l-8 148l169 3l-67 59l-345 345l106 106l345 -345l60 -67l3 168l148 -6l-14 -397z" />
    <glyph glyph-name="uni2199" unicode="&#x2199;" horiz-adv-x="862" 
d="M511 -15l-397 14l-14 397l148 6l3 -167l59 66l346 345l106 -106l-346 -345l-66 -59l169 -3z" />
    <glyph glyph-name="partialdiff" unicode="&#x2202;" horiz-adv-x="1029" 
d="M498 -15q-148 0 -251.5 31t-157.5 89t-54 140q0 65 27.5 109t76 70.5t112.5 38.5t137 12q100 0 183 -20t140.5 -58t77.5 -93l-14 -4q-9 60 -39.5 107t-90.5 79t-155.5 49t-233.5 17v153q146 0 256 -21t189 -56.5t131 -80t82 -92t42.5 -92t12.5 -80.5q0 -72 -26.5 -123.5
t-73.5 -85.5t-107 -53.5t-128 -27.5t-136 -8zM518 138q88 0 146 11t86.5 32t28.5 50q0 30 -27.5 49t-70 29t-89 14t-84.5 4q-102 0 -163 -21t-61 -72q0 -56 62.5 -76t171.5 -20z" />
    <glyph glyph-name="emptyset" unicode="&#x2205;" horiz-adv-x="1066" 
d="M358 -68l-61 35l51 89q-144 20 -216 79.5t-72 168.5q0 69 29.5 118.5t88.5 81t148.5 46.5t208.5 15q28 0 54.5 -0.5t51.5 -2.5l64 111l60 -35l-48 -84q146 -20 217.5 -80.5t71.5 -169.5q0 -70 -29 -119t-88 -80t-147 -45.5t-207 -14.5q-29 0 -56.5 1t-53.5 2zM433 202
l123 213h-10.5h-10.5q-74 0 -125.5 -12.5t-78 -37.5t-26.5 -61q0 -40 32.5 -65.5t95.5 -36.5zM535 195q74 0 124 12.5t76 36.5t26 60q0 40 -32.5 66.5t-96.5 37.5l-122 -213h12.5h12.5z" />
    <glyph glyph-name="product" unicode="&#x220f;" horiz-adv-x="1180" 
d="M230 500h240v-500h-240v500zM1150 640v-190h-1120v190h1120zM950 0h-240v500h240v-500z" />
    <glyph glyph-name="summation" unicode="&#x2211;" horiz-adv-x="1014" 
d="M84 640h840v-190h-704l-26 131l524 -274l-518 -255l20 138h704v-190h-840v190l345 160l-40 -61l-305 161v190z" />
    <glyph glyph-name="minus" unicode="&#x2212;" horiz-adv-x="600" 
d="M50 345h500v-150h-500v150z" />
    <glyph glyph-name="uni2215" unicode="&#x2215;" horiz-adv-x="434" 
d="M380 700l54 -30l-382 -690l-52 32z" />
    <glyph glyph-name="radical" unicode="&#x221a;" horiz-adv-x="1196" 
d="M1176 640v-190h-305l-307 -450h-226l-333 490h264l187 -310l300 460h420z" />
    <glyph glyph-name="infinity" unicode="&#x221e;" horiz-adv-x="1620" 
d="M1208 63q-76 0 -133 12.5t-101.5 33.5t-81 47.5t-71.5 54.5q-49 -37 -105.5 -71t-129.5 -55.5t-174 -21.5q-106 0 -185 27.5t-123 77.5t-44 117t43 116.5t118 76.5t171 27q85 0 149.5 -13.5t114.5 -36.5t90.5 -50.5t77.5 -56.5q35 29 71.5 56.5t82 50.5t106.5 36.5
t144 13.5q96 0 171 -27t118 -76.5t43 -117.5q0 -67 -44 -117t-123 -77t-185 -27zM472 211q60 0 106.5 8.5t84 24t68.5 34.5q-34 22 -74 39.5t-90 27.5t-115 10q-30 0 -63 -5t-56 -20t-23 -45q0 -24 16.5 -38.5t42 -22t53.5 -10.5t50 -3zM1148 211q23 0 50.5 3t53 10.5t42 22
t16.5 37.5q0 30 -23 45.5t-56 20.5t-63 5q-54 0 -98.5 -10t-82 -27t-71.5 -39q31 -19 65 -34.5t75.5 -24.5t91.5 -9z" />
    <glyph glyph-name="integral" unicode="&#x222b;" horiz-adv-x="751" 
d="M426 760h295v-190h-135q-37 0 -63.5 -18.5t-26.5 -71.5v-420q0 -60 -24 -97.5t-65 -55t-91 -17.5h-286v190h136q38 0 64 18.5t26 71.5v420q0 90 47.5 130t122.5 40z" />
    <glyph glyph-name="approxequal" unicode="&#x2248;" horiz-adv-x="894" 
d="M684 478h160q0 -50 -23.5 -96.5t-73.5 -76t-128 -29.5q-49 0 -91.5 11.5t-81.5 26.5t-76 26.5t-75 11.5t-61.5 -16.5t-23.5 -35.5h-160q0 49 26.5 95.5t81 76.5t137.5 30q49 0 92 -11.5t81.5 -26.5t75.5 -26.5t75 -11.5t51.5 16.5t13.5 35.5zM704 231h140
q0 -33 -13.5 -68.5t-40.5 -66t-69.5 -49t-101.5 -18.5q-49 0 -91.5 11.5t-81.5 26.5t-76 26.5t-75 11.5t-61.5 -16.5t-23.5 -35.5h-160q0 50 26.5 96t81 76t137.5 30q49 0 92 -11.5t81.5 -26.5t75.5 -26.5t75 -11.5t61.5 16.5t23.5 35.5z" />
    <glyph glyph-name="notequal" unicode="&#x2260;" horiz-adv-x="840" 
d="M296 -11l184 600l64 -18l-184 -600zM50 480h740v-150h-740v150zM50 225h740v-150h-740v150z" />
    <glyph glyph-name="lessequal" unicode="&#x2264;" horiz-adv-x="552" 
d="M472 254l-50 -149l-362 136v151l362 136l50 -138l-247 -71zM452 -10h-390v65h390v-65z" />
    <glyph glyph-name="greaterequal" unicode="&#x2265;" horiz-adv-x="552" 
d="M492 241l-362 -136l-50 149l247 65l-247 71l50 138l362 -136v-151zM490 -10h-390v65h390v-65z" />
    <glyph glyph-name="lozenge" unicode="&#x25ca;" horiz-adv-x="1001" 
d="M501 -6l-451 343l450 343l451 -343zM501 174l216 163l-217 163l-216 -163z" />
    <glyph glyph-name="uniF8FF" unicode="&#xf8ff;" horiz-adv-x="860" 
d="M430 -10q-85 0 -158 23.5t-127.5 67.5t-84.5 106t-30 138q0 77 30 138.5t84.5 105.5t127.5 67.5t158 23.5q86 0 158.5 -23.5t127 -67.5t84.5 -105.5t30 -138.5q0 -76 -30 -138t-84.5 -106t-127 -67.5t-158.5 -23.5zM324 53q-30 20 -52 50t-38 64q-42 -11 -70 -29
q30 -31 71 -52.5t89 -32.5zM142 164q30 25 78 40q-7 26 -12 51t-6 50h-110q2 -42 15 -77t35 -64zM408 47v138q-40 -1 -73.5 -3t-61.5 -7q20 -49 54 -84.5t81 -43.5zM92 345h109q3 55 20 107q-46 15 -76 38q-23 -29 -37 -65.5t-16 -79.5zM260 215q31 6 68 9.5t80 4.5v76h-163
q3 -47 15 -90zM453 47q47 8 80.5 43t53.5 84q-28 5 -61 7.5t-73 3.5v-138zM245 345h163v83q-43 1 -80 4.5t-68 9.5q-12 -46 -15 -97zM536 53q96 21 159 84q-14 9 -31 16.5t-39 12.5q-15 -34 -37.5 -63.5t-51.5 -49.5zM235 489q15 33 36 60.5t49 46.5q-92 -21 -152 -80
q27 -17 67 -27zM600 214q6 22 10 45.5t5 45.5h-162v-76q85 -1 147 -15zM408 472v132q-47 -7 -80.5 -40.5t-53.5 -81.5q27 -4 60.5 -6.5t73.5 -3.5zM453 345h162q-1 26 -5 50.5t-11 47.5q-60 -13 -146 -15v-83zM717 162q22 29 35.5 65t15.5 78h-110q-1 -25 -6 -50.5
t-13 -51.5q24 -7 43 -17.5t35 -23.5zM453 472q40 1 72.5 3.5t60.5 7.5q-20 47 -53 80.5t-80 40.5v-132zM659 345h109q-2 44 -16.5 81t-38.5 66q-15 -12 -33.5 -21t-40.5 -17q17 -54 20 -109zM624 491q20 5 36.5 12t29.5 15q-60 57 -150 78q28 -19 49 -46t35 -59z" />
    <glyph glyph-name="Aacute.ss03" horiz-adv-x="1160" 
d="M234 97v150h684v-150h-684zM10 0l429 640h278l433 -640h-275l-371 573h149l-368 -573h-275zM705 843v-150h-254v150h254z" />
    <glyph glyph-name="Abreve.ss03" horiz-adv-x="1160" 
d="M234 97v150h684v-150h-684zM10 0l429 640h278l433 -640h-275l-371 573h149l-368 -573h-275zM705 843v-150h-254v150h254z" />
    <glyph glyph-name="Acircumflex.ss03" horiz-adv-x="1160" 
d="M234 97v150h684v-150h-684zM10 0l429 640h278l433 -640h-275l-371 573h149l-368 -573h-275zM705 843v-150h-254v150h254z" />
    <glyph glyph-name="Agrave.ss03" horiz-adv-x="1160" 
d="M234 97v150h684v-150h-684zM10 0l429 640h278l433 -640h-275l-371 573h149l-368 -573h-275zM451 843h254v-150h-254v150z" />
    <glyph glyph-name="Amacron.ss03" horiz-adv-x="1160" 
d="M234 97v150h684v-150h-684zM10 0l429 640h278l433 -640h-275l-371 573h149l-368 -573h-275zM705 843v-150h-254v150h254z" />
    <glyph glyph-name="Aogonek.ss03" horiz-adv-x="1160" 
d="M234 97v150h684v-150h-684zM10 0l429 640h278l433 -640h-275l-371 573h149l-368 -573h-275zM1144 -49v-151h-254v151h254z" />
    <glyph glyph-name="Aring.ss03" horiz-adv-x="1160" 
d="M234 97v150h684v-150h-684zM10 0l429 640h278l433 -640h-275l-371 573h149l-368 -573h-275zM705 843v-150h-254v150h254z" />
    <glyph glyph-name="Atilde.ss03" horiz-adv-x="1160" 
d="M234 97v150h684v-150h-684zM10 0l429 640h278l433 -640h-275l-371 573h149l-368 -573h-275zM705 843v-150h-254v150h254z" />
    <glyph glyph-name="Cacute.ss03" horiz-adv-x="1316" 
d="M1255 267q-5 -95 -69 -159t-188.5 -96t-314.5 -32q-145 0 -260 15.5t-196 53t-124 102.5t-43 164t43 165.5t124 106t196 56.5t260 17q190 0 315 -34.5t189 -101.5t69 -163h-260q-12 32 -44 56.5t-96 38.5t-173 14q-128 0 -208 -15.5t-117 -49.5t-37 -90q0 -51 37 -83
t117 -47t208 -15q109 0 172.5 13t95.5 35.5t44 48.5h260zM790 853v-150h-254v150h254z" />
    <glyph glyph-name="Ccaron.ss03" horiz-adv-x="1316" 
d="M1255 267q-5 -95 -69 -159t-188.5 -96t-314.5 -32q-145 0 -260 15.5t-196 53t-124 102.5t-43 164t43 165.5t124 106t196 56.5t260 17q190 0 315 -34.5t189 -101.5t69 -163h-260q-12 32 -44 56.5t-96 38.5t-173 14q-128 0 -208 -15.5t-117 -49.5t-37 -90q0 -51 37 -83
t117 -47t208 -15q109 0 172.5 13t95.5 35.5t44 48.5h260zM790 853v-150h-254v150h254z" />
    <glyph glyph-name="Ccedilla.ss03" horiz-adv-x="1316" 
d="M1255 267q-5 -95 -69 -159t-188.5 -96t-314.5 -32q-145 0 -260 15.5t-196 53t-124 102.5t-43 164t43 165.5t124 106t196 56.5t260 17q190 0 315 -34.5t189 -101.5t69 -163h-260q-12 32 -44 56.5t-96 38.5t-173 14q-128 0 -208 -15.5t-117 -49.5t-37 -90q0 -51 37 -83
t117 -47t208 -15q109 0 172.5 13t95.5 35.5t44 48.5h260zM810 -49v-151h-254v151h254z" />
    <glyph glyph-name="Cdotaccent.ss03" horiz-adv-x="1316" 
d="M1255 267q-5 -95 -69 -159t-188.5 -96t-314.5 -32q-145 0 -260 15.5t-196 53t-124 102.5t-43 164t43 165.5t124 106t196 56.5t260 17q190 0 315 -34.5t189 -101.5t69 -163h-260q-12 32 -44 56.5t-96 38.5t-173 14q-128 0 -208 -15.5t-117 -49.5t-37 -90q0 -51 37 -83
t117 -47t208 -15q109 0 172.5 13t95.5 35.5t44 48.5h260zM790 853v-150h-254v150h254z" />
    <glyph glyph-name="Dcaron.ss03" horiz-adv-x="1302" 
d="M790 640q135 0 223 -26t138 -71t70.5 -102.5t20.5 -120.5t-23 -120.5t-75.5 -102.5t-139 -71t-214.5 -26h-720v640h720zM320 200h460q56 0 95 7.5t62.5 22.5t34 37.5t10.5 52.5t-10.5 52.5t-34 37.5t-62.5 22.5t-95 7.5h-460v-240zM725 843v-150h-254v150h254z" />
    <glyph glyph-name="Eacute.ss03" horiz-adv-x="1140" 
d="M320 270v-80h760v-190h-1010v640h1008v-190h-758v-80h620v-100h-620zM722 843v-150h-254v150h254z" />
    <glyph glyph-name="Ecaron.ss03" horiz-adv-x="1140" 
d="M320 270v-80h760v-190h-1010v640h1008v-190h-758v-80h620v-100h-620zM722 843v-150h-254v150h254z" />
    <glyph glyph-name="Ecircumflex.ss03" horiz-adv-x="1140" 
d="M320 270v-80h760v-190h-1010v640h1008v-190h-758v-80h620v-100h-620zM722 843v-150h-254v150h254z" />
    <glyph glyph-name="Egrave.ss03" horiz-adv-x="1140" 
d="M320 270v-80h760v-190h-1010v640h1008v-190h-758v-80h620v-100h-620zM468 843h254v-150h-254v150z" />
    <glyph glyph-name="Emacron.ss03" horiz-adv-x="1140" 
d="M320 270v-80h760v-190h-1010v640h1008v-190h-758v-80h620v-100h-620zM722 843v-150h-254v150h254z" />
    <glyph glyph-name="Eogonek.ss03" horiz-adv-x="1140" 
d="M320 270v-80h760v-190h-1010v640h1008v-190h-758v-80h620v-100h-620zM1107 -49v-151h-254v151h254z" />
    <glyph glyph-name="Gbreve.ss03" horiz-adv-x="1340" 
d="M653 -20q-130 0 -238.5 15.5t-188 53t-123 102.5t-43.5 164t44 165.5t126.5 106t197 56.5t255.5 17q185 0 310.5 -34t191.5 -96.5t71 -148.5h-260q-12 22 -44 42.5t-96 33.5t-173 13q-128 0 -208 -15.5t-117 -49.5t-37 -90q0 -49 38 -81t122 -48t222 -16q97 0 168.5 8.5
t130 26.5t116.5 45l24 -29q-62 -117 -184 -179t-305 -62zM1074 0q0 30 8 68t20.5 79.5t24.5 78.5h-390v105h533v-331h-196zM778 853v-150h-254v150h254z" />
    <glyph glyph-name="uni0122.ss03" horiz-adv-x="1340" 
d="M653 -20q-130 0 -238.5 15.5t-188 53t-123 102.5t-43.5 164t44 165.5t126.5 106t197 56.5t255.5 17q185 0 310.5 -34t191.5 -96.5t71 -148.5h-260q-12 22 -44 42.5t-96 33.5t-173 13q-128 0 -208 -15.5t-117 -49.5t-37 -90q0 -49 38 -81t122 -48t222 -16q97 0 168.5 8.5
t130 26.5t116.5 45l24 -29q-62 -117 -184 -179t-305 -62zM1074 0q0 30 8 68t20.5 79.5t24.5 78.5h-390v105h533v-331h-196zM778 -49v-151h-254v151h254z" />
    <glyph glyph-name="Gdotaccent.ss03" horiz-adv-x="1340" 
d="M653 -20q-130 0 -238.5 15.5t-188 53t-123 102.5t-43.5 164t44 165.5t126.5 106t197 56.5t255.5 17q185 0 310.5 -34t191.5 -96.5t71 -148.5h-260q-12 22 -44 42.5t-96 33.5t-173 13q-128 0 -208 -15.5t-117 -49.5t-37 -90q0 -49 38 -81t122 -48t222 -16q97 0 168.5 8.5
t130 26.5t116.5 45l24 -29q-62 -117 -184 -179t-305 -62zM1074 0q0 30 8 68t20.5 79.5t24.5 78.5h-390v105h533v-331h-196zM778 853v-150h-254v150h254z" />
    <glyph glyph-name="Iacute.ss03" horiz-adv-x="420" 
d="M85 640h250v-640h-250v640zM337 843v-150h-254v150h254z" />
    <glyph glyph-name="Icircumflex.ss03" horiz-adv-x="420" 
d="M85 640h250v-640h-250v640zM337 843v-150h-254v150h254z" />
    <glyph glyph-name="Igrave.ss03" horiz-adv-x="420" 
d="M85 640h250v-640h-250v640zM83 843h254v-150h-254v150z" />
    <glyph glyph-name="Imacron.ss03" horiz-adv-x="420" 
d="M85 640h250v-640h-250v640zM337 843v-150h-254v150h254z" />
    <glyph glyph-name="Iogonek.ss03" horiz-adv-x="420" 
d="M85 640h250v-640h-250v640zM337 -49v-151h-254v151h254z" />
    <glyph glyph-name="uni0136.ss03" horiz-adv-x="1215" 
d="M603 315v56l577 -371h-372l-490 340l452 300h356zM70 640h250v-640h-250v640zM641 -49v-151h-254v151h254z" />
    <glyph glyph-name="Lacute.ss03" horiz-adv-x="943" 
d="M320 640v-450h583v-190h-833v640h250zM333 843v-150h-254v150h254z" />
    <glyph glyph-name="Lcaron.ss03" horiz-adv-x="943" 
d="M320 640v-450h583v-190h-833v640h250zM856 690v-150h-254v150h254z" />
    <glyph glyph-name="uni013B.ss03" horiz-adv-x="943" 
d="M320 640v-450h583v-190h-833v640h250zM650 -49v-151h-254v151h254z" />
    <glyph glyph-name="Nacute.ss03" horiz-adv-x="1300" 
d="M1073 196l-93 -53v497h250v-640h-250l-753 436l93 54v-490h-250v640h250zM776 843v-150h-254v150h254z" />
    <glyph glyph-name="Ncaron.ss03" horiz-adv-x="1300" 
d="M1073 196l-93 -53v497h250v-640h-250l-753 436l93 54v-490h-250v640h250zM776 843v-150h-254v150h254z" />
    <glyph glyph-name="uni0145.ss03" horiz-adv-x="1300" 
d="M1073 196l-93 -53v497h250v-640h-250l-753 436l93 54v-490h-250v640h250zM776 -49v-151h-254v151h254z" />
    <glyph glyph-name="Ntilde.ss03" horiz-adv-x="1300" 
d="M1073 196l-93 -53v497h250v-640h-250l-753 436l93 54v-490h-250v640h250zM776 843v-150h-254v150h254z" />
    <glyph glyph-name="Oacute.ss03" horiz-adv-x="1330" 
d="M665 -20q-218 0 -351 38.5t-193.5 114t-60.5 187.5t60.5 187.5t193.5 114t351 38.5t351 -38.5t193.5 -114t60.5 -187.5t-60.5 -187.5t-193.5 -114t-351 -38.5zM665 170q103 0 178 12.5t116 45t41 92.5t-41 92.5t-116 45t-178 12.5t-180.5 -12.5t-121 -45t-43.5 -92.5
t43.5 -92.5t121 -45t180.5 -12.5zM792 853v-150h-254v150h254z" />
    <glyph glyph-name="Ocircumflex.ss03" horiz-adv-x="1330" 
d="M665 -20q-218 0 -351 38.5t-193.5 114t-60.5 187.5t60.5 187.5t193.5 114t351 38.5t351 -38.5t193.5 -114t60.5 -187.5t-60.5 -187.5t-193.5 -114t-351 -38.5zM665 170q103 0 178 12.5t116 45t41 92.5t-41 92.5t-116 45t-178 12.5t-180.5 -12.5t-121 -45t-43.5 -92.5
t43.5 -92.5t121 -45t180.5 -12.5zM792 853v-150h-254v150h254z" />
    <glyph glyph-name="Ograve.ss03" horiz-adv-x="1330" 
d="M665 -20q-218 0 -351 38.5t-193.5 114t-60.5 187.5t60.5 187.5t193.5 114t351 38.5t351 -38.5t193.5 -114t60.5 -187.5t-60.5 -187.5t-193.5 -114t-351 -38.5zM665 170q103 0 178 12.5t116 45t41 92.5t-41 92.5t-116 45t-178 12.5t-180.5 -12.5t-121 -45t-43.5 -92.5
t43.5 -92.5t121 -45t180.5 -12.5zM538 853h254v-150h-254v150z" />
    <glyph glyph-name="Ohungarumlaut.ss03" horiz-adv-x="1330" 
d="M665 -20q-218 0 -351 38.5t-193.5 114t-60.5 187.5t60.5 187.5t193.5 114t351 38.5t351 -38.5t193.5 -114t60.5 -187.5t-60.5 -187.5t-193.5 -114t-351 -38.5zM665 170q103 0 178 12.5t116 45t41 92.5t-41 92.5t-116 45t-178 12.5t-180.5 -12.5t-121 -45t-43.5 -92.5
t43.5 -92.5t121 -45t180.5 -12.5zM640 853v-151h-254v151h254zM944 853v-151h-254v151h254z" />
    <glyph glyph-name="Omacron.ss03" horiz-adv-x="1330" 
d="M665 -20q-218 0 -351 38.5t-193.5 114t-60.5 187.5t60.5 187.5t193.5 114t351 38.5t351 -38.5t193.5 -114t60.5 -187.5t-60.5 -187.5t-193.5 -114t-351 -38.5zM665 170q103 0 178 12.5t116 45t41 92.5t-41 92.5t-116 45t-178 12.5t-180.5 -12.5t-121 -45t-43.5 -92.5
t43.5 -92.5t121 -45t180.5 -12.5zM792 853v-150h-254v150h254z" />
    <glyph glyph-name="Otilde.ss03" horiz-adv-x="1330" 
d="M665 -20q-218 0 -351 38.5t-193.5 114t-60.5 187.5t60.5 187.5t193.5 114t351 38.5t351 -38.5t193.5 -114t60.5 -187.5t-60.5 -187.5t-193.5 -114t-351 -38.5zM665 170q103 0 178 12.5t116 45t41 92.5t-41 92.5t-116 45t-178 12.5t-180.5 -12.5t-121 -45t-43.5 -92.5
t43.5 -92.5t121 -45t180.5 -12.5zM792 853v-150h-254v150h254z" />
    <glyph glyph-name="Racute.ss03" horiz-adv-x="1232" 
d="M70 0v640h773q91 0 163.5 -20.5t115 -68.5t42.5 -131q0 -55 -20 -91t-55 -56t-80 -29t-94 -11l-73 14q119 -1 183.5 -10t90 -32.5t25.5 -67.5v-137h-250v107q0 30 -11.5 45.5t-50 21.5t-118.5 6h-391v-180h-250zM320 347h523q30 0 50.5 10t20.5 38q0 26 -20.5 35.5
t-50.5 9.5h-523v-93zM716 843v-150h-254v150h254z" />
    <glyph glyph-name="Rcaron.ss03" horiz-adv-x="1232" 
d="M70 0v640h773q91 0 163.5 -20.5t115 -68.5t42.5 -131q0 -55 -20 -91t-55 -56t-80 -29t-94 -11l-73 14q119 -1 183.5 -10t90 -32.5t25.5 -67.5v-137h-250v107q0 30 -11.5 45.5t-50 21.5t-118.5 6h-391v-180h-250zM320 347h523q30 0 50.5 10t20.5 38q0 26 -20.5 35.5
t-50.5 9.5h-523v-93zM716 843v-150h-254v150h254z" />
    <glyph glyph-name="uni0156.ss03" horiz-adv-x="1232" 
d="M70 0v640h773q91 0 163.5 -20.5t115 -68.5t42.5 -131q0 -55 -20 -91t-55 -56t-80 -29t-94 -11l-73 14q119 -1 183.5 -10t90 -32.5t25.5 -67.5v-137h-250v107q0 30 -11.5 45.5t-50 21.5t-118.5 6h-391v-180h-250zM320 347h523q30 0 50.5 10t20.5 38q0 26 -20.5 35.5
t-50.5 9.5h-523v-93zM716 -64v-151h-254v151h254z" />
    <glyph glyph-name="Sacute.ss03" horiz-adv-x="1056" 
d="M35 235h273q7 -21 41 -35.5t91.5 -22t133.5 -7.5q75 0 118.5 4.5t61.5 16t18 31.5q0 19 -29 29.5t-103 14.5t-208 4q-100 0 -172.5 9.5t-119 30t-68.5 52t-22 75.5q0 76 51.5 125.5t156 74t261.5 24.5q230 0 351.5 -66.5t121.5 -191.5h-259q-5 33 -62 50.5t-162 17.5
q-104 0 -154.5 -12t-50.5 -41q0 -15 14 -24t48.5 -14.5t97.5 -7.5t160 -2q107 0 182 -10.5t121.5 -31.5t67.5 -53.5t21 -76.5q0 -76 -48 -124t-152 -71t-272 -23q-95 0 -174.5 11t-141.5 32.5t-105 53t-65.5 71t-22.5 87.5zM642 853v-150h-254v150h254z" />
    <glyph glyph-name="Scaron.ss03" horiz-adv-x="1056" 
d="M35 235h273q7 -21 41 -35.5t91.5 -22t133.5 -7.5q75 0 118.5 4.5t61.5 16t18 31.5q0 19 -29 29.5t-103 14.5t-208 4q-100 0 -172.5 9.5t-119 30t-68.5 52t-22 75.5q0 76 51.5 125.5t156 74t261.5 24.5q230 0 351.5 -66.5t121.5 -191.5h-259q-5 33 -62 50.5t-162 17.5
q-104 0 -154.5 -12t-50.5 -41q0 -15 14 -24t48.5 -14.5t97.5 -7.5t160 -2q107 0 182 -10.5t121.5 -31.5t67.5 -53.5t21 -76.5q0 -76 -48 -124t-152 -71t-272 -23q-95 0 -174.5 11t-141.5 32.5t-105 53t-65.5 71t-22.5 87.5zM642 853v-150h-254v150h254z" />
    <glyph glyph-name="Scedilla.ss03" horiz-adv-x="1056" 
d="M35 235h273q7 -21 41 -35.5t91.5 -22t133.5 -7.5q75 0 118.5 4.5t61.5 16t18 31.5q0 19 -29 29.5t-103 14.5t-208 4q-100 0 -172.5 9.5t-119 30t-68.5 52t-22 75.5q0 76 51.5 125.5t156 74t261.5 24.5q230 0 351.5 -66.5t121.5 -191.5h-259q-5 33 -62 50.5t-162 17.5
q-104 0 -154.5 -12t-50.5 -41q0 -15 14 -24t48.5 -14.5t97.5 -7.5t160 -2q107 0 182 -10.5t121.5 -31.5t67.5 -53.5t21 -76.5q0 -76 -48 -124t-152 -71t-272 -23q-95 0 -174.5 11t-141.5 32.5t-105 53t-65.5 71t-22.5 87.5zM672 -64v-151h-254v151h254z" />
    <glyph glyph-name="uni0218.ss03" horiz-adv-x="1056" 
d="M35 235h273q7 -21 41 -35.5t91.5 -22t133.5 -7.5q75 0 118.5 4.5t61.5 16t18 31.5q0 19 -29 29.5t-103 14.5t-208 4q-100 0 -172.5 9.5t-119 30t-68.5 52t-22 75.5q0 76 51.5 125.5t156 74t261.5 24.5q230 0 351.5 -66.5t121.5 -191.5h-259q-5 33 -62 50.5t-162 17.5
q-104 0 -154.5 -12t-50.5 -41q0 -15 14 -24t48.5 -14.5t97.5 -7.5t160 -2q107 0 182 -10.5t121.5 -31.5t67.5 -53.5t21 -76.5q0 -76 -48 -124t-152 -71t-272 -23q-95 0 -174.5 11t-141.5 32.5t-105 53t-65.5 71t-22.5 87.5zM672 -64v-151h-254v151h254z" />
    <glyph glyph-name="Tcaron.ss03" horiz-adv-x="1100" 
d="M30 640h1040v-190h-1040v190zM425 463h250v-463h-250v463zM677 843v-150h-254v150h254z" />
    <glyph glyph-name="uni0162.ss03" horiz-adv-x="1100" 
d="M30 640h1040v-190h-1040v190zM425 463h250v-463h-250v463zM677 -49v-151h-254v151h254z" />
    <glyph glyph-name="uni021A.ss03" horiz-adv-x="1100" 
d="M30 640h1040v-190h-1040v190zM425 463h250v-463h-250v463zM677 -49v-151h-254v151h254z" />
    <glyph glyph-name="Uacute.ss03" horiz-adv-x="1289" 
d="M969 365v275h250v-320q0 -85 -31.5 -144.5t-87.5 -98t-129 -59.5t-156.5 -29.5t-169.5 -8.5q-91 0 -176 8.5t-157.5 29.5t-126.5 59.5t-84.5 98t-30.5 144.5v320h250v-275q0 -80 39 -122t111.5 -57.5t174.5 -15.5q99 0 172 15.5t112.5 57.5t39.5 122zM772 843v-150h-254
v150h254z" />
    <glyph glyph-name="Ucircumflex.ss03" horiz-adv-x="1289" 
d="M969 365v275h250v-320q0 -85 -31.5 -144.5t-87.5 -98t-129 -59.5t-156.5 -29.5t-169.5 -8.5q-91 0 -176 8.5t-157.5 29.5t-126.5 59.5t-84.5 98t-30.5 144.5v320h250v-275q0 -80 39 -122t111.5 -57.5t174.5 -15.5q99 0 172 15.5t112.5 57.5t39.5 122zM772 843v-150h-254
v150h254z" />
    <glyph glyph-name="Ugrave.ss03" horiz-adv-x="1289" 
d="M969 365v275h250v-320q0 -85 -31.5 -144.5t-87.5 -98t-129 -59.5t-156.5 -29.5t-169.5 -8.5q-91 0 -176 8.5t-157.5 29.5t-126.5 59.5t-84.5 98t-30.5 144.5v320h250v-275q0 -80 39 -122t111.5 -57.5t174.5 -15.5q99 0 172 15.5t112.5 57.5t39.5 122zM518 843h254v-150
h-254v150z" />
    <glyph glyph-name="Uhungarumlaut.ss03" horiz-adv-x="1289" 
d="M969 365v275h250v-320q0 -85 -31.5 -144.5t-87.5 -98t-129 -59.5t-156.5 -29.5t-169.5 -8.5q-91 0 -176 8.5t-157.5 29.5t-126.5 59.5t-84.5 98t-30.5 144.5v320h250v-275q0 -80 39 -122t111.5 -57.5t174.5 -15.5q99 0 172 15.5t112.5 57.5t39.5 122zM619 641v-151h-254
v151h254zM923 641v-151h-254v151h254z" />
    <glyph glyph-name="Umacron.ss03" horiz-adv-x="1289" 
d="M969 365v275h250v-320q0 -85 -31.5 -144.5t-87.5 -98t-129 -59.5t-156.5 -29.5t-169.5 -8.5q-91 0 -176 8.5t-157.5 29.5t-126.5 59.5t-84.5 98t-30.5 144.5v320h250v-275q0 -80 39 -122t111.5 -57.5t174.5 -15.5q99 0 172 15.5t112.5 57.5t39.5 122zM772 843v-150h-254
v150h254z" />
    <glyph glyph-name="Uogonek.ss03" horiz-adv-x="1289" 
d="M969 365v275h250v-320q0 -85 -31.5 -144.5t-87.5 -98t-129 -59.5t-156.5 -29.5t-169.5 -8.5q-91 0 -176 8.5t-157.5 29.5t-126.5 59.5t-84.5 98t-30.5 144.5v320h250v-275q0 -80 39 -122t111.5 -57.5t174.5 -15.5q99 0 172 15.5t112.5 57.5t39.5 122zM1227 -64v-151h-254
v151h254z" />
    <glyph glyph-name="Uring.ss03" horiz-adv-x="1289" 
d="M969 365v275h250v-320q0 -85 -31.5 -144.5t-87.5 -98t-129 -59.5t-156.5 -29.5t-169.5 -8.5q-91 0 -176 8.5t-157.5 29.5t-126.5 59.5t-84.5 98t-30.5 144.5v320h250v-275q0 -80 39 -122t111.5 -57.5t174.5 -15.5q99 0 172 15.5t112.5 57.5t39.5 122zM772 843v-150h-254
v150h254z" />
    <glyph glyph-name="Wacute.ss03" horiz-adv-x="1882" 
d="M378 0l-358 640h282l302 -595l-95 -2l283 597h302l283 -597l-95 2l302 595h278l-354 -640h-338l-276 539h98l-276 -539h-338zM1077 893v-150h-254v150h254z" />
    <glyph glyph-name="Wcircumflex.ss03" horiz-adv-x="1882" 
d="M378 0l-358 640h282l302 -595l-95 -2l283 597h302l283 -597l-95 2l302 595h278l-354 -640h-338l-276 539h98l-276 -539h-338zM1077 893v-150h-254v150h254z" />
    <glyph glyph-name="Wgrave.ss03" horiz-adv-x="1882" 
d="M378 0l-358 640h282l302 -595l-95 -2l283 597h302l283 -597l-95 2l302 595h278l-354 -640h-338l-276 539h98l-276 -539h-338zM823 893h254v-150h-254v150z" />
    <glyph glyph-name="Yacute.ss03" horiz-adv-x="1070" 
d="M1065 640l-405 -477v-163h-250v163l-405 477h295l329 -415h-185l326 415h295zM662 843v-150h-254v150h254z" />
    <glyph glyph-name="Ycircumflex.ss03" horiz-adv-x="1070" 
d="M1065 640l-405 -477v-163h-250v163l-405 477h295l329 -415h-185l326 415h295zM662 843v-150h-254v150h254z" />
    <glyph glyph-name="Ygrave.ss03" horiz-adv-x="1070" 
d="M1065 640l-405 -477v-163h-250v163l-405 477h295l329 -415h-185l326 415h295zM408 843h254v-150h-254v150z" />
    <glyph glyph-name="Zacute.ss03" horiz-adv-x="1200" 
d="M70 640h1060v-190l-728 -301l-8 41h736v-190h-1060v190l731 301l8 -41h-739v190zM727 893v-150h-254v150h254z" />
    <glyph glyph-name="Zcaron.ss03" horiz-adv-x="1200" 
d="M70 640h1060v-190l-728 -301l-8 41h736v-190h-1060v190l731 301l8 -41h-739v190zM727 893v-150h-254v150h254z" />
    <glyph glyph-name="T_h" horiz-adv-x="1983" 
d="M1030 640h240v-640h-240v640zM1698 202l240 100v-302h-240v202zM1938 302l-240 -100q0 45 -18 76t-63.5 46.5t-128.5 15.5q-47 0 -91.5 -8.5t-80 -20.5t-56.5 -24l-2 48q3 12 18.5 34.5t44.5 49t72.5 51t102.5 40t134 15.5q59 0 114 -11t98.5 -36.5t69.5 -68.5t26 -107z
M30 640h1040v-190h-1040v190zM425 463h250v-463h-250v463z" />
    <glyph glyph-name="i.loclTRK" horiz-adv-x="350" 
d="M55 490h240v-490h-240v490zM302 748v-150h-254v150h254z" />
    <glyph glyph-name="aacute.ss03" horiz-adv-x="1063" 
d="M408 -14q-108 0 -192 30.5t-132.5 88.5t-48.5 140q0 86 48.5 144t132.5 87t192 29q120 0 207.5 -32.5t135 -91t47.5 -136.5q0 -58 -27 -105.5t-78 -82t-123 -53t-162 -18.5zM498 138q76 0 139.5 9.5t102 32.5t38.5 65q0 43 -38.5 66t-102 32t-139.5 9q-102 0 -158 -26.5
t-56 -80.5q0 -35 25 -59t73 -36t116 -12zM778 490h240v-490h-226l-3.5 23t-7 66t-3.5 101v300zM641 753v-150h-254v150h254z" />
    <glyph glyph-name="abreve.ss03" horiz-adv-x="1063" 
d="M408 -14q-108 0 -192 30.5t-132.5 88.5t-48.5 140q0 86 48.5 144t132.5 87t192 29q120 0 207.5 -32.5t135 -91t47.5 -136.5q0 -58 -27 -105.5t-78 -82t-123 -53t-162 -18.5zM498 138q76 0 139.5 9.5t102 32.5t38.5 65q0 43 -38.5 66t-102 32t-139.5 9q-102 0 -158 -26.5
t-56 -80.5q0 -35 25 -59t73 -36t116 -12zM778 490h240v-490h-226l-3.5 23t-7 66t-3.5 101v300zM641 753v-150h-254v150h254z" />
    <glyph glyph-name="acircumflex.ss03" horiz-adv-x="1063" 
d="M408 -14q-108 0 -192 30.5t-132.5 88.5t-48.5 140q0 86 48.5 144t132.5 87t192 29q120 0 207.5 -32.5t135 -91t47.5 -136.5q0 -58 -27 -105.5t-78 -82t-123 -53t-162 -18.5zM498 138q76 0 139.5 9.5t102 32.5t38.5 65q0 43 -38.5 66t-102 32t-139.5 9q-102 0 -158 -26.5
t-56 -80.5q0 -35 25 -59t73 -36t116 -12zM778 490h240v-490h-226l-3.5 23t-7 66t-3.5 101v300zM641 753v-150h-254v150h254z" />
    <glyph glyph-name="agrave.ss03" horiz-adv-x="1063" 
d="M408 -14q-108 0 -192 30.5t-132.5 88.5t-48.5 140q0 86 48.5 144t132.5 87t192 29q120 0 207.5 -32.5t135 -91t47.5 -136.5q0 -58 -27 -105.5t-78 -82t-123 -53t-162 -18.5zM498 138q76 0 139.5 9.5t102 32.5t38.5 65q0 43 -38.5 66t-102 32t-139.5 9q-102 0 -158 -26.5
t-56 -80.5q0 -35 25 -59t73 -36t116 -12zM778 490h240v-490h-226l-3.5 23t-7 66t-3.5 101v300zM387 753h254v-150h-254v150z" />
    <glyph glyph-name="amacron.ss03" horiz-adv-x="1063" 
d="M408 -14q-108 0 -192 30.5t-132.5 88.5t-48.5 140q0 86 48.5 144t132.5 87t192 29q120 0 207.5 -32.5t135 -91t47.5 -136.5q0 -58 -27 -105.5t-78 -82t-123 -53t-162 -18.5zM498 138q76 0 139.5 9.5t102 32.5t38.5 65q0 43 -38.5 66t-102 32t-139.5 9q-102 0 -158 -26.5
t-56 -80.5q0 -35 25 -59t73 -36t116 -12zM778 490h240v-490h-226l-3.5 23t-7 66t-3.5 101v300zM641 753v-150h-254v150h254z" />
    <glyph glyph-name="aogonek.ss03" horiz-adv-x="1063" 
d="M408 -14q-108 0 -192 30.5t-132.5 88.5t-48.5 140q0 86 48.5 144t132.5 87t192 29q120 0 207.5 -32.5t135 -91t47.5 -136.5q0 -58 -27 -105.5t-78 -82t-123 -53t-162 -18.5zM498 138q76 0 139.5 9.5t102 32.5t38.5 65q0 43 -38.5 66t-102 32t-139.5 9q-102 0 -158 -26.5
t-56 -80.5q0 -35 25 -59t73 -36t116 -12zM778 490h240v-490h-226l-3.5 23t-7 66t-3.5 101v300zM1023 -49v-151h-254v151h254z" />
    <glyph glyph-name="aring.ss03" horiz-adv-x="1063" 
d="M408 -14q-108 0 -192 30.5t-132.5 88.5t-48.5 140q0 86 48.5 144t132.5 87t192 29q120 0 207.5 -32.5t135 -91t47.5 -136.5q0 -58 -27 -105.5t-78 -82t-123 -53t-162 -18.5zM498 138q76 0 139.5 9.5t102 32.5t38.5 65q0 43 -38.5 66t-102 32t-139.5 9q-102 0 -158 -26.5
t-56 -80.5q0 -35 25 -59t73 -36t116 -12zM778 490h240v-490h-226l-3.5 23t-7 66t-3.5 101v300zM641 753v-150h-254v150h254z" />
    <glyph glyph-name="atilde.ss03" horiz-adv-x="1063" 
d="M408 -14q-108 0 -192 30.5t-132.5 88.5t-48.5 140q0 86 48.5 144t132.5 87t192 29q120 0 207.5 -32.5t135 -91t47.5 -136.5q0 -58 -27 -105.5t-78 -82t-123 -53t-162 -18.5zM498 138q76 0 139.5 9.5t102 32.5t38.5 65q0 43 -38.5 66t-102 32t-139.5 9q-102 0 -158 -26.5
t-56 -80.5q0 -35 25 -59t73 -36t116 -12zM778 490h240v-490h-226l-3.5 23t-7 66t-3.5 101v300zM641 753v-150h-254v150h254z" />
    <glyph glyph-name="cacute.ss03" horiz-adv-x="994" 
d="M959 213q0 -72 -45 -123t-142 -78t-252 -27t-263.5 25t-165 82t-56.5 152t56.5 152.5t165 83t263.5 25.5t251 -27t141 -78t46 -122h-220q-16 39 -72 60.5t-146 21.5q-73 0 -127 -10.5t-83.5 -35.5t-29.5 -70q0 -44 29 -69t83 -35t128 -10q90 0 146.5 21.5t72.5 61.5h220z
M635 753v-150h-254v150h254z" />
    <glyph glyph-name="ccaron.ss03" horiz-adv-x="994" 
d="M959 213q0 -72 -45 -123t-142 -78t-252 -27t-263.5 25t-165 82t-56.5 152t56.5 152.5t165 83t263.5 25.5t251 -27t141 -78t46 -122h-220q-16 39 -72 60.5t-146 21.5q-73 0 -127 -10.5t-83.5 -35.5t-29.5 -70q0 -44 29 -69t83 -35t128 -10q90 0 146.5 21.5t72.5 61.5h220z
M635 753v-150h-254v150h254z" />
    <glyph glyph-name="ccedilla.ss03" horiz-adv-x="994" 
d="M959 213q0 -72 -45 -123t-142 -78t-252 -27t-263.5 25t-165 82t-56.5 152t56.5 152.5t165 83t263.5 25.5t251 -27t141 -78t46 -122h-220q-16 39 -72 60.5t-146 21.5q-73 0 -127 -10.5t-83.5 -35.5t-29.5 -70q0 -44 29 -69t83 -35t128 -10q90 0 146.5 21.5t72.5 61.5h220z
M645 -59v-151h-254v151h254z" />
    <glyph glyph-name="dcaron.ss03" horiz-adv-x="1098" 
d="M408 -14q-108 0 -192 30.5t-132.5 88.5t-48.5 140q0 86 48.5 144t132.5 87t192 29q90 0 162 -18.5t123 -53t78 -82.5t27 -106t-27 -105.5t-78 -82t-123 -53t-162 -18.5zM498 138q76 0 139.5 9.5t102 32.5t38.5 65q0 43 -38.5 66t-102 32t-139.5 9q-102 0 -158 -26.5
t-56 -80.5q0 -35 25 -59t73 -36t116 -12zM778 690h240v-690h-226q-4 23 -9 74.5t-5 115.5v500zM1323 690v-150h-254v150h254z" />
    <glyph glyph-name="eacute.ss03" horiz-adv-x="994" 
d="M721 176h236q-9 -58 -57.5 -101t-141 -66.5t-235.5 -23.5q-151 0 -260.5 24t-168.5 81t-59 154q0 96 57.5 153.5t166.5 82.5t264 25q152 0 249 -27t143 -87.5t44 -163.5h-680q5 -26 28.5 -48t73 -35.5t132.5 -13.5q86 0 141.5 12t66.5 34zM513 360q-106 0 -161.5 -23
t-65.5 -46h440q-7 26 -56 47.5t-157 21.5zM640 753v-150h-254v150h254z" />
    <glyph glyph-name="ecaron.ss03" horiz-adv-x="994" 
d="M721 176h236q-9 -58 -57.5 -101t-141 -66.5t-235.5 -23.5q-151 0 -260.5 24t-168.5 81t-59 154q0 96 57.5 153.5t166.5 82.5t264 25q152 0 249 -27t143 -87.5t44 -163.5h-680q5 -26 28.5 -48t73 -35.5t132.5 -13.5q86 0 141.5 12t66.5 34zM513 360q-106 0 -161.5 -23
t-65.5 -46h440q-7 26 -56 47.5t-157 21.5zM640 753v-150h-254v150h254z" />
    <glyph glyph-name="ecircumflex.ss03" horiz-adv-x="994" 
d="M721 176h236q-9 -58 -57.5 -101t-141 -66.5t-235.5 -23.5q-151 0 -260.5 24t-168.5 81t-59 154q0 96 57.5 153.5t166.5 82.5t264 25q152 0 249 -27t143 -87.5t44 -163.5h-680q5 -26 28.5 -48t73 -35.5t132.5 -13.5q86 0 141.5 12t66.5 34zM513 360q-106 0 -161.5 -23
t-65.5 -46h440q-7 26 -56 47.5t-157 21.5zM640 753v-150h-254v150h254z" />
    <glyph glyph-name="egrave.ss03" horiz-adv-x="994" 
d="M721 176h236q-9 -58 -57.5 -101t-141 -66.5t-235.5 -23.5q-151 0 -260.5 24t-168.5 81t-59 154q0 96 57.5 153.5t166.5 82.5t264 25q152 0 249 -27t143 -87.5t44 -163.5h-680q5 -26 28.5 -48t73 -35.5t132.5 -13.5q86 0 141.5 12t66.5 34zM513 360q-106 0 -161.5 -23
t-65.5 -46h440q-7 26 -56 47.5t-157 21.5zM386 753h254v-150h-254v150z" />
    <glyph glyph-name="emacron.ss03" horiz-adv-x="994" 
d="M721 176h236q-9 -58 -57.5 -101t-141 -66.5t-235.5 -23.5q-151 0 -260.5 24t-168.5 81t-59 154q0 96 57.5 153.5t166.5 82.5t264 25q152 0 249 -27t143 -87.5t44 -163.5h-680q5 -26 28.5 -48t73 -35.5t132.5 -13.5q86 0 141.5 12t66.5 34zM513 360q-106 0 -161.5 -23
t-65.5 -46h440q-7 26 -56 47.5t-157 21.5zM640 753v-150h-254v150h254z" />
    <glyph glyph-name="eogonek.ss03" horiz-adv-x="994" 
d="M721 176h236q-9 -58 -57.5 -101t-141 -66.5t-235.5 -23.5q-151 0 -260.5 24t-168.5 81t-59 154q0 96 57.5 153.5t166.5 82.5t264 25q152 0 249 -27t143 -87.5t44 -163.5h-680q5 -26 28.5 -48t73 -35.5t132.5 -13.5q86 0 141.5 12t66.5 34zM513 360q-106 0 -161.5 -23
t-65.5 -46h440q-7 26 -56 47.5t-157 21.5zM979 -49v-151h-254v151h254z" />
    <glyph glyph-name="gbreve.ss03" horiz-adv-x="969" 
d="M449 69q-142 0 -234 23.5t-136 71t-44 119.5q0 67 43 116.5t134.5 77.5t236.5 28h59h59h382v-126q-65 -3 -131.5 6.5t-122.5 25.5l-11 15q45 -14 85.5 -36t65.5 -53t25 -74q0 -62 -42.5 -105.5t-133 -66t-235.5 -22.5zM662 -215v27q0 30 -26.5 35.5t-83.5 5.5h-279
q-71 0 -114.5 10t-66 27t-30 37.5t-7.5 40.5q0 43 32 67.5t98 34.5t168 10l96 -11q-84 0 -117 -8.5t-33 -33.5q0 -14 13 -20.5t35 -6.5h295q99 0 156 -14.5t80.5 -49t23.5 -94.5v-57h-240zM449 200q66 0 106.5 10.5t58.5 28.5t18 40q0 25 -18 43t-58 28t-107 10
q-66 0 -107 -10t-60 -28t-19 -43q0 -22 18.5 -40t59.5 -28.5t108 -10.5zM576 753v-150h-254v150h254z" />
    <glyph glyph-name="uni0123.ss03" horiz-adv-x="969" 
d="M449 69q-142 0 -234 23.5t-136 71t-44 119.5q0 67 43 116.5t134.5 77.5t236.5 28h59h59h382v-126q-65 -3 -131.5 6.5t-122.5 25.5l-11 15q45 -14 85.5 -36t65.5 -53t25 -74q0 -62 -42.5 -105.5t-133 -66t-235.5 -22.5zM662 -215v27q0 30 -26.5 35.5t-83.5 5.5h-279
q-71 0 -114.5 10t-66 27t-30 37.5t-7.5 40.5q0 43 32 67.5t98 34.5t168 10l96 -11q-84 0 -117 -8.5t-33 -33.5q0 -14 13 -20.5t35 -6.5h295q99 0 156 -14.5t80.5 -49t23.5 -94.5v-57h-240zM449 200q66 0 106.5 10.5t58.5 28.5t18 40q0 25 -18 43t-58 28t-107 10
q-66 0 -107 -10t-60 -28t-19 -43q0 -22 18.5 -40t59.5 -28.5t108 -10.5zM322 559v151h254v-151h-254z" />
    <glyph glyph-name="iacute.ss03" horiz-adv-x="350" 
d="M55 490h240v-490h-240v490zM302 748v-150h-254v150h254z" />
    <glyph glyph-name="icircumflex.ss03" horiz-adv-x="350" 
d="M55 490h240v-490h-240v490zM302 748v-150h-254v150h254z" />
    <glyph glyph-name="igrave.ss03" horiz-adv-x="350" 
d="M55 490h240v-490h-240v490zM48 748h254v-150h-254v150z" />
    <glyph glyph-name="imacron.ss03" horiz-adv-x="350" 
d="M55 490h240v-490h-240v490zM302 748v-150h-254v150h254z" />
    <glyph glyph-name="iogonek.ss03" horiz-adv-x="364" 
d="M309 747v-150h-254v150h254zM62 490h240v-490h-240v490zM307 -49v-151h-254v151h254z" />
    <glyph glyph-name="uni0137.ss03" horiz-adv-x="942" 
d="M55 690h240v-690h-240v690zM903 490l-396 -275l5 130l425 -345h-304l-334 279l286 211h318zM566 -49v-151h-254v151h254z" />
    <glyph glyph-name="lacute.ss03" horiz-adv-x="360" 
d="M60 690h240v-690h-240v690zM314 943v-150h-254v150h254z" />
    <glyph glyph-name="lcaron.ss03" horiz-adv-x="614" 
d="M60 690h240v-690h-240v690zM614 627v-150h-254v150h254z" />
    <glyph glyph-name="uni013C.ss03" horiz-adv-x="360" 
d="M60 690h240v-690h-240v690zM308 -49v-151h-254v151h254z" />
    <glyph glyph-name="nacute.ss03" horiz-adv-x="998" 
d="M45 490h240v-490h-240v490zM645 505q59 0 114 -12.5t98.5 -42.5t69.5 -82t26 -131v-237h-240v207q0 75 -39 106.5t-141 31.5q-54 0 -104.5 -12t-90.5 -28.5t-63 -32.5l-2 38q4 18 27.5 50.5t68.5 65.5t113.5 56t162.5 23zM676 753v-150h-254v150h254z" />
    <glyph glyph-name="ncaron.ss03" horiz-adv-x="998" 
d="M45 490h240v-490h-240v490zM645 505q59 0 114 -12.5t98.5 -42.5t69.5 -82t26 -131v-237h-240v207q0 75 -39 106.5t-141 31.5q-54 0 -104.5 -12t-90.5 -28.5t-63 -32.5l-2 38q4 18 27.5 50.5t68.5 65.5t113.5 56t162.5 23zM676 753v-150h-254v150h254z" />
    <glyph glyph-name="uni0146.ss03" horiz-adv-x="998" 
d="M45 490h240v-490h-240v490zM645 505q59 0 114 -12.5t98.5 -42.5t69.5 -82t26 -131v-237h-240v207q0 75 -39 106.5t-141 31.5q-54 0 -104.5 -12t-90.5 -28.5t-63 -32.5l-2 38q4 18 27.5 50.5t68.5 65.5t113.5 56t162.5 23zM626 -49v-151h-254v151h254z" />
    <glyph glyph-name="ntilde.ss03" horiz-adv-x="998" 
d="M45 490h240v-490h-240v490zM645 505q59 0 114 -12.5t98.5 -42.5t69.5 -82t26 -131v-237h-240v207q0 75 -39 106.5t-141 31.5q-54 0 -104.5 -12t-90.5 -28.5t-63 -32.5l-2 38q4 18 27.5 50.5t68.5 65.5t113.5 56t162.5 23zM676 753v-150h-254v150h254z" />
    <glyph glyph-name="oacute.ss03" horiz-adv-x="1016" 
d="M510 -15q-159 0 -264.5 26t-158 83t-52.5 150t52.5 150.5t158 84t264.5 26.5q158 0 262.5 -26.5t156.5 -84t52 -150.5t-52 -150t-156.5 -83t-262.5 -26zM510 130q74 0 124 12.5t76 38t26 63.5t-25.5 64t-75.5 39t-125 13q-74 0 -125.5 -13t-78 -38.5t-26.5 -64.5
q0 -38 26 -63.5t77.5 -38t126.5 -12.5zM637 753v-150h-254v150h254z" />
    <glyph glyph-name="ocircumflex.ss03" horiz-adv-x="1016" 
d="M510 -15q-159 0 -264.5 26t-158 83t-52.5 150t52.5 150.5t158 84t264.5 26.5q158 0 262.5 -26.5t156.5 -84t52 -150.5t-52 -150t-156.5 -83t-262.5 -26zM510 130q74 0 124 12.5t76 38t26 63.5t-25.5 64t-75.5 39t-125 13q-74 0 -125.5 -13t-78 -38.5t-26.5 -64.5
q0 -38 26 -63.5t77.5 -38t126.5 -12.5zM637 753v-150h-254v150h254z" />
    <glyph glyph-name="ograve.ss03" horiz-adv-x="1016" 
d="M510 -15q-159 0 -264.5 26t-158 83t-52.5 150t52.5 150.5t158 84t264.5 26.5q158 0 262.5 -26.5t156.5 -84t52 -150.5t-52 -150t-156.5 -83t-262.5 -26zM510 130q74 0 124 12.5t76 38t26 63.5t-25.5 64t-75.5 39t-125 13q-74 0 -125.5 -13t-78 -38.5t-26.5 -64.5
q0 -38 26 -63.5t77.5 -38t126.5 -12.5zM383 753h254v-150h-254v150z" />
    <glyph glyph-name="ohungarumlaut.ss03" horiz-adv-x="1016" 
d="M510 -15q-159 0 -264.5 26t-158 83t-52.5 150t52.5 150.5t158 84t264.5 26.5q158 0 262.5 -26.5t156.5 -84t52 -150.5t-52 -150t-156.5 -83t-262.5 -26zM510 130q74 0 124 12.5t76 38t26 63.5t-25.5 64t-75.5 39t-125 13q-74 0 -125.5 -13t-78 -38.5t-26.5 -64.5
q0 -38 26 -63.5t77.5 -38t126.5 -12.5zM485 753v-151h-254v151h254zM789 753v-151h-254v151h254z" />
    <glyph glyph-name="omacron.ss03" horiz-adv-x="1016" 
d="M510 -15q-159 0 -264.5 26t-158 83t-52.5 150t52.5 150.5t158 84t264.5 26.5q158 0 262.5 -26.5t156.5 -84t52 -150.5t-52 -150t-156.5 -83t-262.5 -26zM510 130q74 0 124 12.5t76 38t26 63.5t-25.5 64t-75.5 39t-125 13q-74 0 -125.5 -13t-78 -38.5t-26.5 -64.5
q0 -38 26 -63.5t77.5 -38t126.5 -12.5zM637 753v-150h-254v150h254z" />
    <glyph glyph-name="otilde.ss03" horiz-adv-x="1016" 
d="M510 -15q-159 0 -264.5 26t-158 83t-52.5 150t52.5 150.5t158 84t264.5 26.5q158 0 262.5 -26.5t156.5 -84t52 -150.5t-52 -150t-156.5 -83t-262.5 -26zM510 130q74 0 124 12.5t76 38t26 63.5t-25.5 64t-75.5 39t-125 13q-74 0 -125.5 -13t-78 -38.5t-26.5 -64.5
q0 -38 26 -63.5t77.5 -38t126.5 -12.5zM637 753v-150h-254v150h254z" />
    <glyph glyph-name="racute.ss03" horiz-adv-x="563" 
d="M45 490h240v-490h-240v490zM543 305q-65 0 -119 -12t-92 -28.5t-57 -32.5l-2 48q3 21 16 49.5t35 59t54 57t73.5 43t91.5 16.5v-200zM469 753v-150h-254v150h254z" />
    <glyph glyph-name="rcaron.ss03" horiz-adv-x="563" 
d="M45 490h240v-490h-240v490zM543 305q-65 0 -119 -12t-92 -28.5t-57 -32.5l-2 48q3 21 16 49.5t35 59t54 57t73.5 43t91.5 16.5v-200zM469 753v-150h-254v150h254z" />
    <glyph glyph-name="uni0157.ss03" horiz-adv-x="563" 
d="M45 490h240v-490h-240v490zM543 305q-65 0 -119 -12t-92 -28.5t-57 -32.5l-2 48q3 21 16 49.5t35 59t54 57t73.5 43t91.5 16.5v-200zM293 -49v-151h-254v151h254z" />
    <glyph glyph-name="sacute.ss03" horiz-adv-x="842" 
d="M40 176h221q14 -26 53.5 -36t113.5 -10q57 0 84.5 6t36 16t8.5 21q0 17 -18.5 23.5t-62.5 8t-121 1.5q-73 0 -130.5 6.5t-97.5 21t-61 40.5t-21 65q0 48 31 80.5t84 51t122.5 26.5t145.5 8q126 0 206 -25.5t118 -68.5t37 -97h-215q-11 26 -41.5 36t-104.5 10
q-70 0 -101.5 -10.5t-31.5 -33.5q0 -15 15.5 -22.5t59 -10.5t127.5 -3q58 0 113.5 -4t100 -17t70.5 -40t26 -74q0 -57 -46.5 -92.5t-131.5 -51.5t-201 -16q-101 0 -170.5 13t-113.5 34.5t-67.5 47t-31 51t-5.5 45.5zM540 753v-150h-254v150h254z" />
    <glyph glyph-name="scaron.ss03" horiz-adv-x="842" 
d="M40 176h221q14 -26 53.5 -36t113.5 -10q57 0 84.5 6t36 16t8.5 21q0 17 -18.5 23.5t-62.5 8t-121 1.5q-73 0 -130.5 6.5t-97.5 21t-61 40.5t-21 65q0 48 31 80.5t84 51t122.5 26.5t145.5 8q126 0 206 -25.5t118 -68.5t37 -97h-215q-11 26 -41.5 36t-104.5 10
q-70 0 -101.5 -10.5t-31.5 -33.5q0 -15 15.5 -22.5t59 -10.5t127.5 -3q58 0 113.5 -4t100 -17t70.5 -40t26 -74q0 -57 -46.5 -92.5t-131.5 -51.5t-201 -16q-101 0 -170.5 13t-113.5 34.5t-67.5 47t-31 51t-5.5 45.5zM540 753v-150h-254v150h254z" />
    <glyph glyph-name="scedilla.ss03" horiz-adv-x="842" 
d="M40 176h221q14 -26 53.5 -36t113.5 -10q57 0 84.5 6t36 16t8.5 21q0 17 -18.5 23.5t-62.5 8t-121 1.5q-73 0 -130.5 6.5t-97.5 21t-61 40.5t-21 65q0 48 31 80.5t84 51t122.5 26.5t145.5 8q126 0 206 -25.5t118 -68.5t37 -97h-215q-11 26 -41.5 36t-104.5 10
q-70 0 -101.5 -10.5t-31.5 -33.5q0 -15 15.5 -22.5t59 -10.5t127.5 -3q58 0 113.5 -4t100 -17t70.5 -40t26 -74q0 -57 -46.5 -92.5t-131.5 -51.5t-201 -16q-101 0 -170.5 13t-113.5 34.5t-67.5 47t-31 51t-5.5 45.5zM576 -59v-151h-254v151h254z" />
    <glyph glyph-name="uni0219.ss03" horiz-adv-x="842" 
d="M40 176h221q14 -26 53.5 -36t113.5 -10q57 0 84.5 6t36 16t8.5 21q0 17 -18.5 23.5t-62.5 8t-121 1.5q-73 0 -130.5 6.5t-97.5 21t-61 40.5t-21 65q0 48 31 80.5t84 51t122.5 26.5t145.5 8q126 0 206 -25.5t118 -68.5t37 -97h-215q-11 26 -41.5 36t-104.5 10
q-70 0 -101.5 -10.5t-31.5 -33.5q0 -15 15.5 -22.5t59 -10.5t127.5 -3q58 0 113.5 -4t100 -17t70.5 -40t26 -74q0 -57 -46.5 -92.5t-131.5 -51.5t-201 -16q-101 0 -170.5 13t-113.5 34.5t-67.5 47t-31 51t-5.5 45.5zM576 -59v-151h-254v151h254z" />
    <glyph glyph-name="tcaron.ss03" horiz-adv-x="628" 
d="M20 490h588v-150h-588v150zM194 640h240v-640h-240v640zM725 756v-150h-254v150h254z" />
    <glyph glyph-name="uni0163.ss03" horiz-adv-x="628" 
d="M20 490h588v-150h-588v150zM194 640h240v-640h-240v640zM441 -49v-151h-254v151h254z" />
    <glyph glyph-name="uni021B.ss03" horiz-adv-x="628" 
d="M20 490h588v-150h-588v150zM194 640h240v-640h-240v640zM441 -49v-151h-254v151h254z" />
    <glyph glyph-name="uacute.ss03" horiz-adv-x="998" 
d="M953 0h-240v490h240v-490zM723 253l2 -48q-3 -21 -19.5 -49t-45.5 -58t-71 -55.5t-96 -41.5t-120 -16t-125 13.5t-105 44.5t-72 83.5t-26 131.5v232h240v-207q0 -55 18.5 -85t58.5 -41.5t103 -11.5q59 0 109.5 17.5t89 42.5t59.5 48zM640 753v-150h-254v150h254z" />
    <glyph glyph-name="ucircumflex.ss03" horiz-adv-x="998" 
d="M953 0h-240v490h240v-490zM723 253l2 -48q-3 -21 -19.5 -49t-45.5 -58t-71 -55.5t-96 -41.5t-120 -16t-125 13.5t-105 44.5t-72 83.5t-26 131.5v232h240v-207q0 -55 18.5 -85t58.5 -41.5t103 -11.5q59 0 109.5 17.5t89 42.5t59.5 48zM640 753v-150h-254v150h254z" />
    <glyph glyph-name="ugrave.ss03" horiz-adv-x="998" 
d="M953 0h-240v490h240v-490zM723 253l2 -48q-3 -21 -19.5 -49t-45.5 -58t-71 -55.5t-96 -41.5t-120 -16t-125 13.5t-105 44.5t-72 83.5t-26 131.5v232h240v-207q0 -55 18.5 -85t58.5 -41.5t103 -11.5q59 0 109.5 17.5t89 42.5t59.5 48zM386 753h254v-150h-254v150z" />
    <glyph glyph-name="uhungarumlaut.ss03" horiz-adv-x="998" 
d="M953 0h-240v490h240v-490zM723 253l2 -48q-3 -21 -19.5 -49t-45.5 -58t-71 -55.5t-96 -41.5t-120 -16t-125 13.5t-105 44.5t-72 83.5t-26 131.5v232h240v-207q0 -55 18.5 -85t58.5 -41.5t103 -11.5q59 0 109.5 17.5t89 42.5t59.5 48zM488 753v-151h-254v151h254zM792 753
v-151h-254v151h254z" />
    <glyph glyph-name="umacron.ss03" horiz-adv-x="998" 
d="M953 0h-240v490h240v-490zM723 253l2 -48q-3 -21 -19.5 -49t-45.5 -58t-71 -55.5t-96 -41.5t-120 -16t-125 13.5t-105 44.5t-72 83.5t-26 131.5v232h240v-207q0 -55 18.5 -85t58.5 -41.5t103 -11.5q59 0 109.5 17.5t89 42.5t59.5 48zM640 753v-150h-254v150h254z" />
    <glyph glyph-name="uogonek.ss03" horiz-adv-x="998" 
d="M953 0h-240v490h240v-490zM723 253l2 -48q-3 -21 -19.5 -49t-45.5 -58t-71 -55.5t-96 -41.5t-120 -16t-125 13.5t-105 44.5t-72 83.5t-26 131.5v232h240v-207q0 -55 18.5 -85t58.5 -41.5t103 -11.5q59 0 109.5 17.5t89 42.5t59.5 48zM970 -49v-151h-254v151h254z" />
    <glyph glyph-name="uring.ss03" horiz-adv-x="998" 
d="M953 0h-240v490h240v-490zM723 253l2 -48q-3 -21 -19.5 -49t-45.5 -58t-71 -55.5t-96 -41.5t-120 -16t-125 13.5t-105 44.5t-72 83.5t-26 131.5v232h240v-207q0 -55 18.5 -85t58.5 -41.5t103 -11.5q59 0 109.5 17.5t89 42.5t59.5 48zM640 753v-150h-254v150h254z" />
    <glyph glyph-name="wacute.ss03" horiz-adv-x="1462" 
d="M1079 92l-104 2l217 396h265l-309 -490h-226l-253 380l118 -1l-263 -379h-226l-293 490h264l204 -396h-103l226 396h265zM855 753v-150h-254v150h254z" />
    <glyph glyph-name="wcircumflex.ss03" horiz-adv-x="1462" 
d="M1079 92l-104 2l217 396h265l-309 -490h-226l-253 380l118 -1l-263 -379h-226l-293 490h264l204 -396h-103l226 396h265zM855 753v-150h-254v150h254z" />
    <glyph glyph-name="wgrave.ss03" horiz-adv-x="1462" 
d="M1079 92l-104 2l217 396h265l-309 -490h-226l-253 380l118 -1l-263 -379h-226l-293 490h264l204 -396h-103l226 396h265zM601 753h254v-150h-254v150z" />
    <glyph glyph-name="yacute.ss03" horiz-adv-x="930" 
d="M5 490h255l292 -470l-207 -20zM925 490l-487 -690h-245l209 283l268 407h255zM602 753v-150h-254v150h254z" />
    <glyph glyph-name="ycircumflex.ss03" horiz-adv-x="930" 
d="M5 490h255l292 -470l-207 -20zM925 490l-487 -690h-245l209 283l268 407h255zM602 753v-150h-254v150h254z" />
    <glyph glyph-name="ygrave.ss03" horiz-adv-x="930" 
d="M5 490h255l292 -470l-207 -20zM925 490l-487 -690h-245l209 283l268 407h255zM348 753h254v-150h-254v150z" />
    <glyph glyph-name="zacute.ss03" horiz-adv-x="896" 
d="M830 340l-541 -233l-9 43h556v-150h-776v150l537 233l9 -43h-546v150h770v-150zM571 753v-150h-254v150h254z" />
    <glyph glyph-name="zcaron.ss03" horiz-adv-x="896" 
d="M830 340l-541 -233l-9 43h556v-150h-776v150l537 233l9 -43h-546v150h770v-150zM571 753v-150h-254v150h254z" />
    <glyph glyph-name="g.ss04" horiz-adv-x="979" 
d="M263 -324q-96 0 -145 12.5t-66 35.5t-17 52q0 47 42.5 78t130.5 42q-66 9 -104.5 25t-38.5 59q0 38 30.5 60t94.5 31t163 9l96 -11q-82 0 -126 -8.5t-44 -31.5q0 -14 9 -20t20.5 -7.5t18.5 -1.5h315q53 0 102.5 -5.5t90 -20.5t64 -44t23.5 -76q0 -99 -90.5 -138.5
t-259.5 -39.5h-309zM347 -197h225q55 0 87.5 10.5t32.5 39.5q0 20 -15 28t-41.5 10t-63.5 2h-153q-66 0 -103 -4t-52 -14t-15 -28q0 -22 23 -33t75 -11zM450 69q-143 0 -235 23.5t-136 70t-44 114.5q0 72 46 123.5t133 78.5t209 27q55 0 99.5 -4.5t63.5 -8.5l-56 -27
q36 -7 80 -17t88 -25.5t80.5 -38t59 -55t22.5 -76.5q0 -56 -42.5 -97.5t-133 -64.5t-234.5 -23zM448 200q67 0 107 10.5t58.5 29t18.5 41.5q0 24 -18 41.5t-58.5 27.5t-106.5 10t-107 -10t-60 -27.5t-19 -41.5q0 -23 18.5 -41.5t59 -29t107.5 -10.5zM949 379q-60 -3 -120 5
t-113.5 21.5t-95.5 27.5t-66 23.5l-24 9.5l-81 39h500v-126z" />
    <glyph glyph-name="gbreve.ss04" horiz-adv-x="979" 
d="M263 -324q-96 0 -145 12.5t-66 35.5t-17 52q0 47 42.5 78t130.5 42q-66 9 -104.5 25t-38.5 59q0 38 30.5 60t94.5 31t163 9l96 -11q-82 0 -126 -8.5t-44 -31.5q0 -14 9 -20t20.5 -7.5t18.5 -1.5h315q53 0 102.5 -5.5t90 -20.5t64 -44t23.5 -76q0 -99 -90.5 -138.5
t-259.5 -39.5h-309zM347 -197h225q55 0 87.5 10.5t32.5 39.5q0 20 -15 28t-41.5 10t-63.5 2h-153q-66 0 -103 -4t-52 -14t-15 -28q0 -22 23 -33t75 -11zM450 69q-143 0 -235 23.5t-136 70t-44 114.5q0 72 46 123.5t133 78.5t209 27q55 0 99.5 -4.5t63.5 -8.5l-56 -27
q36 -7 80 -17t88 -25.5t80.5 -38t59 -55t22.5 -76.5q0 -56 -42.5 -97.5t-133 -64.5t-234.5 -23zM448 200q67 0 107 10.5t58.5 29t18.5 41.5q0 24 -18 41.5t-58.5 27.5t-106.5 10t-107 -10t-60 -27.5t-19 -41.5q0 -23 18.5 -41.5t59 -29t107.5 -10.5zM949 379q-60 -3 -120 5
t-113.5 21.5t-95.5 27.5t-66 23.5l-24 9.5l-81 39h500v-126zM824 730q-20 -40 -65 -72.5t-121 -52t-189 -19.5t-189 19.5t-121 52t-65 72.5h150q22 -14 75 -29t150 -15t149.5 15t75.5 29h150z" />
    <glyph glyph-name="uni0123.ss04" horiz-adv-x="979" 
d="M263 -324q-96 0 -145 12.5t-66 35.5t-17 52q0 47 42.5 78t130.5 42q-66 9 -104.5 25t-38.5 59q0 38 30.5 60t94.5 31t163 9l96 -11q-82 0 -126 -8.5t-44 -31.5q0 -14 9 -20t20.5 -7.5t18.5 -1.5h315q53 0 102.5 -5.5t90 -20.5t64 -44t23.5 -76q0 -99 -90.5 -138.5
t-259.5 -39.5h-309zM347 -197h225q55 0 87.5 10.5t32.5 39.5q0 20 -15 28t-41.5 10t-63.5 2h-153q-66 0 -103 -4t-52 -14t-15 -28q0 -22 23 -33t75 -11zM450 69q-143 0 -235 23.5t-136 70t-44 114.5q0 72 46 123.5t133 78.5t209 27q55 0 99.5 -4.5t63.5 -8.5l-56 -27
q36 -7 80 -17t88 -25.5t80.5 -38t59 -55t22.5 -76.5q0 -56 -42.5 -97.5t-133 -64.5t-234.5 -23zM448 200q67 0 107 10.5t58.5 29t18.5 41.5q0 24 -18 41.5t-58.5 27.5t-106.5 10t-107 -10t-60 -27.5t-19 -41.5q0 -23 18.5 -41.5t59 -29t107.5 -10.5zM949 379q-60 -3 -120 5
t-113.5 21.5t-95.5 27.5t-66 23.5l-24 9.5l-81 39h500v-126zM548 793l13 -62q-22 -5 -46 -17t-27 -27l88 -11v-117h-253v77q0 54 53.5 99t171.5 58z" />
    <glyph glyph-name="gdotaccent.ss04" horiz-adv-x="979" 
d="M263 -324q-96 0 -145 12.5t-66 35.5t-17 52q0 47 42.5 78t130.5 42q-66 9 -104.5 25t-38.5 59q0 38 30.5 60t94.5 31t163 9l96 -11q-82 0 -126 -8.5t-44 -31.5q0 -14 9 -20t20.5 -7.5t18.5 -1.5h315q53 0 102.5 -5.5t90 -20.5t64 -44t23.5 -76q0 -99 -90.5 -138.5
t-259.5 -39.5h-309zM347 -197h225q55 0 87.5 10.5t32.5 39.5q0 20 -15 28t-41.5 10t-63.5 2h-153q-66 0 -103 -4t-52 -14t-15 -28q0 -22 23 -33t75 -11zM450 69q-143 0 -235 23.5t-136 70t-44 114.5q0 72 46 123.5t133 78.5t209 27q55 0 99.5 -4.5t63.5 -8.5l-56 -27
q36 -7 80 -17t88 -25.5t80.5 -38t59 -55t22.5 -76.5q0 -56 -42.5 -97.5t-133 -64.5t-234.5 -23zM448 200q67 0 107 10.5t58.5 29t18.5 41.5q0 24 -18 41.5t-58.5 27.5t-106.5 10t-107 -10t-60 -27.5t-19 -41.5q0 -23 18.5 -41.5t59 -29t107.5 -10.5zM949 379q-60 -3 -120 5
t-113.5 21.5t-95.5 27.5t-66 23.5l-24 9.5l-81 39h500v-126zM576 753v-150h-254v150h254z" />
    <glyph glyph-name="t_i" horiz-adv-x="933" 
d="M20 490h648v-150h-648v150zM194 640h240v-640h-240v640zM878 747v-150h-254v150h254zM631 490h240v-490h-240v490z" />
    <glyph glyph-name="t_y" horiz-adv-x="1409" 
d="M20 490h598v-150h-598v150zM194 640h240v-640h-240v640zM484 490h255l292 -470l-207 -20zM1404 490l-487 -690h-245l209 283l268 407h255z" />
    <glyph glyph-name="epsilon.ss05" horiz-adv-x="994" 
d="M959 213q0 -72 -45 -123t-142 -78t-252 -27t-263.5 25t-165 82t-56.5 152t56.5 152.5t165 83t263.5 25.5t251 -27t141 -78t46 -122h-220q-16 39 -72 60.5t-146 21.5q-73 0 -127 -10.5t-83.5 -35.5t-29.5 -70q0 -44 29 -69t83 -35t128 -10q90 0 146.5 21.5t72.5 61.5h220z
M232 281h431v-64h-431v64z" />
    <glyph glyph-name="epsilontonos.ss05" horiz-adv-x="994" 
d="M959 213q0 -72 -45 -123t-142 -78t-252 -27t-263.5 25t-165 82t-56.5 152t56.5 152.5t165 83t263.5 25.5t251 -27t141 -78t46 -122h-220q-16 39 -72 60.5t-146 21.5q-73 0 -127 -10.5t-83.5 -35.5t-29.5 -70q0 -44 29 -69t83 -35t128 -10q90 0 146.5 21.5t72.5 61.5h220z
M232 281h431v-64h-431v64zM374 602l202 150h320l-281 -150h-241z" />
    <glyph glyph-name="zero.lf" horiz-adv-x="1170" 
d="M585 660q178 0 294.5 -38.5t173.5 -114t57 -187.5t-57 -187.5t-173.5 -114t-294.5 -38.5t-294.5 38.5t-173.5 114t-57 187.5t57 187.5t173.5 114t294.5 38.5zM585 160q47 0 92.5 7t82 24.5t58.5 48.5t22 80q0 47 -22 77t-58.5 47t-82 24t-92.5 7t-94 -7t-85.5 -24
t-62 -47t-23.5 -77q0 -49 23.5 -80t62 -48.5t85.5 -24.5t94 -7z" />
    <glyph glyph-name="one.lf" horiz-adv-x="529" 
d="M25 460v180h434v-640h-240v460h-194z" />
    <glyph glyph-name="two.lf" horiz-adv-x="1028" 
d="M518 218l-311 -43l-1 15h781v-190h-910v190q163 38 275.5 66.5t185 49.5t113 37t58.5 28t22 22.5t4 21.5q0 17 -17.5 29.5t-64 19.5t-134.5 7q-114 0 -169 -16.5t-60 -51.5h-250q0 74 51.5 132t155.5 91.5t261 33.5q101 0 188 -8.5t152.5 -32t102.5 -67t37 -114.5
q0 -58 -36.5 -95.5t-101 -60t-149.5 -37t-183 -27.5z" />
    <glyph glyph-name="three.lf" horiz-adv-x="1055" 
d="M591 322l-2 6q94 -1 173 -5t136.5 -18.5t89.5 -44.5t32 -82q0 -67 -60.5 -110.5t-172.5 -65.5t-266 -22q-156 0 -264.5 28t-165 83.5t-56.5 136.5h251q2 -22 33.5 -35t84.5 -18t117 -5q119 0 176.5 9t57.5 49q0 37 -70 46t-205 9h-149v70h149q99 0 156 5.5t80.5 19
t23.5 35.5q0 32 -51.5 44.5t-162.5 12.5q-106 0 -170.5 -17t-68.5 -50h-249q0 67 38 115.5t105.5 80t156 46.5t188.5 15q152 0 257.5 -19t161 -58t55.5 -99q0 -48 -30 -79t-85 -48.5t-130 -25t-164 -9.5z" />
    <glyph glyph-name="four.lf" horiz-adv-x="1094" 
d="M900 640v-640h-240v536l91 -50l-443 -284l-17 58h385v-150h-626v150l610 380h240zM884 110v150h180v-150h-180z" />
    <glyph glyph-name="five.lf" horiz-adv-x="1010" 
d="M645 386q62 0 118.5 -8.5t100.5 -29.5t70 -57t26 -90q0 -75 -49 -124t-146.5 -73t-243.5 -24q-95 0 -180 14.5t-150.5 43t-103 68.5t-37.5 91h220q3 -14 37 -25t86.5 -16.5t110.5 -5.5q38 0 76.5 1t70 6t50.5 16t19 31q0 21 -19.5 32.5t-51.5 16.5t-70 6t-75 1
q-45 0 -93 -3.5t-86.5 -8t-57.5 -9.5l-198 35l50 376h759v-190h-543l-25 -181l-31 9q26 24 82 46.5t130 37t154 14.5z" />
    <glyph glyph-name="six.lf" horiz-adv-x="1133" 
d="M692 440q134 0 224.5 -29t136 -80t45.5 -117t-51 -119t-159 -84t-278 -31q-190 0 -319 24t-195 73t-66 125q0 24 11.5 56t50.5 67q5 5 31.5 28t67 57t89 75t99.5 83.5t97 81.5h338l-634 -448l-63 -50q78 70 143.5 124t130 90.5t137 55t164.5 18.5zM588 151q126 0 193 16
t67 52q0 33 -67 52t-193 19q-142 0 -225 -19t-83 -52q0 -36 83 -52t225 -16z" />
    <glyph glyph-name="seven.lf" horiz-adv-x="1063" 
d="M20 450v190h1013v-190l-505 -450h-327l593 521l27 -71h-801z" />
    <glyph glyph-name="eight.lf" horiz-adv-x="1081" 
d="M540 339q-174 0 -278.5 13.5t-151 45.5t-46.5 86q0 55 46.5 94t151 60.5t278.5 21.5q175 0 279.5 -21.5t151 -60.5t46.5 -94q0 -54 -46.5 -86t-151 -45.5t-279.5 -13.5zM540 379q94 0 144 7t69 19t19 27t-19 25.5t-69 15.5t-144 5q-93 0 -140.5 -5t-64 -15.5t-16.5 -25.5
t16.5 -27t64 -19t140.5 -7zM540 -20q-185 0 -296 26t-160 71t-49 101q0 69 51.5 105t162.5 49t291 13t291.5 -13t163 -49t51.5 -105q0 -56 -49.5 -101t-160.5 -71t-296 -26zM540 169q104 0 160.5 5.5t78.5 17t22 28.5t-22 28t-78.5 16.5t-160.5 5.5q-103 0 -157 -5.5
t-73.5 -16.5t-19.5 -28t19.5 -28.5t73.5 -17t157 -5.5z" />
    <glyph glyph-name="nine.lf" horiz-adv-x="1153" 
d="M441 210q-134 0 -224.5 29t-136 80t-45.5 117q0 72 53 123t169.5 78.5t306.5 27.5t314 -23t184.5 -70.5t60.5 -123.5q0 -31 -17 -65t-60 -73q-4 -4 -26 -23t-55.5 -47t-72.5 -60t-77 -64t-69.5 -58t-50.5 -42l-19 -16h-337l633 448l64 40q-78 -66 -145 -118t-134.5 -87.5
t-143.5 -54t-172 -18.5zM564 500q-142 0 -210.5 -14.5t-68.5 -54.5q0 -37 68.5 -54t210.5 -17t225.5 17t83.5 54q0 27 -38 42t-107 21t-164 6z" />
    <glyph glyph-name="zero.osf" horiz-adv-x="1016" 
d="M510 -15q-159 0 -264.5 26t-158 83t-52.5 150t52.5 150.5t158 84t264.5 26.5q158 0 262.5 -26.5t156.5 -84t52 -150.5t-52 -150t-156.5 -83t-262.5 -26zM510 135q74 0 124 12.5t76 36.5t26 60t-25.5 60.5t-75.5 37.5t-124 13q-75 0 -126.5 -12.5t-78 -37.5t-26.5 -61
t26 -60t77.5 -36.5t126.5 -12.5z" />
    <glyph glyph-name="one.osf" horiz-adv-x="529" 
d="M25 300v190h434v-490h-240v300h-194z" />
    <glyph glyph-name="two.osf" horiz-adv-x="1028" 
d="M518 150l-217 -28l-1 10l677 23v-155h-890v125q159 28 279 50.5t199.5 42t119.5 39t40 42.5q0 16 -17 23.5t-61.5 10.5t-127.5 3q-106 0 -160 -16.5t-59 -51.5h-250q0 74 54 127t160.5 81.5t263.5 28.5q93 0 174.5 -7.5t143.5 -26.5t97 -52.5t35 -85.5q0 -46 -34 -76
t-96 -49t-146 -32t-184 -26z" />
    <glyph glyph-name="three.osf" horiz-adv-x="1055" 
d="M582 171l-2 5q96 0 176.5 -4t139.5 -18t91.5 -44t32.5 -83q0 -66 -60.5 -110t-172.5 -66t-266 -22q-156 0 -264.5 28.5t-165 83.5t-56.5 136h251q2 -22 33.5 -34.5t84.5 -18t117 -5.5q119 0 176.5 9.5t57.5 48.5q0 38 -70 47t-205 9h-149v70h149q99 0 156 5.5t80.5 19
t23.5 35.5q0 32 -51.5 44.5t-162.5 12.5q-106 0 -170.5 -17.5t-68.5 -50.5h-249q0 67 38 116t105.5 80.5t156 46.5t188.5 15q152 0 257.5 -19.5t161 -58.5t55.5 -99q0 -49 -31 -80t-87 -48.5t-132.5 -24.5t-167.5 -9z" />
    <glyph glyph-name="four.osf" horiz-adv-x="1094" 
d="M900 495v-640h-240v536l91 -50l-443 -284l-17 58h385v-150h-626v150l610 380h240zM884 -35v150h180v-150h-180z" />
    <glyph glyph-name="five.osf" horiz-adv-x="1015" 
d="M650 236q62 0 118.5 -8.5t100.5 -29.5t70 -57t26 -90q0 -75 -49 -124t-146.5 -73t-243.5 -24q-95 0 -180 14.5t-150.5 43t-103 68.5t-37.5 91h220q3 -14 37 -25t86.5 -16.5t110.5 -5.5q38 0 76.5 1t70 6t50.5 16t19 31q0 21 -19.5 32.5t-51.5 16.5t-70 6t-75 1
q-45 0 -93 -3.5t-86.5 -8t-57.5 -9.5l-198 35l50 376h759v-190h-543l-24 -176l-32 4q26 24 82 46.5t130 37t154 14.5z" />
    <glyph glyph-name="six.osf" horiz-adv-x="1133" 
d="M692 440q134 0 224.5 -29t136 -80t45.5 -117t-51 -119t-159 -84t-278 -31q-190 0 -319 24t-195 73t-66 125q0 24 11.5 56t50.5 67q5 5 28.5 24.5t58.5 48t75 61.5t79 65t71.5 58t52 42l19.5 16h338l-634 -438l-63 -50q78 70 143.5 124t130 90.5t137 55t164.5 18.5z
M588 151q126 0 193 16t67 52q0 33 -67 52t-193 19q-142 0 -225 -19t-83 -52q0 -36 83 -52t225 -16z" />
    <glyph glyph-name="seven.osf" horiz-adv-x="1153" 
d="M60 300v190h1013v-190l-505 -450h-327l593 521l27 -71h-801z" />
    <glyph glyph-name="eight.osf" horiz-adv-x="1081" 
d="M540 339q-174 0 -278.5 13.5t-151 45.5t-46.5 86q0 55 46.5 94t151 60.5t278.5 21.5q175 0 279.5 -21.5t151 -60.5t46.5 -94q0 -54 -46.5 -86t-151 -45.5t-279.5 -13.5zM540 379q94 0 144 7t69 19t19 27t-19 25.5t-69 15.5t-144 5q-93 0 -140.5 -5t-64 -15.5t-16.5 -25.5
t16.5 -27t64 -19t140.5 -7zM540 -20q-185 0 -296 26t-160 71t-49 101q0 69 51.5 105t162.5 49t291 13t291.5 -13t163 -49t51.5 -105q0 -56 -49.5 -101t-160.5 -71t-296 -26zM540 169q104 0 160.5 5.5t78.5 17t22 28.5t-22 28t-78.5 16.5t-160.5 5.5q-103 0 -157 -5.5
t-73.5 -16.5t-19.5 -28t19.5 -28.5t73.5 -17t157 -5.5z" />
    <glyph glyph-name="nine.osf" horiz-adv-x="1158" 
d="M441 60q-134 0 -224.5 29t-136 80t-45.5 117q0 72 53 123t169.5 78.5t306.5 27.5t314 -23t184.5 -70.5t60.5 -123.5q0 -31 -17 -65t-60 -73q-4 -4 -26 -23t-55.5 -47t-72.5 -60t-77 -64t-69.5 -58t-50.5 -42l-19 -16h-337l633 448l64 40q-78 -66 -145 -118t-134.5 -87.5
t-143.5 -54t-172 -18.5zM564 350q-142 0 -210.5 -14.5t-68.5 -54.5q0 -37 68.5 -54t210.5 -17t225.5 17t83.5 54q0 27 -38 42t-107 21t-164 6z" />
    <glyph glyph-name="zero.tf" horiz-adv-x="1055" 
d="M527 660q163 0 273 -38.5t166 -114t56 -187.5t-56 -187.5t-166 -114t-273 -38.5t-273 38.5t-166 114t-56 187.5t56 187.5t166 114t273 38.5zM527 160q58 0 109.5 13t83.5 47.5t32 99.5q0 63 -32 96.5t-83.5 46t-109.5 12.5q-43 0 -85 -7t-76 -24t-54 -47t-20 -77
q0 -49 20 -80t54 -48.5t76 -24.5t85 -7z" />
    <glyph glyph-name="one.tf" horiz-adv-x="1055" 
d="M106 190h844v-190h-844v190zM186 460v180h474v-490h-240v310h-234z" />
    <glyph glyph-name="two.tf" horiz-adv-x="1055" 
d="M532 218l-311 -43l-1 15h781v-190h-910v190q163 38 275.5 66.5t185 49.5t113 37t58.5 28t22 22.5t4 21.5q0 17 -17.5 29.5t-64 19.5t-134.5 7q-114 0 -169 -16.5t-60 -51.5h-250q0 74 51.5 132t155.5 91.5t261 33.5q101 0 188 -8.5t152.5 -32t102.5 -67t37 -114.5
q0 -58 -36.5 -95.5t-101 -60t-149.5 -37t-183 -27.5z" />
    <glyph glyph-name="three.tf" horiz-adv-x="1055" 
d="M591 322l-2 6q94 -1 173 -5t136.5 -18.5t89.5 -44.5t32 -82q0 -67 -60.5 -110.5t-172.5 -65.5t-266 -22q-156 0 -264.5 28t-165 83.5t-56.5 136.5h251q2 -22 33.5 -35t84.5 -18t117 -5q119 0 176.5 9t57.5 49q0 37 -70 46t-205 9h-149v70h149q99 0 156 5.5t80.5 19
t23.5 35.5q0 32 -51.5 44.5t-162.5 12.5q-106 0 -170.5 -17t-68.5 -50h-249q0 67 38 115.5t105.5 80t156 46.5t188.5 15q152 0 257.5 -19t161 -58t55.5 -99q0 -48 -30 -79t-85 -48.5t-130 -25t-164 -9.5z" />
    <glyph glyph-name="four.tf" horiz-adv-x="1055" 
d="M870 640v-640h-240v536l91 -50l-443 -284l-17 58h385v-150h-626v150l610 380h240zM854 110v150h180v-150h-180z" />
    <glyph glyph-name="five.tf" horiz-adv-x="1055" 
d="M668 386q65 0 123.5 -8.5t104 -29.5t71.5 -57t26 -90q0 -75 -49.5 -124t-149 -73t-250.5 -24q-99 0 -186 14.5t-153.5 43t-104 68.5t-37.5 91h220q3 -14 37.5 -25t89 -16.5t117.5 -5.5q38 0 78 1t73.5 6t54 16t20.5 31q0 21 -21 32.5t-55 16.5t-73.5 6t-76.5 1
q-50 0 -100 -3.5t-89 -8t-58 -9.5l-198 35l50 376h779v-190h-563l-24 -179l-33 7q28 24 86.5 46.5t134.5 37t156 14.5z" />
    <glyph glyph-name="six.tf" horiz-adv-x="1055" 
d="M650 440q120 0 204 -29t128 -80t44 -117t-49.5 -119t-151 -84t-257.5 -31q-169 0 -290 24t-185 73t-64 125q0 24 11.5 56t49.5 67q7 6 34.5 31t66.5 61t81.5 74.5t79.5 72.5t60 55l23 21h337l-593 -438l-63 -50q62 56 112 101.5t95 80.5t92.5 58.5t104.5 35.5t130 12z
M546 151q112 0 171 15t59 53q0 35 -59 53t-171 18q-79 0 -139 -8t-94 -23.5t-34 -39.5q0 -25 34 -40t94 -21.5t139 -6.5z" />
    <glyph glyph-name="seven.tf" horiz-adv-x="1063" 
d="M20 450v190h1013v-190l-505 -450h-327l593 521l27 -71h-801z" />
    <glyph glyph-name="eight.tf" horiz-adv-x="1055" 
d="M527 339q-174 0 -278.5 13.5t-151 45.5t-46.5 86q0 55 46.5 94t151 60.5t278.5 21.5q175 0 279.5 -21.5t151 -60.5t46.5 -94q0 -54 -46.5 -86t-151 -45.5t-279.5 -13.5zM527 379q94 0 144 7t69 19t19 27t-19 25.5t-69 15.5t-144 5q-93 0 -140.5 -5t-64 -15.5t-16.5 -25.5
t16.5 -27t64 -19t140.5 -7zM527 -20q-185 0 -296 26t-160 71t-49 101q0 69 51.5 105t162.5 49t291 13t291.5 -13t163 -49t51.5 -105q0 -56 -49.5 -101t-160.5 -71t-296 -26zM527 169q104 0 160.5 5.5t78.5 17t22 28.5t-22 28t-78.5 16.5t-160.5 5.5q-103 0 -157 -5.5
t-73.5 -16.5t-19.5 -28t19.5 -28.5t73.5 -17t157 -5.5z" />
    <glyph glyph-name="nine.tf" horiz-adv-x="1055" 
d="M405 200q-119 0 -203.5 29t-128.5 80t-44 117q0 67 49.5 119.5t151.5 83.5t257 31q170 0 290.5 -24t184.5 -73t64 -125q0 -24 -11.5 -56t-49.5 -67q-6 -6 -34 -31t-67 -61t-81.5 -74.5t-79.5 -72.5t-60 -55l-23 -21h-337l593 438l63 50q-62 -56 -112 -101.5t-95.5 -80.5
t-93 -58.5t-104 -35.5t-129.5 -12zM509 489q-114 0 -172 -15t-58 -53q0 -35 58 -53t172 -18q76 0 136 8t95.5 24t35.5 39q0 26 -35.5 40.5t-95.5 21t-136 6.5z" />
    <glyph glyph-name="zero.tosf" horiz-adv-x="1055" 
d="M530 -15q-161 0 -268 26t-159.5 83t-52.5 150t52.5 150.5t159.5 84t268 26.5t266.5 -26.5t157.5 -84t52 -150.5t-52 -150t-157.5 -83t-266.5 -26zM530 135q81 0 132 12.5t75 36.5t24 60t-23.5 60.5t-74.5 37.5t-133 13t-134 -12.5t-76.5 -37.5t-24.5 -61t24 -60t76 -36.5
t135 -12.5z" />
    <glyph glyph-name="one.tosf" horiz-adv-x="1055" 
d="M106 180h844v-180h-844v180zM186 310v180h474v-341h-240v161h-234z" />
    <glyph glyph-name="two.tosf" horiz-adv-x="1055" 
d="M518 150l-217 -28l-1 10l677 23v-155h-890v125q159 28 279 50.5t199.5 42t119.5 39t40 42.5q0 16 -17 23.5t-61.5 10.5t-127.5 3q-106 0 -160 -16.5t-59 -51.5h-250q0 74 54 127t160.5 81.5t263.5 28.5q93 0 174.5 -7.5t143.5 -26.5t97 -52.5t35 -85.5q0 -46 -34 -76
t-96 -49t-146 -32t-184 -26z" />
    <glyph glyph-name="three.tosf" horiz-adv-x="1055" 
d="M582 171l-2 5q96 0 176.5 -4t139.5 -18t91.5 -44t32.5 -83q0 -66 -60.5 -110t-172.5 -66t-266 -22q-156 0 -264.5 28.5t-165 83.5t-56.5 136h251q2 -22 33.5 -34.5t84.5 -18t117 -5.5q119 0 176.5 9.5t57.5 48.5q0 38 -70 47t-205 9h-149v70h149q99 0 156 5.5t80.5 19
t23.5 35.5q0 32 -51.5 44.5t-162.5 12.5q-106 0 -170.5 -17.5t-68.5 -50.5h-249q0 67 38 116t105.5 80.5t156 46.5t188.5 15q152 0 257.5 -19.5t161 -58.5t55.5 -99q0 -49 -31 -80t-87 -48.5t-132.5 -24.5t-167.5 -9z" />
    <glyph glyph-name="four.tosf" horiz-adv-x="1055" 
d="M870 495v-640h-240v536l91 -50l-443 -284l-17 58h385v-150h-626v150l610 380h240zM854 -35v150h180v-150h-180z" />
    <glyph glyph-name="five.tosf" horiz-adv-x="1055" 
d="M668 226q65 0 123.5 -8.5t104 -29.5t71.5 -57t26 -90q0 -75 -49.5 -124t-149 -73t-250.5 -24q-99 0 -186 14.5t-153.5 43t-104 68.5t-37.5 91h220q3 -14 37.5 -25t89 -16.5t117.5 -5.5q38 0 78 1t73.5 6t54 16t20.5 31q0 21 -21 32.5t-55 16.5t-73.5 6t-76.5 1
q-50 0 -100 -3.5t-89 -8t-58 -9.5l-198 35l50 376h779v-190h-563l-22 -170l-35 -2q28 24 86.5 46.5t134.5 37t156 14.5z" />
    <glyph glyph-name="six.tosf" horiz-adv-x="1055" 
d="M650 440q120 0 204 -29t128 -80t44 -117t-49.5 -119t-151 -84t-257.5 -31q-169 0 -290 24t-185 73t-64 125q0 24 11.5 56t49.5 67q7 6 34.5 31t66.5 61t81.5 74.5t79.5 72.5t60 55l23 21h337l-593 -438l-63 -50q62 56 112 101.5t95 80.5t92.5 58.5t104.5 35.5t130 12z
M546 151q112 0 171 15t59 53q0 35 -59 53t-171 18q-79 0 -139 -8t-94 -23.5t-34 -39.5q0 -25 34 -40t94 -21.5t139 -6.5z" />
    <glyph glyph-name="seven.tosf" horiz-adv-x="1055" 
d="M21 300v190h1013v-190l-505 -450h-327l593 521l27 -71h-801z" />
    <glyph glyph-name="eight.tosf" horiz-adv-x="1055" 
d="M527 339q-174 0 -278.5 13.5t-151 45.5t-46.5 86q0 55 46.5 94t151 60.5t278.5 21.5q175 0 279.5 -21.5t151 -60.5t46.5 -94q0 -54 -46.5 -86t-151 -45.5t-279.5 -13.5zM527 379q94 0 144 7t69 19t19 27t-19 25.5t-69 15.5t-144 5q-93 0 -140.5 -5t-64 -15.5t-16.5 -25.5
t16.5 -27t64 -19t140.5 -7zM527 -20q-185 0 -296 26t-160 71t-49 101q0 69 51.5 105t162.5 49t291 13t291.5 -13t163 -49t51.5 -105q0 -56 -49.5 -101t-160.5 -71t-296 -26zM527 169q104 0 160.5 5.5t78.5 17t22 28.5t-22 28t-78.5 16.5t-160.5 5.5q-103 0 -157 -5.5
t-73.5 -16.5t-19.5 -28t19.5 -28.5t73.5 -17t157 -5.5z" />
    <glyph glyph-name="nine.tosf" horiz-adv-x="1055" 
d="M405 45q-119 0 -203.5 29t-128.5 80t-44 117q0 67 49.5 119.5t151.5 83.5t257 31q170 0 290.5 -24t184.5 -73t64 -125q0 -24 -11.5 -56t-49.5 -67q-6 -6 -34 -31t-67 -61t-81.5 -74.5t-79.5 -72.5t-60 -55l-23 -21h-337l593 438l63 50q-62 -56 -112 -101.5t-95.5 -80.5
t-93 -58.5t-104 -35.5t-129.5 -12zM519 334q-114 0 -177 -15t-63 -53q0 -35 63 -53t177 -18q121 0 189 18t68 53q0 38 -68 53t-189 15z" />
    <glyph glyph-name="zero.dnom" horiz-adv-x="720" 
d="M360 419q107 0 179.5 -24.5t109 -73.5t36.5 -122t-36.5 -121.5t-109 -73t-179.5 -24.5t-179.5 24.5t-109 73t-36.5 121.5t36.5 122t109 73.5t179.5 24.5zM360 127q62 0 91.5 17.5t29.5 54.5q0 36 -29.5 53t-91.5 17q-63 0 -94.5 -17t-31.5 -53q0 -37 31 -54.5t95 -17.5z
" />
    <glyph glyph-name="one.dnom" horiz-adv-x="699" 
d="M25 0v135h204v132h-204v135h404v-267h170v-135h-574z" />
    <glyph glyph-name="two.dnom" horiz-adv-x="680" 
d="M629 0h-570v129q107 15 177.5 26.5t112 21t61.5 18.5t26 17.5t6 18.5q0 34 -82 34q-76 0 -109.5 -12.5t-41.5 -28.5h-174q0 50 32 94t102.5 71t184.5 27q82 0 146.5 -12.5t102 -42t37.5 -81.5q0 -45 -26 -71t-77 -40t-126 -24l-136 -16l354 10v-139z" />
    <glyph glyph-name="three.dnom" horiz-adv-x="683" 
d="M459 191q56 -1 98.5 -6t66.5 -22.5t24 -56.5q0 -67 -79.5 -96.5t-225.5 -29.5q-99 0 -168 17.5t-104.5 54t-35.5 94.5h143q2 -19 43 -26t119 -7q68 0 97 5t29 25t-32 24t-94 4h-136v40h136q68 0 93 7.5t25 23.5q0 14 -24.5 20.5t-93.5 6.5q-76 0 -117.5 -8.5t-43.5 -19.5
h-142q0 63 41 101.5t109 56t149 17.5q152 0 226.5 -31.5t74.5 -92.5q0 -48 -49.5 -72t-128.5 -29z" />
    <glyph glyph-name="four.dnom" horiz-adv-x="673" 
d="M354 0v63h-304v132l339 206h175v-228h79v-110h-79v-63h-210zM234 160h130v104z" />
    <glyph glyph-name="five.dnom" horiz-adv-x="675" 
d="M425 236q58 0 103 -12t71 -38.5t26 -70.5q0 -72 -66.5 -103.5t-214.5 -31.5q-87 0 -152 17t-101 50t-36 80h146q2 -12 41.5 -19t111.5 -7q38 0 62.5 6t24.5 25q0 20 -24.5 23.5t-62.5 3.5h-75.5t-57.5 -0.5l-22 -0.5l-119 34l14 210h484v-130h-365l-6 -78q41 24 94.5 33
t123.5 9z" />
    <glyph glyph-name="six.dnom" horiz-adv-x="677" 
d="M430 283q101 0 156.5 -34.5t55.5 -104.5q0 -79 -66.5 -121.5t-212.5 -42.5q-108 0 -182.5 17t-112.5 49.5t-38 80.5q0 21 9 48.5t48 61.5q10 8 33 27t51 42.5t54.5 45t44 35.5l17.5 14h223l-210 -144q27 11 59 18.5t71 7.5zM346 112q72 0 100 9.5t28 25.5q0 19 -28 27.5
t-100 8.5q-66 0 -101 -8.5t-35 -27.5q0 -18 35 -26.5t101 -8.5z" />
    <glyph glyph-name="seven.dnom" horiz-adv-x="656" 
d="M30 266v135h596v-153l-219 -248h-250l254 266h-381z" />
    <glyph glyph-name="eight.dnom" horiz-adv-x="668" 
d="M479 202q41 -1 76 -11.5t56.5 -31.5t21.5 -55q0 -37 -28.5 -64.5t-94 -42.5t-176.5 -15t-176.5 15t-94 42.5t-28.5 64.5q0 34 21.5 55t54.5 31.5t69 11.5q-33 4 -62 15t-47.5 31.5t-18.5 52.5q0 61 66 88t216 27t216 -27t66 -88q0 -48 -40.5 -70.5t-96.5 -28.5zM334 286
q-55 0 -74.5 -6.5t-19.5 -20.5q0 -13 19.5 -22t74.5 -9q56 0 78 9t22 22q0 14 -22 20.5t-78 6.5zM334 113q67 0 93 7.5t26 21.5q0 15 -26 22t-93 7t-90 -7t-23 -22q0 -14 23 -21.5t90 -7.5z" />
    <glyph glyph-name="nine.dnom" horiz-adv-x="682" 
d="M314 415q109 0 183 -16.5t112 -49t38 -81.5q0 -21 -9 -48t-48 -62q-10 -8 -33 -26.5t-51 -41t-54.5 -43t-44 -34l-17.5 -13.5h-223l199 133q-22 -9 -47 -15t-52 -6q-115 0 -173.5 34t-58.5 105q0 80 66.5 122t212.5 42zM331 212q66 0 101 9t35 28q0 17 -35 25.5t-101 8.5
q-64 0 -91 -9t-27 -25q0 -19 27 -28t91 -9z" />
    <glyph glyph-name="zero.numr" horiz-adv-x="720" 
d="M360 659q107 0 179.5 -24.5t109 -73.5t36.5 -122q0 -72 -36.5 -121t-109 -73.5t-179.5 -24.5t-179.5 24.5t-109 73.5t-36.5 121q0 73 36.5 122t109 73.5t179.5 24.5zM360 367q62 0 91.5 17.5t29.5 54.5q0 36 -29.5 53t-91.5 17q-63 0 -94.5 -17t-31.5 -53q0 -37 31 -54.5
t95 -17.5z" />
    <glyph glyph-name="one.numr" horiz-adv-x="699" 
d="M25 240v135h204v132h-204v135h404v-267h170v-135h-574z" />
    </font>
</defs>
</svg>
